STARTFONT 2.1
COMMENT
COMMENT Converted from OpenType font "KH-Dot-Dougenzaka-12.ttf" by "otf2bdf 3.0".
COMMENT
FONT -FreeType-KH Dot Dougenzaka 12-Medium-R-Normal--12-90-100-100-P-128-ISO10646-1
SIZE 9 100 100
FONTBOUNDINGBOX 13 13 0 -2
STARTPROPERTIES 19
FOUNDRY "FreeType"
FAMILY_NAME "KH Dot Dougenzaka 12"
WEIGHT_NAME "Medium"
SLANT "R"
SETWIDTH_NAME "Normal"
ADD_STYLE_NAME ""
PIXEL_SIZE 12
POINT_SIZE 90
RESOLUTION_X 100
RESOLUTION_Y 100
SPACING "P"
AVERAGE_WIDTH 128
CHARSET_REGISTRY "ISO10646"
CHARSET_ENCODING "1"
FONT_ASCENT 11
FONT_DESCENT 1
COPYRIGHT "Copyright (c) Keitarou Hiraki, Font Silo. 1990-2015"
_OTF_FONTFILE "KH-Dot-Dougenzaka-12.ttf"
_OTF_PSNAME "KH-Dot-Dougenzaka-12"
ENDPROPERTIES
CHARS 7199
STARTCHAR 0020
ENCODING 32
SWIDTH 560 0
DWIDTH 7 0
BBX 0 0 0 0
BITMAP
ENDCHAR
STARTCHAR 0021
ENCODING 33
SWIDTH 560 0
DWIDTH 7 0
BBX 2 10 2 -1
BITMAP
C0
C0
C0
C0
C0
00
00
00
C0
C0
ENDCHAR
STARTCHAR 0022
ENCODING 34
SWIDTH 560 0
DWIDTH 7 0
BBX 5 4 0 6
BITMAP
D8
D8
48
90
ENDCHAR
STARTCHAR 0023
ENCODING 35
SWIDTH 560 0
DWIDTH 7 0
BBX 5 11 0 -1
BITMAP
10
58
78
F0
D0
58
78
70
F0
D0
40
ENDCHAR
STARTCHAR 0024
ENCODING 36
SWIDTH 560 0
DWIDTH 7 0
BBX 5 12 0 -2
BITMAP
20
70
A8
B8
E0
70
38
28
E8
A8
70
20
ENDCHAR
STARTCHAR 0025
ENCODING 37
SWIDTH 560 0
DWIDTH 7 0
BBX 5 10 0 -1
BITMAP
E0
A8
E8
10
20
40
B8
B8
A8
38
ENDCHAR
STARTCHAR 0026
ENCODING 38
SWIDTH 560 0
DWIDTH 7 0
BBX 5 10 0 -1
BITMAP
60
D0
D0
60
58
F8
D0
D0
D8
68
ENDCHAR
STARTCHAR 0027
ENCODING 39
SWIDTH 560 0
DWIDTH 7 0
BBX 2 4 2 6
BITMAP
C0
C0
40
80
ENDCHAR
STARTCHAR 0028
ENCODING 40
SWIDTH 560 0
DWIDTH 7 0
BBX 3 11 2 -1
BITMAP
20
40
40
C0
C0
C0
C0
C0
40
40
20
ENDCHAR
STARTCHAR 0029
ENCODING 41
SWIDTH 560 0
DWIDTH 7 0
BBX 3 11 1 -1
BITMAP
80
40
40
60
60
60
60
40
40
40
80
ENDCHAR
STARTCHAR 002A
ENCODING 42
SWIDTH 560 0
DWIDTH 7 0
BBX 5 7 0 1
BITMAP
20
A8
70
70
A8
A8
20
ENDCHAR
STARTCHAR 002B
ENCODING 43
SWIDTH 560 0
DWIDTH 7 0
BBX 5 6 0 2
BITMAP
20
20
F8
20
20
20
ENDCHAR
STARTCHAR 002C
ENCODING 44
SWIDTH 560 0
DWIDTH 7 0
BBX 2 5 2 -2
BITMAP
C0
C0
C0
40
80
ENDCHAR
STARTCHAR 002D
ENCODING 45
SWIDTH 560 0
DWIDTH 7 0
BBX 5 1 0 5
BITMAP
F8
ENDCHAR
STARTCHAR 002E
ENCODING 46
SWIDTH 560 0
DWIDTH 7 0
BBX 2 4 2 -1
BITMAP
C0
C0
C0
C0
ENDCHAR
STARTCHAR 002F
ENCODING 47
SWIDTH 560 0
DWIDTH 7 0
BBX 5 11 0 -1
BITMAP
08
08
10
10
20
20
40
40
40
80
80
ENDCHAR
STARTCHAR 0030
ENCODING 48
SWIDTH 560 0
DWIDTH 7 0
BBX 5 10 0 -1
BITMAP
70
50
D8
D8
D8
D8
D8
D8
50
70
ENDCHAR
STARTCHAR 0031
ENCODING 49
SWIDTH 560 0
DWIDTH 7 0
BBX 4 10 1 -1
BITMAP
60
E0
60
60
60
60
60
60
60
F0
ENDCHAR
STARTCHAR 0032
ENCODING 50
SWIDTH 560 0
DWIDTH 7 0
BBX 5 10 0 -1
BITMAP
70
D8
D8
18
30
40
C8
88
F8
F8
ENDCHAR
STARTCHAR 0033
ENCODING 51
SWIDTH 560 0
DWIDTH 7 0
BBX 5 10 0 -1
BITMAP
70
D8
D8
18
70
18
D8
D8
D8
70
ENDCHAR
STARTCHAR 0034
ENCODING 52
SWIDTH 560 0
DWIDTH 7 0
BBX 5 10 0 -1
BITMAP
18
38
38
78
58
D8
D8
F8
18
38
ENDCHAR
STARTCHAR 0035
ENCODING 53
SWIDTH 560 0
DWIDTH 7 0
BBX 5 10 0 -1
BITMAP
F8
C0
C0
F0
D8
18
D8
D8
F8
70
ENDCHAR
STARTCHAR 0036
ENCODING 54
SWIDTH 560 0
DWIDTH 7 0
BBX 5 10 0 -1
BITMAP
70
D8
D8
C0
F0
D8
D8
D8
D8
70
ENDCHAR
STARTCHAR 0037
ENCODING 55
SWIDTH 560 0
DWIDTH 7 0
BBX 5 10 0 -1
BITMAP
F8
F8
90
10
30
20
20
60
60
60
ENDCHAR
STARTCHAR 0038
ENCODING 56
SWIDTH 560 0
DWIDTH 7 0
BBX 5 10 0 -1
BITMAP
70
D8
D8
D8
70
D8
D8
D8
D8
70
ENDCHAR
STARTCHAR 0039
ENCODING 57
SWIDTH 560 0
DWIDTH 7 0
BBX 5 10 0 -1
BITMAP
70
D8
D8
D8
78
18
D8
D8
D8
70
ENDCHAR
STARTCHAR 003A
ENCODING 58
SWIDTH 560 0
DWIDTH 7 0
BBX 2 9 2 -1
BITMAP
C0
C0
C0
00
00
C0
C0
C0
C0
ENDCHAR
STARTCHAR 003B
ENCODING 59
SWIDTH 560 0
DWIDTH 7 0
BBX 2 10 2 -2
BITMAP
C0
C0
C0
00
00
C0
C0
C0
40
80
ENDCHAR
STARTCHAR 003C
ENCODING 60
SWIDTH 560 0
DWIDTH 7 0
BBX 4 9 1 0
BITMAP
10
30
60
C0
C0
60
70
30
10
ENDCHAR
STARTCHAR 003D
ENCODING 61
SWIDTH 560 0
DWIDTH 7 0
BBX 5 3 0 4
BITMAP
F8
00
F8
ENDCHAR
STARTCHAR 003E
ENCODING 62
SWIDTH 560 0
DWIDTH 7 0
BBX 4 9 1 0
BITMAP
80
C0
60
30
30
60
40
C0
80
ENDCHAR
STARTCHAR 003F
ENCODING 63
SWIDTH 560 0
DWIDTH 7 0
BBX 5 10 0 -1
BITMAP
70
D8
D8
18
30
60
60
00
60
60
ENDCHAR
STARTCHAR 0040
ENCODING 64
SWIDTH 560 0
DWIDTH 7 0
BBX 5 10 0 -1
BITMAP
70
D8
F8
D8
D8
D8
D0
F0
C8
70
ENDCHAR
STARTCHAR 0041
ENCODING 65
SWIDTH 560 0
DWIDTH 7 0
BBX 5 10 0 -1
BITMAP
70
98
98
98
98
F8
98
98
98
D8
ENDCHAR
STARTCHAR 0042
ENCODING 66
SWIDTH 560 0
DWIDTH 7 0
BBX 5 10 0 -1
BITMAP
F0
D8
D8
D8
F0
D8
D8
D8
D8
F0
ENDCHAR
STARTCHAR 0043
ENCODING 67
SWIDTH 560 0
DWIDTH 7 0
BBX 5 10 0 -1
BITMAP
68
D8
C8
C0
C0
C8
C8
C8
C8
70
ENDCHAR
STARTCHAR 0044
ENCODING 68
SWIDTH 560 0
DWIDTH 7 0
BBX 5 10 0 -1
BITMAP
E0
D0
D8
D8
D8
D8
D8
D8
D0
E0
ENDCHAR
STARTCHAR 0045
ENCODING 69
SWIDTH 560 0
DWIDTH 7 0
BBX 5 10 0 -1
BITMAP
F8
D8
C8
D0
F0
D0
D8
C8
D8
F8
ENDCHAR
STARTCHAR 0046
ENCODING 70
SWIDTH 560 0
DWIDTH 7 0
BBX 5 10 0 -1
BITMAP
F8
D8
C8
D0
F0
D0
D0
C0
C0
E0
ENDCHAR
STARTCHAR 0047
ENCODING 71
SWIDTH 560 0
DWIDTH 7 0
BBX 5 10 0 -1
BITMAP
68
D8
C8
C0
F8
D8
D8
D8
D8
68
ENDCHAR
STARTCHAR 0048
ENCODING 72
SWIDTH 560 0
DWIDTH 7 0
BBX 5 10 0 -1
BITMAP
D8
D8
D8
D8
F8
D8
D8
D8
D8
D8
ENDCHAR
STARTCHAR 0049
ENCODING 73
SWIDTH 560 0
DWIDTH 7 0
BBX 4 10 1 -1
BITMAP
F0
60
60
60
60
60
60
60
60
F0
ENDCHAR
STARTCHAR 004A
ENCODING 74
SWIDTH 560 0
DWIDTH 7 0
BBX 5 10 0 -1
BITMAP
38
18
18
18
18
D8
D8
D8
98
70
ENDCHAR
STARTCHAR 004B
ENCODING 75
SWIDTH 560 0
DWIDTH 7 0
BBX 5 10 0 -1
BITMAP
D8
D8
D8
D0
E0
D0
D8
D8
D8
D8
ENDCHAR
STARTCHAR 004C
ENCODING 76
SWIDTH 560 0
DWIDTH 7 0
BBX 5 10 0 -1
BITMAP
E0
C0
C0
C0
C0
C0
C8
C8
D8
F8
ENDCHAR
STARTCHAR 004D
ENCODING 77
SWIDTH 560 0
DWIDTH 7 0
BBX 5 10 0 -1
BITMAP
88
D8
F8
B8
98
98
98
98
98
D8
ENDCHAR
STARTCHAR 004E
ENCODING 78
SWIDTH 560 0
DWIDTH 7 0
BBX 5 10 0 -1
BITMAP
98
C8
C8
E8
A8
B8
B8
98
98
C8
ENDCHAR
STARTCHAR 004F
ENCODING 79
SWIDTH 560 0
DWIDTH 7 0
BBX 5 10 0 -1
BITMAP
70
D8
D8
D8
D8
D8
D8
D8
D8
70
ENDCHAR
STARTCHAR 0050
ENCODING 80
SWIDTH 560 0
DWIDTH 7 0
BBX 5 10 0 -1
BITMAP
F0
D8
D8
D8
F0
C0
C0
C0
C0
E0
ENDCHAR
STARTCHAR 0051
ENCODING 81
SWIDTH 560 0
DWIDTH 7 0
BBX 5 11 0 -2
BITMAP
70
D8
D8
D8
D8
F8
D8
D8
D8
70
18
ENDCHAR
STARTCHAR 0052
ENCODING 82
SWIDTH 560 0
DWIDTH 7 0
BBX 5 10 0 -1
BITMAP
F0
D8
D8
D8
F0
D8
D8
D8
D8
D8
ENDCHAR
STARTCHAR 0053
ENCODING 83
SWIDTH 560 0
DWIDTH 7 0
BBX 5 10 0 -1
BITMAP
68
D8
C8
C0
70
18
98
98
D8
B0
ENDCHAR
STARTCHAR 0054
ENCODING 84
SWIDTH 560 0
DWIDTH 7 0
BBX 7 10 0 -1
BITMAP
FE
B6
30
30
30
30
30
30
30
78
ENDCHAR
STARTCHAR 0055
ENCODING 85
SWIDTH 560 0
DWIDTH 7 0
BBX 5 10 0 -1
BITMAP
D8
C8
C8
C8
C8
C8
C8
C8
C8
70
ENDCHAR
STARTCHAR 0056
ENCODING 86
SWIDTH 560 0
DWIDTH 7 0
BBX 5 10 0 -1
BITMAP
D8
C8
C8
C8
C8
C8
D8
50
70
20
ENDCHAR
STARTCHAR 0057
ENCODING 87
SWIDTH 560 0
DWIDTH 7 0
BBX 5 10 0 -1
BITMAP
D8
C8
C8
C8
E8
E8
E8
D8
C8
88
ENDCHAR
STARTCHAR 0058
ENCODING 88
SWIDTH 560 0
DWIDTH 7 0
BBX 5 10 0 -1
BITMAP
D8
C8
D0
70
20
70
58
58
98
D8
ENDCHAR
STARTCHAR 0059
ENCODING 89
SWIDTH 560 0
DWIDTH 7 0
BBX 7 10 0 -1
BITMAP
EE
C8
68
70
30
30
30
30
30
78
ENDCHAR
STARTCHAR 005A
ENCODING 90
SWIDTH 560 0
DWIDTH 7 0
BBX 5 10 0 -1
BITMAP
F8
98
B0
30
60
60
48
C8
D8
F8
ENDCHAR
STARTCHAR 005B
ENCODING 91
SWIDTH 560 0
DWIDTH 7 0
BBX 4 11 1 -1
BITMAP
F0
C0
C0
C0
C0
C0
C0
C0
C0
C0
F0
ENDCHAR
STARTCHAR 005C
ENCODING 92
SWIDTH 560 0
DWIDTH 7 0
BBX 7 10 0 -1
BITMAP
DE
C8
70
FE
30
FE
F0
30
30
78
ENDCHAR
STARTCHAR 005D
ENCODING 93
SWIDTH 560 0
DWIDTH 7 0
BBX 4 11 1 -1
BITMAP
F0
30
30
30
30
30
30
30
30
30
F0
ENDCHAR
STARTCHAR 005E
ENCODING 94
SWIDTH 560 0
DWIDTH 7 0
BBX 5 3 0 7
BITMAP
20
70
88
ENDCHAR
STARTCHAR 005F
ENCODING 95
SWIDTH 560 0
DWIDTH 7 0
BBX 5 1 0 -1
BITMAP
F8
ENDCHAR
STARTCHAR 0060
ENCODING 96
SWIDTH 560 0
DWIDTH 7 0
BBX 2 4 2 6
BITMAP
C0
C0
80
40
ENDCHAR
STARTCHAR 0061
ENCODING 97
SWIDTH 560 0
DWIDTH 7 0
BBX 5 8 0 -1
BITMAP
70
D8
18
78
58
D8
D8
78
ENDCHAR
STARTCHAR 0062
ENCODING 98
SWIDTH 560 0
DWIDTH 7 0
BBX 5 11 0 -1
BITMAP
C0
C0
C0
F0
D8
D8
D8
D8
D8
D8
F0
ENDCHAR
STARTCHAR 0063
ENCODING 99
SWIDTH 560 0
DWIDTH 7 0
BBX 5 8 0 -1
BITMAP
70
D8
C0
C0
C8
C8
C8
70
ENDCHAR
STARTCHAR 0064
ENCODING 100
SWIDTH 560 0
DWIDTH 7 0
BBX 7 11 0 -1
BITMAP
38
18
18
78
D8
D8
D8
D8
D8
D8
7E
ENDCHAR
STARTCHAR 0065
ENCODING 101
SWIDTH 560 0
DWIDTH 7 0
BBX 5 8 0 -1
BITMAP
70
D8
D8
F8
C0
C0
C8
70
ENDCHAR
STARTCHAR 0066
ENCODING 102
SWIDTH 560 0
DWIDTH 7 0
BBX 5 11 0 -1
BITMAP
38
58
60
F8
60
60
60
60
60
60
F0
ENDCHAR
STARTCHAR 0067
ENCODING 103
SWIDTH 560 0
DWIDTH 7 0
BBX 5 10 0 -2
BITMAP
08
70
D8
D8
70
40
40
F8
D8
70
ENDCHAR
STARTCHAR 0068
ENCODING 104
SWIDTH 560 0
DWIDTH 7 0
BBX 5 11 0 -1
BITMAP
C0
C0
C0
F0
D8
D8
D8
D8
D8
D8
D8
ENDCHAR
STARTCHAR 0069
ENCODING 105
SWIDTH 560 0
DWIDTH 7 0
BBX 4 11 1 -1
BITMAP
60
60
00
E0
60
60
60
60
60
60
F0
ENDCHAR
STARTCHAR 006A
ENCODING 106
SWIDTH 560 0
DWIDTH 7 0
BBX 5 12 0 -2
BITMAP
18
18
00
38
18
18
18
D8
D8
D8
D8
70
ENDCHAR
STARTCHAR 006B
ENCODING 107
SWIDTH 560 0
DWIDTH 7 0
BBX 5 11 0 -1
BITMAP
C0
C0
C0
D8
D8
D0
F0
D8
D8
D8
D8
ENDCHAR
STARTCHAR 006C
ENCODING 108
SWIDTH 560 0
DWIDTH 7 0
BBX 4 11 1 -1
BITMAP
E0
60
60
60
60
60
60
60
60
60
F0
ENDCHAR
STARTCHAR 006D
ENCODING 109
SWIDTH 560 0
DWIDTH 7 0
BBX 5 8 0 -1
BITMAP
F0
F8
F8
F8
F8
F8
F8
A8
ENDCHAR
STARTCHAR 006E
ENCODING 110
SWIDTH 560 0
DWIDTH 7 0
BBX 5 8 0 -1
BITMAP
F0
D8
D8
D8
D8
D8
D8
D8
ENDCHAR
STARTCHAR 006F
ENCODING 111
SWIDTH 560 0
DWIDTH 7 0
BBX 5 8 0 -1
BITMAP
70
D8
D8
D8
D8
D8
D8
70
ENDCHAR
STARTCHAR 0070
ENCODING 112
SWIDTH 560 0
DWIDTH 7 0
BBX 5 9 0 -2
BITMAP
F0
D8
D8
D8
D8
D8
F0
C0
E0
ENDCHAR
STARTCHAR 0071
ENCODING 113
SWIDTH 560 0
DWIDTH 7 0
BBX 5 9 0 -2
BITMAP
78
D8
D8
D8
D8
D8
78
18
38
ENDCHAR
STARTCHAR 0072
ENCODING 114
SWIDTH 560 0
DWIDTH 7 0
BBX 5 8 0 -1
BITMAP
F8
58
60
60
60
60
60
E0
ENDCHAR
STARTCHAR 0073
ENCODING 115
SWIDTH 560 0
DWIDTH 7 0
BBX 5 8 0 -1
BITMAP
68
D8
C0
70
78
18
D8
B0
ENDCHAR
STARTCHAR 0074
ENCODING 116
SWIDTH 560 0
DWIDTH 7 0
BBX 5 10 0 -1
BITMAP
60
60
F8
60
60
60
60
60
58
38
ENDCHAR
STARTCHAR 0075
ENCODING 117
SWIDTH 560 0
DWIDTH 7 0
BBX 5 8 0 -1
BITMAP
D8
D8
D8
D8
D8
D8
D8
78
ENDCHAR
STARTCHAR 0076
ENCODING 118
SWIDTH 560 0
DWIDTH 7 0
BBX 5 8 0 -1
BITMAP
D8
C8
C8
50
50
70
20
20
ENDCHAR
STARTCHAR 0077
ENCODING 119
SWIDTH 560 0
DWIDTH 7 0
BBX 5 8 0 -1
BITMAP
D8
C8
C8
C8
E8
E8
D8
88
ENDCHAR
STARTCHAR 0078
ENCODING 120
SWIDTH 560 0
DWIDTH 7 0
BBX 5 8 0 -1
BITMAP
D8
C8
70
20
30
70
98
D8
ENDCHAR
STARTCHAR 0079
ENCODING 121
SWIDTH 560 0
DWIDTH 7 0
BBX 5 9 0 -2
BITMAP
D8
C8
48
70
70
30
20
E0
C0
ENDCHAR
STARTCHAR 007A
ENCODING 122
SWIDTH 560 0
DWIDTH 7 0
BBX 5 8 0 -1
BITMAP
F8
B0
30
60
68
68
C8
F8
ENDCHAR
STARTCHAR 007B
ENCODING 123
SWIDTH 560 0
DWIDTH 7 0
BBX 5 11 0 -1
BITMAP
18
30
30
30
E0
30
30
30
30
30
18
ENDCHAR
STARTCHAR 007C
ENCODING 124
SWIDTH 560 0
DWIDTH 7 0
BBX 2 11 2 -1
BITMAP
C0
C0
C0
C0
C0
C0
C0
C0
C0
C0
C0
ENDCHAR
STARTCHAR 007D
ENCODING 125
SWIDTH 560 0
DWIDTH 7 0
BBX 5 11 0 -1
BITMAP
C0
60
60
60
38
60
60
60
60
60
C0
ENDCHAR
STARTCHAR 00A0
ENCODING 160
SWIDTH 560 0
DWIDTH 7 0
BBX 0 0 0 0
BITMAP
ENDCHAR
STARTCHAR 00A2
ENCODING 162
SWIDTH 1040 0
DWIDTH 13 0
BBX 8 11 2 -2
BITMAP
0C
0C
3E
4D
DB
D8
D8
D8
5A
3C
20
ENDCHAR
STARTCHAR 00A3
ENCODING 163
SWIDTH 1040 0
DWIDTH 13 0
BBX 12 12 0 -2
BITMAP
0FC0
1060
3060
3000
FFC0
1800
0E00
0E00
3E00
4E10
5BF0
30E0
ENDCHAR
STARTCHAR 00A5
ENCODING 165
SWIDTH 560 0
DWIDTH 7 0
BBX 7 10 0 -1
BITMAP
DE
C8
70
FE
30
FE
F0
30
30
78
ENDCHAR
STARTCHAR 00A7
ENCODING 167
SWIDTH 1040 0
DWIDTH 13 0
BBX 7 13 3 -2
BITMAP
7C
86
C6
78
5C
86
C2
7C
7C
1C
C6
C6
7C
ENDCHAR
STARTCHAR 00A8
ENCODING 168
SWIDTH 1040 0
DWIDTH 13 0
BBX 6 2 3 9
BITMAP
DC
DC
ENDCHAR
STARTCHAR 00AC
ENCODING 172
SWIDTH 1040 0
DWIDTH 13 0
BBX 9 5 2 1
BITMAP
FF80
0080
0080
0080
0080
ENDCHAR
STARTCHAR 00B0
ENCODING 176
SWIDTH 1040 0
DWIDTH 13 0
BBX 4 4 0 7
BITMAP
60
90
90
60
ENDCHAR
STARTCHAR 00B1
ENCODING 177
SWIDTH 1040 0
DWIDTH 13 0
BBX 10 10 1 0
BITMAP
0C00
0C00
0C00
FFC0
0C00
0C00
0C00
0C00
0000
FFC0
ENDCHAR
STARTCHAR 00B4
ENCODING 180
SWIDTH 1040 0
DWIDTH 13 0
BBX 4 2 4 9
BITMAP
30
F0
ENDCHAR
STARTCHAR 00B6
ENCODING 182
SWIDTH 1040 0
DWIDTH 13 0
BBX 8 12 2 -2
BITMAP
7F
F9
F9
F9
79
19
19
19
19
19
19
19
ENDCHAR
STARTCHAR 00D7
ENCODING 215
SWIDTH 1040 0
DWIDTH 13 0
BBX 8 8 2 1
BITMAP
81
42
2C
18
2C
42
C3
81
ENDCHAR
STARTCHAR 00F7
ENCODING 247
SWIDTH 1040 0
DWIDTH 13 0
BBX 9 10 2 0
BITMAP
1C00
1C00
0000
0000
FF80
0000
0000
1C00
1C00
1C00
ENDCHAR
STARTCHAR 0391
ENCODING 913
SWIDTH 1040 0
DWIDTH 13 0
BBX 10 10 1 -1
BITMAP
0C00
0C00
1E00
1600
2700
3F00
4180
4180
4180
E7C0
ENDCHAR
STARTCHAR 0392
ENCODING 914
SWIDTH 1040 0
DWIDTH 13 0
BBX 9 10 2 -1
BITMAP
FE00
6300
6300
7E00
6100
6180
6180
6180
6100
FE00
ENDCHAR
STARTCHAR 0393
ENCODING 915
SWIDTH 1040 0
DWIDTH 13 0
BBX 9 10 2 -1
BITMAP
FF80
6080
6080
6000
6000
6000
6000
6000
6000
F800
ENDCHAR
STARTCHAR 0394
ENCODING 916
SWIDTH 1040 0
DWIDTH 13 0
BBX 10 10 1 -1
BITMAP
0C00
0C00
1E00
1600
2700
2100
4180
4180
7F80
FFC0
ENDCHAR
STARTCHAR 0395
ENCODING 917
SWIDTH 1040 0
DWIDTH 13 0
BBX 9 10 2 -1
BITMAP
FF80
6080
6200
7E00
6200
6200
6280
6080
6080
FF80
ENDCHAR
STARTCHAR 0396
ENCODING 918
SWIDTH 1040 0
DWIDTH 13 0
BBX 9 10 2 -1
BITMAP
FF00
8300
8E00
1C00
1C00
3800
2080
6080
C080
FF80
ENDCHAR
STARTCHAR 0397
ENCODING 919
SWIDTH 1040 0
DWIDTH 13 0
BBX 10 10 1 -1
BITMAP
F7C0
6180
6180
7F80
6180
6180
6180
6180
6180
F7C0
ENDCHAR
STARTCHAR 0398
ENCODING 920
SWIDTH 1040 0
DWIDTH 13 0
BBX 9 10 2 -1
BITMAP
3E00
4100
C180
C180
FF80
C180
C180
C180
4100
3E00
ENDCHAR
STARTCHAR 0399
ENCODING 921
SWIDTH 1040 0
DWIDTH 13 0
BBX 5 10 4 -1
BITMAP
F8
70
70
70
70
70
70
70
70
F8
ENDCHAR
STARTCHAR 039A
ENCODING 922
SWIDTH 1040 0
DWIDTH 13 0
BBX 10 10 2 -1
BITMAP
FB80
6200
6C00
7800
6C00
6E00
6F00
6300
6180
FBC0
ENDCHAR
STARTCHAR 039B
ENCODING 923
SWIDTH 1040 0
DWIDTH 13 0
BBX 10 10 1 -1
BITMAP
0C00
0C00
1E00
1600
2700
2700
4780
4180
4180
E7C0
ENDCHAR
STARTCHAR 039C
ENCODING 924
SWIDTH 1040 0
DWIDTH 13 0
BBX 11 10 1 -1
BITMAP
C0E0
61C0
61C0
76C0
5EC0
5CC0
5CC0
4CC0
40C0
E1E0
ENDCHAR
STARTCHAR 039D
ENCODING 925
SWIDTH 1040 0
DWIDTH 13 0
BBX 10 10 1 -1
BITMAP
E7C0
6080
7080
5C80
4C80
4E80
4E80
4780
4180
E080
ENDCHAR
STARTCHAR 039E
ENCODING 926
SWIDTH 1040 0
DWIDTH 13 0
BBX 11 10 1 -1
BITMAP
3FE0
7FC0
4040
2080
3F80
2080
40C0
4040
7FC0
FF80
ENDCHAR
STARTCHAR 039F
ENCODING 927
SWIDTH 1040 0
DWIDTH 13 0
BBX 9 10 2 -1
BITMAP
3E00
4100
C180
C180
C180
C180
C180
C180
4100
3E00
ENDCHAR
STARTCHAR 03A0
ENCODING 928
SWIDTH 1040 0
DWIDTH 13 0
BBX 10 10 1 -1
BITMAP
FFC0
6180
6180
6180
6180
6180
6180
6180
6180
F7C0
ENDCHAR
STARTCHAR 03A1
ENCODING 929
SWIDTH 1040 0
DWIDTH 13 0
BBX 9 10 2 -1
BITMAP
FF00
6180
6180
6180
7F00
6000
6000
6000
6000
F800
ENDCHAR
STARTCHAR 03A3
ENCODING 931
SWIDTH 1040 0
DWIDTH 13 0
BBX 9 10 2 -1
BITMAP
FF80
6080
3800
1C00
0E00
1800
3880
2080
7F80
FF80
ENDCHAR
STARTCHAR 03A4
ENCODING 932
SWIDTH 1040 0
DWIDTH 13 0
BBX 11 10 1 -1
BITMAP
FFE0
8E20
8E20
0E00
0E00
0E00
0E00
0E00
0E00
1F00
ENDCHAR
STARTCHAR 03A5
ENCODING 933
SWIDTH 1040 0
DWIDTH 13 0
BBX 11 10 1 -1
BITMAP
71C0
9F20
0E00
0E00
0E00
0E00
0E00
0E00
0E00
1F00
ENDCHAR
STARTCHAR 03A6
ENCODING 934
SWIDTH 1040 0
DWIDTH 13 0
BBX 9 10 2 -1
BITMAP
3E00
1C00
7F00
DD80
DD80
DD80
DD00
7F00
1C00
3E00
ENDCHAR
STARTCHAR 03A7
ENCODING 935
SWIDTH 1040 0
DWIDTH 13 0
BBX 10 10 1 -1
BITMAP
F1C0
6080
3100
1E00
0C00
1E00
2700
2700
4180
E7C0
ENDCHAR
STARTCHAR 03A8
ENCODING 936
SWIDTH 1040 0
DWIDTH 13 0
BBX 11 10 1 -1
BITMAP
1F00
CE60
EEE0
2E80
2E80
1F00
1E00
0E00
0E00
1F00
ENDCHAR
STARTCHAR 03A9
ENCODING 937
SWIDTH 1040 0
DWIDTH 13 0
BBX 9 10 2 -1
BITMAP
3E00
4100
C180
C180
C180
6300
A280
A280
E380
E380
ENDCHAR
STARTCHAR 03B1
ENCODING 945
SWIDTH 1040 0
DWIDTH 13 0
BBX 9 7 2 -1
BITMAP
1C80
2E80
4F00
4C00
CC00
DD00
6300
ENDCHAR
STARTCHAR 03B2
ENCODING 946
SWIDTH 1040 0
DWIDTH 13 0
BBX 9 11 2 -2
BITMAP
0F00
1980
3900
2E00
2300
6300
6200
6200
5C00
C000
C000
ENDCHAR
STARTCHAR 03B3
ENCODING 947
SWIDTH 1040 0
DWIDTH 13 0
BBX 8 8 3 -2
BITMAP
73
BD
18
18
38
30
70
70
ENDCHAR
STARTCHAR 03B4
ENCODING 948
SWIDTH 1040 0
DWIDTH 13 0
BBX 8 10 3 -1
BITMAP
1C
37
1B
3C
46
C2
82
86
C4
78
ENDCHAR
STARTCHAR 03B5
ENCODING 949
SWIDTH 1040 0
DWIDTH 13 0
BBX 8 7 3 -1
BITMAP
3E
71
3C
7C
40
F2
7C
ENDCHAR
STARTCHAR 03B6
ENCODING 950
SWIDTH 1040 0
DWIDTH 13 0
BBX 7 11 3 -2
BITMAP
38
46
3C
30
40
C0
F8
F8
7C
44
78
ENDCHAR
STARTCHAR 03B7
ENCODING 951
SWIDTH 1040 0
DWIDTH 13 0
BBX 7 8 3 -2
BITMAP
DC
32
42
42
C6
C4
9C
1C
ENDCHAR
STARTCHAR 03B8
ENCODING 952
SWIDTH 1040 0
DWIDTH 13 0
BBX 7 10 3 -1
BITMAP
1C
32
42
7E
C6
84
84
9C
D8
70
ENDCHAR
STARTCHAR 03B9
ENCODING 953
SWIDTH 1040 0
DWIDTH 13 0
BBX 6 7 4 -1
BITMAP
70
70
E0
84
84
B8
70
ENDCHAR
STARTCHAR 03BA
ENCODING 954
SWIDTH 1040 0
DWIDTH 13 0
BBX 7 7 3 -1
BITMAP
76
5A
78
58
D8
DA
9C
ENDCHAR
STARTCHAR 03BB
ENCODING 955
SWIDTH 1040 0
DWIDTH 13 0
BBX 8 10 3 -1
BITMAP
70
78
18
18
18
34
74
44
C6
83
ENDCHAR
STARTCHAR 03BC
ENCODING 956
SWIDTH 1040 0
DWIDTH 13 0
BBX 10 8 1 -2
BITMAP
1080
3180
2100
2100
2100
2740
5C80
C000
ENDCHAR
STARTCHAR 03BD
ENCODING 957
SWIDTH 1040 0
DWIDTH 13 0
BBX 8 7 3 -1
BITMAP
81
C2
44
48
78
F0
80
ENDCHAR
STARTCHAR 03BE
ENCODING 958
SWIDTH 1040 0
DWIDTH 13 0
BBX 7 11 3 -2
BITMAP
3C
40
3E
40
7E
84
FC
F8
7C
44
78
ENDCHAR
STARTCHAR 03BF
ENCODING 959
SWIDTH 1040 0
DWIDTH 13 0
BBX 7 7 3 -1
BITMAP
3C
46
C6
84
84
C4
78
ENDCHAR
STARTCHAR 03C0
ENCODING 960
SWIDTH 1040 0
DWIDTH 13 0
BBX 10 8 1 -1
BITMAP
0040
7FC0
FF80
3600
3600
2E00
6C80
4700
ENDCHAR
STARTCHAR 03C1
ENCODING 961
SWIDTH 1040 0
DWIDTH 13 0
BBX 8 8 2 -2
BITMAP
1E
23
23
22
62
5C
40
C0
ENDCHAR
STARTCHAR 03C3
ENCODING 963
SWIDTH 1040 0
DWIDTH 13 0
BBX 8 8 3 -1
BITMAP
01
3F
7E
D8
9C
9C
D8
70
ENDCHAR
STARTCHAR 03C4
ENCODING 964
SWIDTH 1040 0
DWIDTH 13 0
BBX 9 8 2 -1
BITMAP
0080
7F80
FF00
9C00
9800
3800
3A00
1C00
ENDCHAR
STARTCHAR 03C5
ENCODING 965
SWIDTH 1040 0
DWIDTH 13 0
BBX 7 7 3 -1
BITMAP
74
72
46
44
C4
98
70
ENDCHAR
STARTCHAR 03C6
ENCODING 966
SWIDTH 1040 0
DWIDTH 13 0
BBX 8 11 3 -2
BITMAP
04
1C
18
7E
DB
9B
BA
B2
7C
30
70
ENDCHAR
STARTCHAR 03C7
ENCODING 967
SWIDTH 1040 0
DWIDTH 13 0
BBX 8 8 3 -2
BITMAP
73
BA
1C
18
38
58
DD
86
ENDCHAR
STARTCHAR 03C8
ENCODING 968
SWIDTH 1040 0
DWIDTH 13 0
BBX 8 11 3 -2
BITMAP
04
1C
18
DB
59
B1
B7
B6
78
70
40
ENDCHAR
STARTCHAR 03C9
ENCODING 969
SWIDTH 1040 0
DWIDTH 13 0
BBX 9 7 2 -1
BITMAP
2100
4180
DC80
9880
9980
D900
6E00
ENDCHAR
STARTCHAR 0401
ENCODING 1025
SWIDTH 1040 0
DWIDTH 13 0
BBX 9 12 2 -1
BITMAP
3B00
3B00
FF80
6080
6100
7F00
6100
6000
6080
6080
6080
FF80
ENDCHAR
STARTCHAR 0410
ENCODING 1040
SWIDTH 1040 0
DWIDTH 13 0
BBX 10 10 1 -1
BITMAP
0C00
0C00
1E00
1600
2700
3F00
4180
4180
4180
E7C0
ENDCHAR
STARTCHAR 0411
ENCODING 1041
SWIDTH 1040 0
DWIDTH 13 0
BBX 9 10 2 -1
BITMAP
FF00
6100
6000
7E00
6100
6180
6180
6180
6100
FE00
ENDCHAR
STARTCHAR 0412
ENCODING 1042
SWIDTH 1040 0
DWIDTH 13 0
BBX 9 10 2 -1
BITMAP
FE00
6300
6300
7E00
6100
6180
6180
6180
6100
FE00
ENDCHAR
STARTCHAR 0413
ENCODING 1043
SWIDTH 1040 0
DWIDTH 13 0
BBX 8 10 2 -1
BITMAP
FF
61
61
60
60
60
60
60
60
FC
ENDCHAR
STARTCHAR 0414
ENCODING 1044
SWIDTH 1040 0
DWIDTH 13 0
BBX 9 11 2 -2
BITMAP
7F80
2300
2300
2300
2300
2300
2300
2300
4300
FF80
8080
ENDCHAR
STARTCHAR 0415
ENCODING 1045
SWIDTH 1040 0
DWIDTH 13 0
BBX 9 10 2 -1
BITMAP
FF80
6080
6100
7F00
6100
6000
6080
6080
6080
FF80
ENDCHAR
STARTCHAR 0416
ENCODING 1046
SWIDTH 1040 0
DWIDTH 13 0
BBX 11 10 1 -1
BITMAP
DF60
CE60
2E80
3F80
2EC0
4EC0
4EE0
4E60
4E60
DF60
ENDCHAR
STARTCHAR 0417
ENCODING 1047
SWIDTH 1040 0
DWIDTH 13 0
BBX 8 10 2 -1
BITMAP
7E
C3
83
3E
02
03
83
83
C2
7C
ENDCHAR
STARTCHAR 0418
ENCODING 1048
SWIDTH 1040 0
DWIDTH 13 0
BBX 10 10 1 -1
BITMAP
F7C0
6180
6780
6D80
6D80
7180
6180
6180
6180
F7C0
ENDCHAR
STARTCHAR 0419
ENCODING 1049
SWIDTH 1040 0
DWIDTH 13 0
BBX 10 12 1 -1
BITMAP
3700
1E00
F7C0
6180
6780
6D80
6D80
7180
6180
6180
6180
F7C0
ENDCHAR
STARTCHAR 041A
ENCODING 1050
SWIDTH 1040 0
DWIDTH 13 0
BBX 10 10 2 -1
BITMAP
FB00
6D80
6C00
7800
6E00
6300
6300
6300
6180
FBC0
ENDCHAR
STARTCHAR 041B
ENCODING 1051
SWIDTH 1040 0
DWIDTH 13 0
BBX 10 10 1 -1
BITMAP
1FC0
0D80
0D80
0D80
0D80
0D80
DD80
D180
D180
67C0
ENDCHAR
STARTCHAR 041C
ENCODING 1052
SWIDTH 1040 0
DWIDTH 13 0
BBX 12 10 0 -1
BITMAP
60E0
30C0
30C0
3BC0
2BC0
4E60
4E60
4E60
4060
E0F0
ENDCHAR
STARTCHAR 041D
ENCODING 1053
SWIDTH 1040 0
DWIDTH 13 0
BBX 10 10 1 -1
BITMAP
F7C0
6180
6180
7F80
6180
6180
6180
6180
6180
F7C0
ENDCHAR
STARTCHAR 041E
ENCODING 1054
SWIDTH 1040 0
DWIDTH 13 0
BBX 9 10 2 -1
BITMAP
3E00
4100
C180
C180
C180
C180
C180
C180
4100
3E00
ENDCHAR
STARTCHAR 041F
ENCODING 1055
SWIDTH 1040 0
DWIDTH 13 0
BBX 10 10 1 -1
BITMAP
FFC0
6180
6180
6180
6180
6180
6180
6180
6180
F7C0
ENDCHAR
STARTCHAR 0420
ENCODING 1056
SWIDTH 1040 0
DWIDTH 13 0
BBX 9 10 2 -1
BITMAP
FF00
6180
6180
6180
7F00
6000
6000
6000
6000
F800
ENDCHAR
STARTCHAR 0421
ENCODING 1057
SWIDTH 1040 0
DWIDTH 13 0
BBX 9 10 2 -1
BITMAP
3F00
6180
C080
C000
C000
C000
C080
C080
4180
3E00
ENDCHAR
STARTCHAR 0422
ENCODING 1058
SWIDTH 1040 0
DWIDTH 13 0
BBX 11 10 1 -1
BITMAP
FFE0
8E20
8E20
0E00
0E00
0E00
0E00
0E00
0E00
1F00
ENDCHAR
STARTCHAR 0423
ENCODING 1059
SWIDTH 1040 0
DWIDTH 13 0
BBX 9 10 2 -1
BITMAP
FB80
6100
3900
3A00
1A00
1C00
1C00
0C00
7800
6000
ENDCHAR
STARTCHAR 0424
ENCODING 1060
SWIDTH 1040 0
DWIDTH 13 0
BBX 9 10 2 -1
BITMAP
3E00
1C00
7F00
DD80
DD80
DD80
DD00
7F00
1C00
3E00
ENDCHAR
STARTCHAR 0425
ENCODING 1061
SWIDTH 1040 0
DWIDTH 13 0
BBX 10 10 1 -1
BITMAP
F1C0
6080
3100
1E00
0C00
1E00
2700
2700
4180
E7C0
ENDCHAR
STARTCHAR 0426
ENCODING 1062
SWIDTH 1040 0
DWIDTH 13 0
BBX 10 11 1 -2
BITMAP
F7C0
6180
6180
6180
6180
6180
6180
6180
6180
FFC0
0040
ENDCHAR
STARTCHAR 0427
ENCODING 1063
SWIDTH 1040 0
DWIDTH 13 0
BBX 10 10 1 -1
BITMAP
F7C0
6180
6180
6180
6780
3D80
3D80
0180
0180
07C0
ENDCHAR
STARTCHAR 0428
ENCODING 1064
SWIDTH 1040 0
DWIDTH 13 0
BBX 11 10 1 -1
BITMAP
FFE0
6EC0
6EC0
6EC0
6EC0
6EC0
6EC0
6EC0
6EC0
FFE0
ENDCHAR
STARTCHAR 0429
ENCODING 1065
SWIDTH 1040 0
DWIDTH 13 0
BBX 11 11 1 -2
BITMAP
FFE0
6EC0
6EC0
6EC0
6EC0
6EC0
6EC0
6EC0
6EC0
FFE0
0020
ENDCHAR
STARTCHAR 042A
ENCODING 1066
SWIDTH 1040 0
DWIDTH 13 0
BBX 9 10 2 -1
BITMAP
F800
B800
3800
3F00
3980
3980
3980
3980
3980
7F00
ENDCHAR
STARTCHAR 042B
ENCODING 1067
SWIDTH 1040 0
DWIDTH 13 0
BBX 11 10 1 -1
BITMAP
F1E0
60C0
60C0
7CC0
6EC0
6EC0
6EC0
6EC0
6EC0
FDE0
ENDCHAR
STARTCHAR 042C
ENCODING 1068
SWIDTH 1040 0
DWIDTH 13 0
BBX 9 10 2 -1
BITMAP
F800
6000
6000
7E00
6100
6180
6180
6180
6100
FE00
ENDCHAR
STARTCHAR 042D
ENCODING 1069
SWIDTH 1040 0
DWIDTH 13 0
BBX 8 10 3 -1
BITMAP
7C
C2
03
77
BB
03
83
83
C2
7C
ENDCHAR
STARTCHAR 042E
ENCODING 1070
SWIDTH 1040 0
DWIDTH 13 0
BBX 11 10 1 -1
BITMAP
F180
6640
6E60
7E60
6E60
6E60
6E60
6E60
6640
F180
ENDCHAR
STARTCHAR 042F
ENCODING 1071
SWIDTH 1040 0
DWIDTH 13 0
BBX 10 10 1 -1
BITMAP
1FC0
3180
3180
3180
1F80
1D80
1D80
1D80
3180
C7C0
ENDCHAR
STARTCHAR 0430
ENCODING 1072
SWIDTH 1040 0
DWIDTH 13 0
BBX 7 7 3 -1
BITMAP
78
1C
7C
5C
DC
DC
7E
ENDCHAR
STARTCHAR 0431
ENCODING 1073
SWIDTH 1040 0
DWIDTH 13 0
BBX 7 11 3 -1
BITMAP
02
3E
7C
80
B8
C4
86
C6
C6
44
38
ENDCHAR
STARTCHAR 0432
ENCODING 1074
SWIDTH 1040 0
DWIDTH 13 0
BBX 8 7 2 -1
BITMAP
FE
63
7E
63
63
63
FE
ENDCHAR
STARTCHAR 0433
ENCODING 1075
SWIDTH 1040 0
DWIDTH 13 0
BBX 8 7 2 -1
BITMAP
FF
61
60
60
60
60
FC
ENDCHAR
STARTCHAR 0434
ENCODING 1076
SWIDTH 1040 0
DWIDTH 13 0
BBX 8 8 2 -2
BITMAP
7F
2E
2E
2E
2E
4E
FF
81
ENDCHAR
STARTCHAR 0435
ENCODING 1077
SWIDTH 1040 0
DWIDTH 13 0
BBX 7 7 3 -1
BITMAP
7C
C6
FE
C0
C0
C2
7C
ENDCHAR
STARTCHAR 0436
ENCODING 1078
SWIDTH 1040 0
DWIDTH 13 0
BBX 11 7 1 -1
BITMAP
DF60
4E40
3F80
7E40
4E40
4E40
DF60
ENDCHAR
STARTCHAR 0437
ENCODING 1079
SWIDTH 1040 0
DWIDTH 13 0
BBX 7 7 3 -1
BITMAP
7C
C6
3C
BE
86
C6
7C
ENDCHAR
STARTCHAR 0438
ENCODING 1080
SWIDTH 1040 0
DWIDTH 13 0
BBX 9 7 2 -1
BITMAP
FB80
6300
6F00
7F00
7B00
6300
EF80
ENDCHAR
STARTCHAR 0439
ENCODING 1081
SWIDTH 1040 0
DWIDTH 13 0
BBX 9 10 2 -1
BITMAP
3B00
1E00
0000
FB80
6300
6F00
7F00
7B00
6300
EF80
ENDCHAR
STARTCHAR 043A
ENCODING 1082
SWIDTH 1040 0
DWIDTH 13 0
BBX 9 7 2 -1
BITMAP
FB00
6D80
7800
6E00
6E00
6300
FB80
ENDCHAR
STARTCHAR 043B
ENCODING 1083
SWIDTH 1040 0
DWIDTH 13 0
BBX 9 7 2 -1
BITMAP
3F80
1B00
1B00
DB00
DB00
DB00
6F80
ENDCHAR
STARTCHAR 043C
ENCODING 1084
SWIDTH 1040 0
DWIDTH 13 0
BBX 9 7 2 -1
BITMAP
C380
6F00
7B00
5B00
5B00
4300
EF80
ENDCHAR
STARTCHAR 043D
ENCODING 1085
SWIDTH 1040 0
DWIDTH 13 0
BBX 10 7 1 -1
BITMAP
F7C0
6180
7F80
6180
6180
6180
F7C0
ENDCHAR
STARTCHAR 043E
ENCODING 1086
SWIDTH 1040 0
DWIDTH 13 0
BBX 7 7 3 -1
BITMAP
7C
C6
C6
C6
C6
C6
7C
ENDCHAR
STARTCHAR 043F
ENCODING 1087
SWIDTH 1040 0
DWIDTH 13 0
BBX 9 7 2 -1
BITMAP
FF80
6300
6300
6300
6300
6300
EF80
ENDCHAR
STARTCHAR 0440
ENCODING 1088
SWIDTH 1040 0
DWIDTH 13 0
BBX 8 8 2 -2
BITMAP
FE
63
63
63
63
7E
60
F8
ENDCHAR
STARTCHAR 0441
ENCODING 1089
SWIDTH 1040 0
DWIDTH 13 0
BBX 7 7 3 -1
BITMAP
7C
C6
C0
C2
C2
C2
7C
ENDCHAR
STARTCHAR 0442
ENCODING 1090
SWIDTH 1040 0
DWIDTH 13 0
BBX 9 7 2 -1
BITMAP
FF80
9C80
1C00
1C00
1C00
1C00
3E00
ENDCHAR
STARTCHAR 0443
ENCODING 1091
SWIDTH 1040 0
DWIDTH 13 0
BBX 9 8 2 -2
BITMAP
FB80
6100
3A00
3E00
1C00
0C00
7800
6000
ENDCHAR
STARTCHAR 0444
ENCODING 1092
SWIDTH 1040 0
DWIDTH 13 0
BBX 11 12 1 -2
BITMAP
0E00
1E00
0E00
0E00
6EC0
DF60
CE60
CF60
DF60
6EC0
0E00
1F00
ENDCHAR
STARTCHAR 0445
ENCODING 1093
SWIDTH 1040 0
DWIDTH 13 0
BBX 8 7 2 -1
BITMAP
EF
62
3C
3C
3C
4E
EF
ENDCHAR
STARTCHAR 0446
ENCODING 1094
SWIDTH 1040 0
DWIDTH 13 0
BBX 9 8 2 -2
BITMAP
EF80
6300
6300
6300
6300
6300
FF80
0080
ENDCHAR
STARTCHAR 0447
ENCODING 1095
SWIDTH 1040 0
DWIDTH 13 0
BBX 9 7 2 -1
BITMAP
EF80
6300
6300
6300
3F00
0300
0F80
ENDCHAR
STARTCHAR 0448
ENCODING 1096
SWIDTH 1040 0
DWIDTH 13 0
BBX 11 7 1 -1
BITMAP
FFE0
6EC0
6EC0
6EC0
6EC0
6EC0
FFE0
ENDCHAR
STARTCHAR 0449
ENCODING 1097
SWIDTH 1040 0
DWIDTH 13 0
BBX 11 8 1 -2
BITMAP
FFE0
6EC0
6EC0
6EC0
6EC0
6EC0
FFE0
0020
ENDCHAR
STARTCHAR 044A
ENCODING 1098
SWIDTH 1040 0
DWIDTH 13 0
BBX 9 7 2 -1
BITMAP
F800
B800
3F00
3980
3980
3980
7F00
ENDCHAR
STARTCHAR 044B
ENCODING 1099
SWIDTH 1040 0
DWIDTH 13 0
BBX 11 7 1 -1
BITMAP
F1E0
60C0
7CC0
6EC0
6EC0
6EC0
FDE0
ENDCHAR
STARTCHAR 044C
ENCODING 1100
SWIDTH 1040 0
DWIDTH 13 0
BBX 8 7 2 -1
BITMAP
F8
60
7E
63
63
63
FE
ENDCHAR
STARTCHAR 044D
ENCODING 1101
SWIDTH 1040 0
DWIDTH 13 0
BBX 7 7 3 -1
BITMAP
7C
C6
3E
7E
5E
86
7C
ENDCHAR
STARTCHAR 044E
ENCODING 1102
SWIDTH 1040 0
DWIDTH 13 0
BBX 10 7 1 -1
BITMAP
F780
6EC0
7EC0
6EC0
6EC0
6EC0
F780
ENDCHAR
STARTCHAR 044F
ENCODING 1103
SWIDTH 1040 0
DWIDTH 13 0
BBX 9 7 1 -1
BITMAP
3F80
6700
3F00
3700
3700
2700
CF80
ENDCHAR
STARTCHAR 0451
ENCODING 1105
SWIDTH 1040 0
DWIDTH 13 0
BBX 7 10 3 -1
BITMAP
76
76
00
7C
C6
FE
C0
C0
C2
7C
ENDCHAR
STARTCHAR 2000
ENCODING 8192
SWIDTH 1040 0
DWIDTH 13 0
BBX 0 0 0 0
BITMAP
ENDCHAR
STARTCHAR 2001
ENCODING 8193
SWIDTH 1040 0
DWIDTH 13 0
BBX 0 0 0 0
BITMAP
ENDCHAR
STARTCHAR 2002
ENCODING 8194
SWIDTH 1040 0
DWIDTH 13 0
BBX 0 0 0 0
BITMAP
ENDCHAR
STARTCHAR 2003
ENCODING 8195
SWIDTH 1040 0
DWIDTH 13 0
BBX 0 0 0 0
BITMAP
ENDCHAR
STARTCHAR 2004
ENCODING 8196
SWIDTH 1040 0
DWIDTH 13 0
BBX 0 0 0 0
BITMAP
ENDCHAR
STARTCHAR 2005
ENCODING 8197
SWIDTH 1040 0
DWIDTH 13 0
BBX 0 0 0 0
BITMAP
ENDCHAR
STARTCHAR 2006
ENCODING 8198
SWIDTH 1040 0
DWIDTH 13 0
BBX 0 0 0 0
BITMAP
ENDCHAR
STARTCHAR 2007
ENCODING 8199
SWIDTH 1040 0
DWIDTH 13 0
BBX 0 0 0 0
BITMAP
ENDCHAR
STARTCHAR 2008
ENCODING 8200
SWIDTH 1040 0
DWIDTH 13 0
BBX 0 0 0 0
BITMAP
ENDCHAR
STARTCHAR 2009
ENCODING 8201
SWIDTH 1040 0
DWIDTH 13 0
BBX 0 0 0 0
BITMAP
ENDCHAR
STARTCHAR 200A
ENCODING 8202
SWIDTH 1040 0
DWIDTH 13 0
BBX 0 0 0 0
BITMAP
ENDCHAR
STARTCHAR 200B
ENCODING 8203
SWIDTH 560 0
DWIDTH 7 0
BBX 0 0 0 0
BITMAP
ENDCHAR
STARTCHAR 200C
ENCODING 8204
SWIDTH 560 0
DWIDTH 7 0
BBX 0 0 0 0
BITMAP
ENDCHAR
STARTCHAR 200D
ENCODING 8205
SWIDTH 560 0
DWIDTH 7 0
BBX 0 0 0 0
BITMAP
ENDCHAR
STARTCHAR 200E
ENCODING 8206
SWIDTH 560 0
DWIDTH 7 0
BBX 0 0 0 0
BITMAP
ENDCHAR
STARTCHAR 200F
ENCODING 8207
SWIDTH 560 0
DWIDTH 7 0
BBX 0 0 0 0
BITMAP
ENDCHAR
STARTCHAR 2010
ENCODING 8208
SWIDTH 1040 0
DWIDTH 13 0
BBX 5 1 4 5
BITMAP
F8
ENDCHAR
STARTCHAR 2015
ENCODING 8213
SWIDTH 1040 0
DWIDTH 13 0
BBX 13 1 0 5
BITMAP
FFF8
ENDCHAR
STARTCHAR 2016
ENCODING 8214
SWIDTH 1040 0
DWIDTH 13 0
BBX 5 13 4 -2
BITMAP
88
88
88
88
88
88
88
88
88
88
88
88
88
ENDCHAR
STARTCHAR 2018
ENCODING 8216
SWIDTH 1040 0
DWIDTH 13 0
BBX 2 4 10 7
BITMAP
40
80
C0
C0
ENDCHAR
STARTCHAR 2019
ENCODING 8217
SWIDTH 1040 0
DWIDTH 13 0
BBX 2 4 1 7
BITMAP
C0
C0
40
80
ENDCHAR
STARTCHAR 201C
ENCODING 8220
SWIDTH 1040 0
DWIDTH 13 0
BBX 6 4 6 7
BITMAP
24
C8
EC
EC
ENDCHAR
STARTCHAR 201D
ENCODING 8221
SWIDTH 1040 0
DWIDTH 13 0
BBX 6 4 1 7
BITMAP
DC
DC
4C
90
ENDCHAR
STARTCHAR 2020
ENCODING 8224
SWIDTH 1040 0
DWIDTH 13 0
BBX 8 13 2 -2
BITMAP
18
3C
18
5A
FF
5A
3C
3C
38
18
18
18
18
ENDCHAR
STARTCHAR 2021
ENCODING 8225
SWIDTH 1040 0
DWIDTH 13 0
BBX 8 13 2 -2
BITMAP
18
3C
5A
FF
5A
3C
3C
5A
5B
FF
5A
3C
18
ENDCHAR
STARTCHAR 2025
ENCODING 8229
SWIDTH 1040 0
DWIDTH 13 0
BBX 11 2 1 4
BITMAP
C060
C060
ENDCHAR
STARTCHAR 2026
ENCODING 8230
SWIDTH 1040 0
DWIDTH 13 0
BBX 13 2 0 4
BITMAP
C718
C718
ENDCHAR
STARTCHAR 2030
ENCODING 8240
SWIDTH 1040 0
DWIDTH 13 0
BBX 13 13 0 -2
BITMAP
6020
D040
D080
B300
B600
6800
1E30
3B68
5B68
5B68
9758
1758
0E30
ENDCHAR
STARTCHAR 2032
ENCODING 8242
SWIDTH 1040 0
DWIDTH 13 0
BBX 4 4 0 7
BITMAP
30
60
40
80
ENDCHAR
STARTCHAR 2033
ENCODING 8243
SWIDTH 1040 0
DWIDTH 13 0
BBX 8 4 0 7
BITMAP
37
6E
48
90
ENDCHAR
STARTCHAR 203B
ENCODING 8251
SWIDTH 1040 0
DWIDTH 13 0
BBX 11 11 1 -1
BITMAP
8E20
4E40
2080
1100
CE60
CE60
1100
3180
2080
4E40
8E20
ENDCHAR
STARTCHAR 203E
ENCODING 8254
SWIDTH 560 0
DWIDTH 7 0
BBX 5 1 0 9
BITMAP
F8
ENDCHAR
STARTCHAR 2103
ENCODING 8451
SWIDTH 1040 0
DWIDTH 13 0
BBX 11 12 0 -1
BITMAP
6000
9000
9740
6EC0
1840
1800
1800
1820
1820
1820
0E40
0780
ENDCHAR
STARTCHAR 2116
ENCODING 8470
SWIDTH 1040 0
DWIDTH 13 0
BBX 12 11 0 -1
BITMAP
CE00
4400
4400
6400
64E0
5520
5520
5520
4D20
C6F0
0010
ENDCHAR
STARTCHAR 2121
ENCODING 8481
SWIDTH 1040 0
DWIDTH 13 0
BBX 12 10 0 0
BITMAP
FC00
A400
A400
2000
2000
2740
2640
2640
2640
3770
ENDCHAR
STARTCHAR 212B
ENCODING 8491
SWIDTH 1040 0
DWIDTH 13 0
BBX 11 12 1 -1
BITMAP
0E00
1100
1100
0E00
0E00
1700
1700
2180
2180
3F80
40C0
E1E0
ENDCHAR
STARTCHAR 2160
ENCODING 8544
SWIDTH 1040 0
DWIDTH 13 0
BBX 5 10 3 0
BITMAP
78
30
30
30
30
30
30
30
30
F8
ENDCHAR
STARTCHAR 2161
ENCODING 8545
SWIDTH 1040 0
DWIDTH 13 0
BBX 9 10 2 0
BITMAP
7F00
3600
3600
3600
3600
3600
3600
3600
3600
FF80
ENDCHAR
STARTCHAR 2162
ENCODING 8546
SWIDTH 1040 0
DWIDTH 13 0
BBX 11 10 1 0
BITMAP
FFE0
64C0
64C0
64C0
64C0
64C0
64C0
64C0
64C0
FFE0
ENDCHAR
STARTCHAR 2163
ENCODING 8547
SWIDTH 1040 0
DWIDTH 13 0
BBX 11 10 1 0
BITMAP
FCE0
6C40
6C00
6440
6440
6680
6680
6680
6300
FB00
ENDCHAR
STARTCHAR 2164
ENCODING 8548
SWIDTH 1040 0
DWIDTH 13 0
BBX 9 10 2 0
BITMAP
E380
6100
6100
3200
3200
1C00
1C00
1C00
0800
0800
ENDCHAR
STARTCHAR 2165
ENCODING 8549
SWIDTH 1040 0
DWIDTH 13 0
BBX 11 10 1 0
BITMAP
E7E0
42C0
42C0
64C0
64C0
34C0
34C0
34C0
18C0
1BE0
ENDCHAR
STARTCHAR 2166
ENCODING 8550
SWIDTH 1040 0
DWIDTH 13 0
BBX 12 10 0 0
BITMAP
E7F0
4720
4720
2B20
2B20
2B20
2B20
3320
3320
33F0
ENDCHAR
STARTCHAR 2167
ENCODING 8551
SWIDTH 1040 0
DWIDTH 13 0
BBX 12 10 0 0
BITMAP
CFF0
CFA0
CFA0
57A0
57A0
57A0
57A0
27A0
27A0
2FF0
ENDCHAR
STARTCHAR 2168
ENCODING 8552
SWIDTH 1040 0
DWIDTH 13 0
BBX 11 10 1 0
BITMAP
FCE0
6440
6440
6680
6700
6380
6580
64C0
64C0
FCE0
ENDCHAR
STARTCHAR 2169
ENCODING 8553
SWIDTH 1040 0
DWIDTH 13 0
BBX 9 10 2 0
BITMAP
E380
3200
3200
1C00
1800
0C00
1C00
2600
2600
F780
ENDCHAR
STARTCHAR 2190
ENCODING 8592
SWIDTH 1040 0
DWIDTH 13 0
BBX 13 6 0 2
BITMAP
2000
4000
FFF8
4000
2000
2000
ENDCHAR
STARTCHAR 2191
ENCODING 8593
SWIDTH 1040 0
DWIDTH 13 0
BBX 6 13 3 -2
BITMAP
30
78
B4
30
30
30
30
30
30
30
30
30
30
ENDCHAR
STARTCHAR 2192
ENCODING 8594
SWIDTH 1040 0
DWIDTH 13 0
BBX 13 6 0 2
BITMAP
0020
0010
FFF8
0010
0020
0020
ENDCHAR
STARTCHAR 2193
ENCODING 8595
SWIDTH 1040 0
DWIDTH 13 0
BBX 6 13 3 -2
BITMAP
30
30
30
30
30
30
30
30
30
30
B4
78
30
ENDCHAR
STARTCHAR 21D2
ENCODING 8658
SWIDTH 1040 0
DWIDTH 13 0
BBX 11 8 1 1
BITMAP
0100
0080
FFC0
0020
FFC0
0080
0180
0100
ENDCHAR
STARTCHAR 21D4
ENCODING 8660
SWIDTH 1040 0
DWIDTH 13 0
BBX 11 8 1 1
BITMAP
1100
2080
7FC0
8020
7FC0
2080
3180
1100
ENDCHAR
STARTCHAR 2200
ENCODING 8704
SWIDTH 1040 0
DWIDTH 13 0
BBX 12 13 0 -2
BITMAP
8010
8010
4020
4020
3FC0
2040
1080
1080
1900
0B00
0B00
0600
0600
ENDCHAR
STARTCHAR 2202
ENCODING 8706
SWIDTH 1040 0
DWIDTH 13 0
BBX 8 11 2 -2
BITMAP
1E
3B
01
3B
6F
42
42
CE
8C
DC
78
ENDCHAR
STARTCHAR 2203
ENCODING 8707
SWIDTH 1040 0
DWIDTH 13 0
BBX 9 9 2 0
BITMAP
FF80
0080
0080
FF80
0080
0080
0080
0080
FF80
ENDCHAR
STARTCHAR 2207
ENCODING 8711
SWIDTH 1040 0
DWIDTH 13 0
BBX 11 10 1 -1
BITMAP
FFE0
7FC0
6040
3080
3080
1D00
1D00
1D00
0E00
0E00
ENDCHAR
STARTCHAR 2208
ENCODING 8712
SWIDTH 1040 0
DWIDTH 13 0
BBX 9 8 2 1
BITMAP
7F80
8000
8000
FF80
8000
8000
FF80
7F80
ENDCHAR
STARTCHAR 220B
ENCODING 8715
SWIDTH 1040 0
DWIDTH 13 0
BBX 9 8 2 1
BITMAP
FF00
0080
0080
FF80
0080
0080
FF80
FF00
ENDCHAR
STARTCHAR 2211
ENCODING 8721
SWIDTH 1040 0
DWIDTH 13 0
BBX 9 10 2 0
BITMAP
FF00
C100
6080
3000
1800
1800
3000
6000
C080
FF00
ENDCHAR
STARTCHAR 2212
ENCODING 8722
SWIDTH 1040 0
DWIDTH 13 0
BBX 10 1 1 5
BITMAP
FFC0
ENDCHAR
STARTCHAR 221A
ENCODING 8730
SWIDTH 1040 0
DWIDTH 13 0
BBX 11 12 0 -1
BITMAP
03E0
0200
0200
0200
0200
0200
4400
4400
C800
2800
1000
1000
ENDCHAR
STARTCHAR 221D
ENCODING 8733
SWIDTH 1040 0
DWIDTH 13 0
BBX 12 7 0 1
BITMAP
30E0
4B10
8600
8600
4B10
5320
30E0
ENDCHAR
STARTCHAR 221E
ENCODING 8734
SWIDTH 1040 0
DWIDTH 13 0
BBX 12 7 0 1
BITMAP
30C0
4B20
8610
8610
4B20
5340
30C0
ENDCHAR
STARTCHAR 221F
ENCODING 8735
SWIDTH 1040 0
DWIDTH 13 0
BBX 9 9 2 1
BITMAP
8000
8000
8000
8000
8000
8000
8000
8000
FF80
ENDCHAR
STARTCHAR 2220
ENCODING 8736
SWIDTH 1040 0
DWIDTH 13 0
BBX 9 9 2 1
BITMAP
0080
0100
0200
0400
0800
1000
2000
4000
FF80
ENDCHAR
STARTCHAR 2227
ENCODING 8743
SWIDTH 1040 0
DWIDTH 13 0
BBX 12 13 0 -2
BITMAP
0600
0600
0B00
0B00
1080
1080
2040
2040
6060
4020
4020
8010
8010
ENDCHAR
STARTCHAR 2228
ENCODING 8744
SWIDTH 1040 0
DWIDTH 13 0
BBX 12 13 0 -2
BITMAP
8010
8010
4020
4020
2040
2040
1080
1080
1900
0B00
0B00
0600
0600
ENDCHAR
STARTCHAR 2229
ENCODING 8745
SWIDTH 1040 0
DWIDTH 13 0
BBX 8 11 2 -1
BITMAP
3C
42
81
81
81
81
81
81
81
81
81
ENDCHAR
STARTCHAR 222A
ENCODING 8746
SWIDTH 1040 0
DWIDTH 13 0
BBX 8 11 2 -1
BITMAP
81
81
81
81
81
81
81
81
81
66
18
ENDCHAR
STARTCHAR 222B
ENCODING 8747
SWIDTH 1040 0
DWIDTH 13 0
BBX 3 13 5 -2
BITMAP
40
E0
80
80
40
40
40
40
40
20
E0
A0
40
ENDCHAR
STARTCHAR 222C
ENCODING 8748
SWIDTH 1040 0
DWIDTH 13 0
BBX 8 13 2 -2
BITMAP
63
AD
8C
8C
CE
42
42
63
63
21
21
AD
CE
ENDCHAR
STARTCHAR 222E
ENCODING 8750
SWIDTH 1040 0
DWIDTH 13 0
BBX 5 13 4 -2
BITMAP
20
70
40
40
70
A8
A8
70
20
10
70
50
20
ENDCHAR
STARTCHAR 2234
ENCODING 8756
SWIDTH 1040 0
DWIDTH 13 0
BBX 9 9 2 0
BITMAP
1C00
1C00
0000
0000
0000
0000
C180
C180
C180
ENDCHAR
STARTCHAR 2235
ENCODING 8757
SWIDTH 1040 0
DWIDTH 13 0
BBX 9 8 2 1
BITMAP
8100
C380
8100
0000
0000
0000
0800
1800
ENDCHAR
STARTCHAR 223D
ENCODING 8765
SWIDTH 1040 0
DWIDTH 13 0
BBX 13 7 0 1
BITMAP
3060
4890
8308
8608
4890
50A0
3060
ENDCHAR
STARTCHAR 2252
ENCODING 8786
SWIDTH 1040 0
DWIDTH 13 0
BBX 9 11 2 -1
BITMAP
E000
4000
0000
0000
FF80
0000
FF80
0000
0000
0700
0200
ENDCHAR
STARTCHAR 2260
ENCODING 8800
SWIDTH 1040 0
DWIDTH 13 0
BBX 9 9 2 0
BITMAP
0200
0200
FF80
0C00
1800
FF80
E000
2000
2000
ENDCHAR
STARTCHAR 2261
ENCODING 8801
SWIDTH 1040 0
DWIDTH 13 0
BBX 9 6 2 2
BITMAP
FF80
0000
0000
FF00
0000
FF80
ENDCHAR
STARTCHAR 2266
ENCODING 8806
SWIDTH 1040 0
DWIDTH 13 0
BBX 9 10 2 0
BITMAP
0380
1C00
E000
1C00
0380
0000
FF80
FF80
0000
FF80
ENDCHAR
STARTCHAR 2267
ENCODING 8807
SWIDTH 1040 0
DWIDTH 13 0
BBX 9 10 2 0
BITMAP
E000
1C00
0380
1C00
E000
0000
FF80
FF80
0000
FF80
ENDCHAR
STARTCHAR 226A
ENCODING 8810
SWIDTH 1040 0
DWIDTH 13 0
BBX 9 10 2 0
BITMAP
0C80
1900
2200
4C00
9800
4C00
2200
3B00
1900
0C80
ENDCHAR
STARTCHAR 226B
ENCODING 8811
SWIDTH 1040 0
DWIDTH 13 0
BBX 9 10 2 0
BITMAP
9800
4C00
2200
1900
0C80
1900
2200
4400
4C00
9800
ENDCHAR
STARTCHAR 2282
ENCODING 8834
SWIDTH 1040 0
DWIDTH 13 0
BBX 9 8 2 1
BITMAP
3F80
4000
8000
8000
8000
4000
7F80
3F80
ENDCHAR
STARTCHAR 2283
ENCODING 8835
SWIDTH 1040 0
DWIDTH 13 0
BBX 9 8 2 1
BITMAP
FE00
0100
0080
0080
0080
0100
FF00
FE00
ENDCHAR
STARTCHAR 2286
ENCODING 8838
SWIDTH 1040 0
DWIDTH 13 0
BBX 9 9 2 0
BITMAP
7F80
8000
8000
8000
8000
7F80
7F80
0000
FF80
ENDCHAR
STARTCHAR 2287
ENCODING 8839
SWIDTH 1040 0
DWIDTH 13 0
BBX 9 9 2 0
BITMAP
FF00
0080
0080
0080
0080
FF00
FF00
0000
FF80
ENDCHAR
STARTCHAR 22A5
ENCODING 8869
SWIDTH 1040 0
DWIDTH 13 0
BBX 10 9 1 1
BITMAP
0400
0400
0400
0400
0400
0400
0400
0400
FFC0
ENDCHAR
STARTCHAR 22BF
ENCODING 8895
SWIDTH 1040 0
DWIDTH 13 0
BBX 9 9 2 1
BITMAP
0080
0180
0280
0480
0880
1080
2080
4080
FF80
ENDCHAR
STARTCHAR 2312
ENCODING 8978
SWIDTH 1040 0
DWIDTH 13 0
BBX 11 3 1 6
BITMAP
1F00
60C0
8020
ENDCHAR
STARTCHAR 2460
ENCODING 9312
SWIDTH 1040 0
DWIDTH 13 0
BBX 12 13 0 -2
BITMAP
0F00
72E0
4220
4E20
8210
8210
8210
8210
8210
4220
4520
30C0
0F00
ENDCHAR
STARTCHAR 2461
ENCODING 9313
SWIDTH 1040 0
DWIDTH 13 0
BBX 12 13 0 -2
BITMAP
0F00
70E0
4E20
5120
9110
8110
8210
8410
8910
5120
4E20
30C0
0F00
ENDCHAR
STARTCHAR 2462
ENCODING 9314
SWIDTH 1040 0
DWIDTH 13 0
BBX 12 13 0 -2
BITMAP
0F00
70E0
4E20
5120
9110
8110
8710
8110
9110
5120
4E20
30C0
0F00
ENDCHAR
STARTCHAR 2463
ENCODING 9315
SWIDTH 1040 0
DWIDTH 13 0
BBX 12 13 0 -2
BITMAP
0F00
70E0
4220
4220
8610
8610
9A10
BF90
8210
4220
4520
30C0
0F00
ENDCHAR
STARTCHAR 2464
ENCODING 9316
SWIDTH 1040 0
DWIDTH 13 0
BBX 12 13 0 -2
BITMAP
0F00
70E0
5F20
5020
9010
9010
9F10
8110
9110
5120
4E20
30C0
0F00
ENDCHAR
STARTCHAR 2465
ENCODING 9317
SWIDTH 1040 0
DWIDTH 13 0
BBX 12 13 0 -2
BITMAP
0F00
70E0
4E20
5120
9110
9010
9F10
9110
9110
5120
4E20
30C0
0F00
ENDCHAR
STARTCHAR 2466
ENCODING 9318
SWIDTH 1040 0
DWIDTH 13 0
BBX 12 13 0 -2
BITMAP
0F00
70E0
5F20
5120
9110
8210
8210
8210
8410
4420
4020
30C0
0F00
ENDCHAR
STARTCHAR 2467
ENCODING 9319
SWIDTH 1040 0
DWIDTH 13 0
BBX 12 13 0 -2
BITMAP
0F00
70E0
4E20
5120
9110
9110
9F10
9110
9110
5120
4E20
30C0
0F00
ENDCHAR
STARTCHAR 2468
ENCODING 9320
SWIDTH 1040 0
DWIDTH 13 0
BBX 12 13 0 -2
BITMAP
0F00
70E0
4E20
5120
9110
9110
8F10
8110
9110
5120
4E20
30C0
0F00
ENDCHAR
STARTCHAR 2469
ENCODING 9321
SWIDTH 1040 0
DWIDTH 13 0
BBX 12 13 0 -2
BITMAP
0F00
70E0
53A0
7260
9250
9250
9250
9250
9250
5260
6120
30C0
0F00
ENDCHAR
STARTCHAR 246A
ENCODING 9322
SWIDTH 1040 0
DWIDTH 13 0
BBX 12 13 0 -2
BITMAP
0F00
70E0
4920
5B20
8910
8910
8910
8910
8910
4920
4020
30C0
0F00
ENDCHAR
STARTCHAR 246B
ENCODING 9323
SWIDTH 1040 0
DWIDTH 13 0
BBX 12 13 0 -2
BITMAP
0F00
70E0
53A0
7240
9250
9050
9110
9210
9210
5260
61A0
30C0
0F00
ENDCHAR
STARTCHAR 246C
ENCODING 9324
SWIDTH 1040 0
DWIDTH 13 0
BBX 12 13 0 -2
BITMAP
0F00
70E0
53A0
7260
9250
9050
9050
9050
9250
5260
61A0
30C0
0F00
ENDCHAR
STARTCHAR 246D
ENCODING 9325
SWIDTH 1040 0
DWIDTH 13 0
BBX 12 13 0 -2
BITMAP
0F00
70E0
50A0
7180
9290
9290
9490
97D0
9090
50A0
6120
30C0
0F00
ENDCHAR
STARTCHAR 246E
ENCODING 9326
SWIDTH 1040 0
DWIDTH 13 0
BBX 12 13 0 -2
BITMAP
0F00
70E0
53A0
7220
9210
9210
93D0
9050
9250
5260
6120
30C0
0F00
ENDCHAR
STARTCHAR 246F
ENCODING 9327
SWIDTH 1040 0
DWIDTH 13 0
BBX 12 13 0 -2
BITMAP
0F00
70E0
53A0
7260
9250
9210
93D0
9250
9250
5260
6120
30C0
0F00
ENDCHAR
STARTCHAR 2470
ENCODING 9328
SWIDTH 1040 0
DWIDTH 13 0
BBX 12 13 0 -2
BITMAP
0F00
70A0
53E0
7260
9250
9090
9110
9110
9210
5220
6020
30C0
0F00
ENDCHAR
STARTCHAR 2471
ENCODING 9329
SWIDTH 1040 0
DWIDTH 13 0
BBX 12 13 0 -2
BITMAP
0F00
70E0
53A0
7260
9250
9250
93D0
9250
9250
5260
6120
30C0
0F00
ENDCHAR
STARTCHAR 2472
ENCODING 9330
SWIDTH 1040 0
DWIDTH 13 0
BBX 12 13 0 -2
BITMAP
0F00
70E0
53A0
7260
9250
9250
93D0
9050
9250
5260
6120
30C0
0F00
ENDCHAR
STARTCHAR 2473
ENCODING 9331
SWIDTH 1040 0
DWIDTH 13 0
BBX 12 13 0 -2
BITMAP
0F00
70E0
59A0
6660
A650
8650
8A50
9250
A250
6660
5920
30C0
0F00
ENDCHAR
STARTCHAR 2581
ENCODING 9601
SWIDTH 1040 0
DWIDTH 13 0
BBX 5 11 0 -1
BITMAP
80
80
40
40
20
20
10
10
10
08
08
ENDCHAR
STARTCHAR 2582
ENCODING 9602
SWIDTH 1040 0
DWIDTH 13 0
BBX 5 3 0 7
BITMAP
40
A8
10
ENDCHAR
STARTCHAR 2583
ENCODING 9603
SWIDTH 1040 0
DWIDTH 13 0
BBX 1 11 2 -1
BITMAP
80
80
80
80
00
00
80
80
80
80
80
ENDCHAR
STARTCHAR 25A0
ENCODING 9632
SWIDTH 1040 0
DWIDTH 13 0
BBX 13 13 0 -2
BITMAP
FFF8
FFF8
FFF8
FFF8
FFF8
FFF8
FFF8
FFF8
FFF8
FFF8
FFF8
FFF8
FFF8
ENDCHAR
STARTCHAR 25A1
ENCODING 9633
SWIDTH 1040 0
DWIDTH 13 0
BBX 13 13 0 -2
BITMAP
FFF8
8008
8008
8008
8008
8008
8008
8008
8008
8008
8008
8008
FFF8
ENDCHAR
STARTCHAR 25B2
ENCODING 9650
SWIDTH 1040 0
DWIDTH 13 0
BBX 12 11 0 -1
BITMAP
0600
0600
0F00
0F00
1F80
1F80
3FC0
3FC0
3FC0
7FE0
FFF0
ENDCHAR
STARTCHAR 25B3
ENCODING 9651
SWIDTH 1040 0
DWIDTH 13 0
BBX 12 11 0 -1
BITMAP
0600
0600
0B00
0B00
1080
1080
2040
2040
2040
4020
FFF0
ENDCHAR
STARTCHAR 25BC
ENCODING 9660
SWIDTH 1040 0
DWIDTH 13 0
BBX 12 11 0 -1
BITMAP
FFF0
7FE0
3FC0
3FC0
1F80
1F80
0F00
0F00
0F00
0600
0600
ENDCHAR
STARTCHAR 25BD
ENCODING 9661
SWIDTH 1040 0
DWIDTH 13 0
BBX 12 11 0 -1
BITMAP
FFF0
4020
2040
2040
1080
1080
0B00
0B00
0B00
0600
0600
ENDCHAR
STARTCHAR 25C6
ENCODING 9670
SWIDTH 1040 0
DWIDTH 13 0
BBX 13 13 0 -2
BITMAP
0700
0F80
1FC0
3FE0
7FF0
FFF8
FFF8
7FF0
7FE0
3FE0
1FC0
0F80
0700
ENDCHAR
STARTCHAR 25C7
ENCODING 9671
SWIDTH 1040 0
DWIDTH 13 0
BBX 13 13 0 -2
BITMAP
0700
0880
1040
2020
4010
8008
8008
4010
6020
2020
1040
0880
0700
ENDCHAR
STARTCHAR 25CB
ENCODING 9675
SWIDTH 1040 0
DWIDTH 13 0
BBX 13 13 0 -2
BITMAP
0F80
3060
4010
4010
8008
8008
8008
8008
C018
4010
4010
3060
0F80
ENDCHAR
STARTCHAR 25CE
ENCODING 9678
SWIDTH 1040 0
DWIDTH 13 0
BBX 13 13 0 -2
BITMAP
0F80
3060
4010
4F90
9048
9048
9048
9048
DFD8
4F90
4010
3060
0F80
ENDCHAR
STARTCHAR 25CF
ENCODING 9679
SWIDTH 1040 0
DWIDTH 13 0
BBX 13 13 0 -2
BITMAP
0F80
3FE0
7FF0
7FF0
FFF8
FFF8
FFF8
FFF8
FFF0
7FF0
7FF0
3FE0
0F80
ENDCHAR
STARTCHAR 25EF
ENCODING 9711
SWIDTH 1040 0
DWIDTH 13 0
BBX 13 13 0 -2
BITMAP
0F80
3060
4010
4010
8008
8008
8008
8008
C018
4010
4010
3060
0F80
ENDCHAR
STARTCHAR 2605
ENCODING 9733
SWIDTH 1040 0
DWIDTH 13 0
BBX 12 13 0 -2
BITMAP
0600
0600
0F00
0F00
FFF0
7FE0
3FC0
1F80
1FC0
3FC0
3BC0
70E0
4020
ENDCHAR
STARTCHAR 2606
ENCODING 9734
SWIDTH 1040 0
DWIDTH 13 0
BBX 12 13 0 -2
BITMAP
0600
0600
0B00
0B00
F0F0
4020
2040
1080
36C0
2640
2B40
70E0
4020
ENDCHAR
STARTCHAR 2640
ENCODING 9792
SWIDTH 1040 0
DWIDTH 13 0
BBX 9 13 2 -2
BITMAP
1C00
2200
4100
4100
2200
1C00
1800
FF80
F800
1800
1800
1800
1800
ENDCHAR
STARTCHAR 2642
ENCODING 9794
SWIDTH 1040 0
DWIDTH 13 0
BBX 12 12 0 -2
BITMAP
03F0
0030
0050
0090
0310
3600
4800
8E00
8600
8600
4800
3000
ENDCHAR
STARTCHAR 266A
ENCODING 9834
SWIDTH 1040 0
DWIDTH 13 0
BBX 9 12 1 -2
BITMAP
0C00
0E00
0F00
0D80
0C80
0C80
0D00
0D00
7C00
F000
F000
4000
ENDCHAR
STARTCHAR 266D
ENCODING 9837
SWIDTH 1040 0
DWIDTH 13 0
BBX 6 12 4 -2
BITMAP
80
80
80
B8
EC
8C
88
88
B8
B0
E0
80
ENDCHAR
STARTCHAR 266F
ENCODING 9839
SWIDTH 1040 0
DWIDTH 13 0
BBX 9 13 2 -2
BITMAP
0200
2200
2380
3F80
FE00
E200
2380
3F80
3E00
FE00
E200
2200
2000
ENDCHAR
STARTCHAR 3000
ENCODING 12288
SWIDTH 1040 0
DWIDTH 13 0
BBX 0 0 0 0
BITMAP
ENDCHAR
STARTCHAR 3001
ENCODING 12289
SWIDTH 1040 0
DWIDTH 13 0
BBX 4 5 0 -2
BITMAP
80
80
60
30
30
ENDCHAR
STARTCHAR 3002
ENCODING 12290
SWIDTH 1040 0
DWIDTH 13 0
BBX 4 5 0 -2
BITMAP
60
60
90
90
60
ENDCHAR
STARTCHAR 3003
ENCODING 12291
SWIDTH 1040 0
DWIDTH 13 0
BBX 7 6 3 2
BITMAP
76
76
44
44
98
98
ENDCHAR
STARTCHAR 3005
ENCODING 12293
SWIDTH 1040 0
DWIDTH 13 0
BBX 11 11 0 -1
BITMAP
0F00
0EC0
0FE0
18C0
1380
2B00
4600
C780
8380
00C0
00C0
ENDCHAR
STARTCHAR 3006
ENCODING 12294
SWIDTH 1040 0
DWIDTH 13 0
BBX 12 13 0 -2
BITMAP
0040
0030
0060
00C0
1F80
2700
2EC0
48C0
58C0
5000
6000
C000
C000
ENDCHAR
STARTCHAR 3007
ENCODING 12295
SWIDTH 1040 0
DWIDTH 13 0
BBX 13 11 0 -1
BITMAP
0F80
3060
4010
8008
8008
8008
8008
C018
4010
3060
0F80
ENDCHAR
STARTCHAR 3008
ENCODING 12296
SWIDTH 1040 0
DWIDTH 13 0
BBX 4 13 8 -2
BITMAP
10
20
20
40
40
80
80
40
40
40
20
20
10
ENDCHAR
STARTCHAR 3009
ENCODING 12297
SWIDTH 1040 0
DWIDTH 13 0
BBX 4 13 1 -2
BITMAP
80
40
40
20
20
10
10
20
20
20
40
40
80
ENDCHAR
STARTCHAR 300A
ENCODING 12298
SWIDTH 1040 0
DWIDTH 13 0
BBX 7 13 5 -2
BITMAP
0A
14
14
68
68
D0
D0
68
68
68
14
14
0A
ENDCHAR
STARTCHAR 300B
ENCODING 12299
SWIDTH 1040 0
DWIDTH 13 0
BBX 7 13 1 -2
BITMAP
A0
50
50
2C
2C
16
16
2C
2C
2C
50
50
A0
ENDCHAR
STARTCHAR 300C
ENCODING 12300
SWIDTH 1040 0
DWIDTH 13 0
BBX 4 11 8 0
BITMAP
F0
80
80
80
80
80
80
80
80
80
80
ENDCHAR
STARTCHAR 300D
ENCODING 12301
SWIDTH 1040 0
DWIDTH 13 0
BBX 4 11 1 -2
BITMAP
10
10
10
10
10
10
10
10
10
10
F0
ENDCHAR
STARTCHAR 300E
ENCODING 12302
SWIDTH 1040 0
DWIDTH 13 0
BBX 6 11 6 0
BITMAP
FC
C4
DC
D0
D0
D0
D0
D0
D0
D0
F0
ENDCHAR
STARTCHAR 300F
ENCODING 12303
SWIDTH 1040 0
DWIDTH 13 0
BBX 6 11 1 -2
BITMAP
3C
2C
2C
2C
2C
2C
2C
2C
EC
8C
FC
ENDCHAR
STARTCHAR 3010
ENCODING 12304
SWIDTH 1040 0
DWIDTH 13 0
BBX 4 13 8 -2
BITMAP
F0
E0
C0
C0
C0
C0
C0
C0
C0
C0
C0
E0
F0
ENDCHAR
STARTCHAR 3011
ENCODING 12305
SWIDTH 1040 0
DWIDTH 13 0
BBX 4 13 1 -2
BITMAP
F0
70
30
30
30
30
30
30
30
30
30
70
F0
ENDCHAR
STARTCHAR 3012
ENCODING 12306
SWIDTH 1040 0
DWIDTH 13 0
BBX 13 12 0 -2
BITMAP
FFF8
FFF8
0000
FFF8
FFF8
0700
0700
0700
0700
0700
0700
0700
ENDCHAR
STARTCHAR 3013
ENCODING 12307
SWIDTH 1040 0
DWIDTH 13 0
BBX 9 7 2 1
BITMAP
FF80
FF80
0000
0000
FF80
FF80
FF80
ENDCHAR
STARTCHAR 3014
ENCODING 12308
SWIDTH 1040 0
DWIDTH 13 0
BBX 3 13 9 -2
BITMAP
20
40
80
80
80
80
80
80
80
80
80
40
20
ENDCHAR
STARTCHAR 3015
ENCODING 12309
SWIDTH 1040 0
DWIDTH 13 0
BBX 3 13 1 -2
BITMAP
80
40
20
20
20
20
20
20
20
20
20
40
80
ENDCHAR
STARTCHAR 301C
ENCODING 12316
SWIDTH 1040 0
DWIDTH 13 0
BBX 13 5 0 2
BITMAP
3800
6E08
8730
03E0
03E0
ENDCHAR
STARTCHAR 301D
ENCODING 12317
SWIDTH 1040 0
DWIDTH 13 0
BBX 5 2 7 8
BITMAP
58
90
ENDCHAR
STARTCHAR 301F
ENCODING 12319
SWIDTH 1040 0
DWIDTH 13 0
BBX 4 2 1 -1
BITMAP
D0
A0
ENDCHAR
STARTCHAR 3041
ENCODING 12353
SWIDTH 1040 0
DWIDTH 13 0
BBX 8 9 3 -2
BITMAP
74
BC
F2
3E
37
77
BB
DB
86
ENDCHAR
STARTCHAR 3042
ENCODING 12354
SWIDTH 1040 0
DWIDTH 13 0
BBX 11 13 1 -2
BITMAP
1C00
0E00
9F00
FC00
5100
3FC0
7660
5660
9460
9C60
BC60
ECC0
0700
ENDCHAR
STARTCHAR 3043
ENCODING 12355
SWIDTH 1040 0
DWIDTH 13 0
BBX 9 8 2 -2
BITMAP
8200
4100
6180
6180
6380
6000
7800
2000
ENDCHAR
STARTCHAR 3044
ENCODING 12356
SWIDTH 1040 0
DWIDTH 13 0
BBX 11 10 1 -1
BITMAP
8000
4080
6040
6060
6CE0
7060
6060
6000
3000
3000
ENDCHAR
STARTCHAR 3045
ENCODING 12357
SWIDTH 1040 0
DWIDTH 13 0
BBX 7 10 3 -2
BITMAP
38
1C
00
BC
F6
C6
46
06
04
38
ENDCHAR
STARTCHAR 3046
ENCODING 12358
SWIDTH 1040 0
DWIDTH 13 0
BBX 8 13 2 -2
BITMAP
20
1E
0E
00
BE
E3
43
03
03
03
02
0E
38
ENDCHAR
STARTCHAR 3047
ENCODING 12359
SWIDTH 1040 0
DWIDTH 13 0
BBX 9 9 2 -2
BITMAP
3C00
0E00
7E00
6C00
6C00
1C00
2C00
6F80
C380
ENDCHAR
STARTCHAR 3048
ENCODING 12360
SWIDTH 1040 0
DWIDTH 13 0
BBX 11 13 1 -2
BITMAP
1000
1F00
0E00
4700
7F00
3600
0C00
1C00
1600
3600
6600
C7E0
C1E0
ENDCHAR
STARTCHAR 3049
ENCODING 12361
SWIDTH 1040 0
DWIDTH 13 0
BBX 9 8 2 -2
BITMAP
6D00
BD80
E080
FE80
3E00
E300
A300
6E00
ENDCHAR
STARTCHAR 304A
ENCODING 12362
SWIDTH 1040 0
DWIDTH 13 0
BBX 11 13 1 -2
BITMAP
6000
30C0
3C60
AC60
FC00
67C0
3E60
3060
2060
E060
A660
71C0
6000
ENDCHAR
STARTCHAR 304B
ENCODING 12363
SWIDTH 1040 0
DWIDTH 13 0
BBX 13 13 0 -2
BITMAP
1800
1E00
0800
9F60
FBB0
D098
3398
23B8
23B0
6390
D700
CF00
0E00
ENDCHAR
STARTCHAR 304C
ENCODING 12364
SWIDTH 1040 0
DWIDTH 13 0
BBX 13 13 0 -2
BITMAP
1810
1E28
0838
9F50
FBA0
D0B0
3398
23B8
23B0
6390
D700
CF00
0E00
ENDCHAR
STARTCHAR 304D
ENCODING 12365
SWIDTH 1040 0
DWIDTH 13 0
BBX 9 13 2 -2
BITMAP
3800
3B00
9F00
FD80
8F00
7C00
0E00
7F00
FF00
8300
C000
7C00
3C00
ENDCHAR
STARTCHAR 304E
ENCODING 12366
SWIDTH 1040 0
DWIDTH 13 0
BBX 10 13 2 -2
BITMAP
3880
3B40
9EC0
FD80
8F00
7C00
0E00
7F00
FF00
8300
C000
7C00
3C00
ENDCHAR
STARTCHAR 304F
ENCODING 12367
SWIDTH 1040 0
DWIDTH 13 0
BBX 6 13 3 -2
BITMAP
38
1C
1C
38
70
80
C0
70
78
38
38
1C
1C
ENDCHAR
STARTCHAR 3050
ENCODING 12368
SWIDTH 1040 0
DWIDTH 13 0
BBX 9 13 3 -2
BITMAP
3800
1C00
1D00
3A80
7380
8100
C000
7000
7800
3800
3800
1C00
1C00
ENDCHAR
STARTCHAR 3051
ENCODING 12369
SWIDTH 1040 0
DWIDTH 13 0
BBX 11 13 1 -2
BITMAP
0700
C1C0
6180
61E0
5FA0
DD80
8180
A180
E180
C180
C100
6100
6600
ENDCHAR
STARTCHAR 3052
ENCODING 12370
SWIDTH 1040 0
DWIDTH 13 0
BBX 12 13 1 -2
BITMAP
0720
C1D0
61B0
61A0
51F0
DFA0
8D80
A180
E180
C180
C100
6100
6600
ENDCHAR
STARTCHAR 3053
ENCODING 12371
SWIDTH 1040 0
DWIDTH 13 0
BBX 9 10 2 -1
BITMAP
7E00
3F00
0C00
0000
4000
8000
8000
8000
FF80
7F00
ENDCHAR
STARTCHAR 3054
ENCODING 12372
SWIDTH 1040 0
DWIDTH 13 0
BBX 10 12 2 -1
BITMAP
0080
0140
7FC0
3E80
0C00
0000
4000
8000
8000
8000
FF80
7F00
ENDCHAR
STARTCHAR 3055
ENCODING 12373
SWIDTH 1040 0
DWIDTH 13 0
BBX 9 13 2 -2
BITMAP
3800
3800
1D80
8F00
FE00
6300
1F80
2180
4180
4000
6000
3E00
1F00
ENDCHAR
STARTCHAR 3056
ENCODING 12374
SWIDTH 1040 0
DWIDTH 13 0
BBX 11 13 2 -2
BITMAP
3840
38A0
1DE0
8F40
FE00
6300
1F80
2180
4180
4000
6000
3E00
1F00
ENDCHAR
STARTCHAR 3057
ENCODING 12375
SWIDTH 1040 0
DWIDTH 13 0
BBX 10 13 2 -2
BITMAP
C000
7800
6000
6000
6000
6000
6000
6000
6040
6040
6180
7F00
3C00
ENDCHAR
STARTCHAR 3058
ENCODING 12376
SWIDTH 1040 0
DWIDTH 13 0
BBX 10 13 2 -2
BITMAP
C000
7900
6280
6380
6100
6000
6000
6000
6040
6040
6180
7F00
3C00
ENDCHAR
STARTCHAR 3059
ENCODING 12377
SWIDTH 1040 0
DWIDTH 13 0
BBX 13 13 0 -2
BITMAP
0700
03C0
0380
8FF0
FBB8
6F80
1B80
1B80
1B80
0F80
0380
0300
0E00
ENDCHAR
STARTCHAR 305A
ENCODING 12378
SWIDTH 1040 0
DWIDTH 13 0
BBX 13 13 0 -2
BITMAP
0750
03F8
03A8
8FF0
FBB8
6F80
1B80
1B80
1B80
0F80
0380
0300
0E00
ENDCHAR
STARTCHAR 305B
ENCODING 12379
SWIDTH 1040 0
DWIDTH 13 0
BBX 13 13 0 -2
BITMAP
0380
30C0
1EC0
18F0
9FF8
FEC0
78C0
1BC0
1B80
1880
1800
0FE0
07E0
ENDCHAR
STARTCHAR 305C
ENCODING 12380
SWIDTH 1040 0
DWIDTH 13 0
BBX 13 13 0 -2
BITMAP
0050
33B8
1EE0
18D0
9FF8
FEC0
78C0
1BC0
1B80
1880
1800
0FE0
07E0
ENDCHAR
STARTCHAR 305D
ENCODING 12381
SWIDTH 1040 0
DWIDTH 13 0
BBX 10 12 2 -2
BITMAP
5F00
7B00
2E00
1D80
BFC0
EC00
D800
D800
1800
1C00
0F00
0300
ENDCHAR
STARTCHAR 305E
ENCODING 12382
SWIDTH 1040 0
DWIDTH 13 0
BBX 12 12 1 -2
BITMAP
5F20
7750
2E70
1DA0
BFC0
EC00
D000
D000
1000
1C00
0F00
0700
ENDCHAR
STARTCHAR 305F
ENCODING 12383
SWIDTH 1040 0
DWIDTH 13 0
BBX 11 12 0 -1
BITMAP
3000
1E00
1800
9F00
FBE0
50E0
3000
3000
2600
6600
63E0
60E0
ENDCHAR
STARTCHAR 3060
ENCODING 12384
SWIDTH 1040 0
DWIDTH 13 0
BBX 13 12 0 -1
BITMAP
3010
1E28
1838
9F10
FBE0
50C0
3000
3000
2600
6600
63E0
60E0
ENDCHAR
STARTCHAR 3061
ENCODING 12385
SWIDTH 1040 0
DWIDTH 13 0
BBX 10 13 1 -2
BITMAP
3000
1E00
1C00
9F00
FE00
5000
3780
3CC0
30C0
30C0
00C0
0180
0E00
ENDCHAR
STARTCHAR 3062
ENCODING 12386
SWIDTH 1040 0
DWIDTH 13 0
BBX 11 13 1 -2
BITMAP
3000
1E40
1CA0
9FE0
FE40
5000
3780
3CC0
30C0
30C0
00C0
0180
0E00
ENDCHAR
STARTCHAR 3063
ENCODING 12387
SWIDTH 1040 0
DWIDTH 13 0
BBX 9 7 2 -2
BITMAP
1F00
F980
E180
6180
0180
0300
1C00
ENDCHAR
STARTCHAR 3064
ENCODING 12388
SWIDTH 1040 0
DWIDTH 13 0
BBX 11 9 1 -1
BITMAP
0FC0
BC60
F060
4060
0060
0040
00C0
0180
0E00
ENDCHAR
STARTCHAR 3065
ENCODING 12389
SWIDTH 1040 0
DWIDTH 13 0
BBX 12 12 1 -1
BITMAP
0020
0050
0070
0FD0
BC60
F060
4060
0060
0040
00C0
0180
0E00
ENDCHAR
STARTCHAR 3066
ENCODING 12390
SWIDTH 1040 0
DWIDTH 13 0
BBX 12 10 0 -1
BITMAP
07F0
BFF0
F700
4E00
0800
0800
0E00
0E00
07E0
03E0
ENDCHAR
STARTCHAR 3067
ENCODING 12391
SWIDTH 1040 0
DWIDTH 13 0
BBX 13 10 0 -1
BITMAP
07E0
BFD0
F728
4E38
0810
0800
0E00
0E00
07E0
03E0
ENDCHAR
STARTCHAR 3068
ENCODING 12392
SWIDTH 1040 0
DWIDTH 13 0
BBX 8 13 3 -2
BITMAP
C0
70
70
70
73
47
3C
70
80
80
80
FF
7F
ENDCHAR
STARTCHAR 3069
ENCODING 12393
SWIDTH 1040 0
DWIDTH 13 0
BBX 10 13 2 -2
BITMAP
C080
6140
61C0
6080
6300
4F00
3C00
6000
8000
8000
8000
FF00
7F00
ENDCHAR
STARTCHAR 306A
ENCODING 12394
SWIDTH 1040 0
DWIDTH 13 0
BBX 12 13 0 -2
BITMAP
3000
1B00
9F60
FE30
D070
3080
6380
6380
43C0
4FC0
13F0
1BB0
0F00
ENDCHAR
STARTCHAR 306B
ENCODING 12395
SWIDTH 1040 0
DWIDTH 13 0
BBX 11 12 1 -2
BITMAP
C000
61C0
6FC0
6080
C000
8000
CC00
D600
D600
E7E0
61E0
6000
ENDCHAR
STARTCHAR 306C
ENCODING 12396
SWIDTH 1040 0
DWIDTH 13 0
BBX 12 12 1 -1
BITMAP
0E00
0700
4700
5FC0
7660
2E60
6C60
DC60
9440
97C0
EE60
47B0
ENDCHAR
STARTCHAR 306D
ENCODING 12397
SWIDTH 1040 0
DWIDTH 13 0
BBX 12 13 1 -2
BITMAP
6000
3000
3000
37C0
2E60
EC60
B060
6060
A040
A7C0
EE60
77B0
4000
ENDCHAR
STARTCHAR 306E
ENCODING 12398
SWIDTH 1040 0
DWIDTH 13 0
BBX 11 10 1 -1
BITMAP
1F80
2CC0
6C60
5060
D060
B060
A040
E0C0
6080
0700
ENDCHAR
STARTCHAR 306F
ENCODING 12399
SWIDTH 1040 0
DWIDTH 13 0
BBX 12 12 1 -2
BITMAP
C180
70C0
60F0
6FE0
C780
80C0
A0C0
E0C0
C7C0
CCE0
6FB0
6700
ENDCHAR
STARTCHAR 3070
ENCODING 12400
SWIDTH 1040 0
DWIDTH 13 0
BBX 12 13 1 -2
BITMAP
0020
C770
71D0
61A0
7FE0
CF00
8180
8180
C1C0
CFC0
D1E0
7DB0
6F00
ENDCHAR
STARTCHAR 3071
ENCODING 12401
SWIDTH 1040 0
DWIDTH 13 0
BBX 12 13 1 -2
BITMAP
0070
C750
7170
61E0
7FC0
CF00
8180
8180
C1C0
CFC0
D1E0
7DB0
6F00
ENDCHAR
STARTCHAR 3072
ENCODING 12402
SWIDTH 1040 0
DWIDTH 13 0
BBX 12 11 1 -2
BITMAP
9CC0
FCC0
70C0
20E0
20B0
41B0
4130
4100
4700
7E00
3C00
ENDCHAR
STARTCHAR 3073
ENCODING 12403
SWIDTH 1040 0
DWIDTH 13 0
BBX 13 12 0 -2
BITMAP
0010
98F8
F8E8
70D0
20E0
20B0
43B0
4330
4300
4700
7E00
3800
ENDCHAR
STARTCHAR 3074
ENCODING 12404
SWIDTH 1040 0
DWIDTH 13 0
BBX 13 12 0 -2
BITMAP
0038
98E8
F8F8
70C0
20E0
20B0
43B0
4330
4300
4700
7E00
3800
ENDCHAR
STARTCHAR 3075
ENCODING 12405
SWIDTH 1040 0
DWIDTH 13 0
BBX 13 12 0 -2
BITMAP
0800
0780
0700
0800
0E00
07E0
1B30
93B8
B398
6B98
6780
0700
ENDCHAR
STARTCHAR 3076
ENCODING 12406
SWIDTH 1040 0
DWIDTH 13 0
BBX 13 12 0 -2
BITMAP
0810
07B8
0728
0830
0E10
07E0
1B30
93B8
B398
6B98
6780
0700
ENDCHAR
STARTCHAR 3077
ENCODING 12407
SWIDTH 1040 0
DWIDTH 13 0
BBX 13 12 0 -2
BITMAP
0800
07B8
0728
0838
0E00
07E0
1B30
93B8
B398
6B98
6780
0700
ENDCHAR
STARTCHAR 3078
ENCODING 12408
SWIDTH 1040 0
DWIDTH 13 0
BBX 13 8 0 1
BITMAP
1800
1600
3300
B380
60E0
6078
6078
0018
ENDCHAR
STARTCHAR 3079
ENCODING 12409
SWIDTH 1040 0
DWIDTH 13 0
BBX 13 10 0 1
BITMAP
0040
00A0
18E0
1640
3300
B380
60E0
6078
6078
0018
ENDCHAR
STARTCHAR 307A
ENCODING 12410
SWIDTH 1040 0
DWIDTH 13 0
BBX 13 9 0 1
BITMAP
00E0
18A0
16E0
3300
B380
60E0
6078
6078
0018
ENDCHAR
STARTCHAR 307B
ENCODING 12411
SWIDTH 1040 0
DWIDTH 13 0
BBX 11 12 1 -2
BITMAP
C1E0
7FC0
6D80
61E0
DFC0
8D80
A180
E1C0
CFC0
CDE0
6FA0
6700
ENDCHAR
STARTCHAR 307C
ENCODING 12412
SWIDTH 1040 0
DWIDTH 13 0
BBX 12 13 1 -2
BITMAP
0020
C0F0
7FD0
6DA0
61E0
DFC0
8D80
A180
E1C0
CFC0
CDE0
6FA0
6700
ENDCHAR
STARTCHAR 307D
ENCODING 12413
SWIDTH 1040 0
DWIDTH 13 0
BBX 12 13 1 -2
BITMAP
0070
C0D0
7FF0
6D80
61E0
DFE0
8D80
A180
E1C0
CFC0
CDE0
6FA0
6700
ENDCHAR
STARTCHAR 307E
ENCODING 12414
SWIDTH 1040 0
DWIDTH 13 0
BBX 10 13 1 -2
BITMAP
1E00
0E00
CFC0
7E80
4F80
7F00
2E00
0E00
0F00
3F00
4FC0
7EC0
3C00
ENDCHAR
STARTCHAR 307F
ENCODING 12415
SWIDTH 1040 0
DWIDTH 13 0
BBX 12 12 1 -2
BITMAP
5E00
7E00
2C00
1D80
10C0
7EC0
B7F0
A7B0
E1B0
C700
8600
1C00
ENDCHAR
STARTCHAR 3080
ENCODING 12416
SWIDTH 1040 0
DWIDTH 13 0
BBX 13 13 0 -2
BITMAP
3000
1B00
9F60
F850
5858
1058
7020
5020
5020
5020
3020
1FE0
0FC0
ENDCHAR
STARTCHAR 3081
ENCODING 12417
SWIDTH 1040 0
DWIDTH 13 0
BBX 11 12 1 -1
BITMAP
0E00
0700
4700
5FC0
7660
2E60
6C60
DC60
9C40
9CC0
EC80
4700
ENDCHAR
STARTCHAR 3082
ENCODING 12418
SWIDTH 1040 0
DWIDTH 13 0
BBX 9 13 2 -2
BITMAP
3800
1C00
9C00
7800
3C00
AE00
F900
5D80
7D80
6C80
6180
3F00
1E00
ENDCHAR
STARTCHAR 3083
ENCODING 12419
SWIDTH 1040 0
DWIDTH 13 0
BBX 10 10 1 -2
BITMAP
0C00
0E00
3780
6FC0
B640
B7C0
F180
1C00
0E00
0E00
ENDCHAR
STARTCHAR 3084
ENCODING 12420
SWIDTH 1040 0
DWIDTH 13 0
BBX 13 12 0 -2
BITMAP
0600
3380
28F0
3798
1E18
9B30
7EE0
66E0
6600
0700
0380
0380
ENDCHAR
STARTCHAR 3085
ENCODING 12421
SWIDTH 1040 0
DWIDTH 13 0
BBX 9 10 2 -2
BITMAP
1C00
CE00
5F00
AD80
ED80
CD80
DD80
5F00
1C00
3800
ENDCHAR
STARTCHAR 3086
ENCODING 12422
SWIDTH 1040 0
DWIDTH 13 0
BBX 11 13 1 -2
BITMAP
0C00
C600
7780
6F40
D760
D760
F760
D740
E7C0
6F80
4700
0E00
3000
ENDCHAR
STARTCHAR 3087
ENCODING 12423
SWIDTH 1040 0
DWIDTH 13 0
BBX 8 10 2 -2
BITMAP
38
1C
1B
1E
18
1C
7C
9F
FB
60
ENDCHAR
STARTCHAR 3088
ENCODING 12424
SWIDTH 1040 0
DWIDTH 13 0
BBX 11 13 1 -2
BITMAP
1C00
0F00
0E00
0EC0
0FC0
0E00
0E00
0E00
0F00
7F00
8FC0
CEE0
7C00
ENDCHAR
STARTCHAR 3089
ENCODING 12425
SWIDTH 1040 0
DWIDTH 13 0
BBX 8 13 3 -2
BITMAP
30
18
3C
5C
C0
C0
DE
F3
C3
C3
03
06
38
ENDCHAR
STARTCHAR 308A
ENCODING 12426
SWIDTH 1040 0
DWIDTH 13 0
BBX 8 12 2 -2
BITMAP
C0
6E
7B
5B
E3
E3
C3
C3
43
0E
0C
38
ENDCHAR
STARTCHAR 308B
ENCODING 12427
SWIDTH 1040 0
DWIDTH 13 0
BBX 9 12 2 -2
BITMAP
5E00
7E00
2C00
1800
2E00
7900
E180
C180
C180
3D80
2F00
1E00
ENDCHAR
STARTCHAR 308C
ENCODING 12428
SWIDTH 1040 0
DWIDTH 13 0
BBX 12 13 1 -2
BITMAP
6000
3000
3180
36C0
2CC0
B0C0
E180
E180
A190
A190
61E0
70C0
6000
ENDCHAR
STARTCHAR 308D
ENCODING 12429
SWIDTH 1040 0
DWIDTH 13 0
BBX 9 12 2 -2
BITMAP
5E00
7E00
2C00
1800
2E00
7B00
C180
C180
C180
0180
0300
1C00
ENDCHAR
STARTCHAR 308E
ENCODING 12430
SWIDTH 1040 0
DWIDTH 13 0
BBX 9 8 2 -2
BITMAP
6000
3800
EF00
BF80
B980
6180
E100
2E00
ENDCHAR
STARTCHAR 308F
ENCODING 12431
SWIDTH 1040 0
DWIDTH 13 0
BBX 11 13 1 -2
BITMAP
6000
3000
3000
3000
27C0
FC60
B060
6060
E060
A060
B0C0
7700
6000
ENDCHAR
STARTCHAR 3090
ENCODING 12432
SWIDTH 1040 0
DWIDTH 13 0
BBX 11 12 1 -2
BITMAP
2F00
3F00
1600
1C00
3FC0
7060
D060
E760
A760
ECE0
4EC0
0780
ENDCHAR
STARTCHAR 3091
ENCODING 12433
SWIDTH 1040 0
DWIDTH 13 0
BBX 13 12 0 -2
BITMAP
1780
1B80
0700
1BC0
1E60
0BC0
0F80
3FE0
30E0
6B90
CF38
CE18
ENDCHAR
STARTCHAR 3092
ENCODING 12434
SWIDTH 1040 0
DWIDTH 13 0
BBX 9 13 2 -2
BITMAP
3800
1C00
BA00
FE00
2100
7D80
CF80
DE00
EE00
2E00
2000
3F00
1F80
ENDCHAR
STARTCHAR 3093
ENCODING 12435
SWIDTH 1040 0
DWIDTH 13 0
BBX 11 13 1 -2
BITMAP
1000
0E00
0E00
1C00
1C00
3000
2000
5C20
6E20
6E20
CE40
CEC0
C780
ENDCHAR
STARTCHAR 309B
ENCODING 12443
SWIDTH 1040 0
DWIDTH 13 0
BBX 5 4 0 7
BITMAP
20
90
58
60
ENDCHAR
STARTCHAR 309C
ENCODING 12444
SWIDTH 1040 0
DWIDTH 13 0
BBX 4 4 0 7
BITMAP
60
90
90
60
ENDCHAR
STARTCHAR 309D
ENCODING 12445
SWIDTH 1040 0
DWIDTH 13 0
BBX 6 8 3 1
BITMAP
80
80
40
38
1C
3C
7C
40
ENDCHAR
STARTCHAR 309E
ENCODING 12446
SWIDTH 1040 0
DWIDTH 13 0
BBX 8 9 3 1
BITMAP
04
9A
87
44
38
1C
3C
7C
40
ENDCHAR
STARTCHAR 30A1
ENCODING 12449
SWIDTH 1040 0
DWIDTH 13 0
BBX 9 8 2 -2
BITMAP
0F80
FD00
5A00
5C00
1C00
1C00
1800
2000
ENDCHAR
STARTCHAR 30A2
ENCODING 12450
SWIDTH 1040 0
DWIDTH 13 0
BBX 11 12 1 -2
BITMAP
0040
8FE0
FE60
7180
4E00
0E00
0E00
0C00
0C00
1C00
1000
2000
ENDCHAR
STARTCHAR 30A3
ENCODING 12451
SWIDTH 1040 0
DWIDTH 13 0
BBX 7 8 2 -2
BITMAP
0E
0E
1C
1C
3C
DC
1C
1C
ENDCHAR
STARTCHAR 30A4
ENCODING 12452
SWIDTH 1040 0
DWIDTH 13 0
BBX 9 13 1 -2
BITMAP
0100
0180
0780
0700
0E00
1E00
2E00
CE00
CE00
0E00
0E00
0E00
0E00
ENDCHAR
STARTCHAR 30A5
ENCODING 12453
SWIDTH 1040 0
DWIDTH 13 0
BBX 8 9 2 -2
BITMAP
78
3A
BF
FB
CA
CE
CE
0C
38
ENDCHAR
STARTCHAR 30A6
ENCODING 12454
SWIDTH 1040 0
DWIDTH 13 0
BBX 11 13 1 -2
BITMAP
1C00
0F00
0EC0
CFE0
7CC0
60C0
60C0
6180
6180
0180
0700
0600
0C00
ENDCHAR
STARTCHAR 30A7
ENCODING 12455
SWIDTH 1040 0
DWIDTH 13 0
BBX 9 7 2 -1
BITMAP
0F00
7D00
5C00
5D00
1D00
9F80
F800
ENDCHAR
STARTCHAR 30A8
ENCODING 12456
SWIDTH 1040 0
DWIDTH 13 0
BBX 11 10 1 -1
BITMAP
0780
7FC0
6C00
0E00
0E00
0E00
0EC0
0EC0
FFE0
6000
ENDCHAR
STARTCHAR 30A9
ENCODING 12457
SWIDTH 1040 0
DWIDTH 13 0
BBX 8 9 2 -2
BITMAP
38
1C
9F
FD
FD
3C
5C
BC
18
ENDCHAR
STARTCHAR 30AA
ENCODING 12458
SWIDTH 1040 0
DWIDTH 13 0
BBX 11 13 1 -2
BITMAP
0E00
0780
0700
0FE0
FF60
6F00
1F00
1700
3700
2700
D700
0F00
0600
ENDCHAR
STARTCHAR 30AB
ENCODING 12459
SWIDTH 1040 0
DWIDTH 13 0
BBX 11 12 0 -2
BITMAP
0F00
0700
0640
0FE0
7EC0
68C0
18C0
1080
3080
2780
4380
8300
ENDCHAR
STARTCHAR 30AC
ENCODING 12460
SWIDTH 1040 0
DWIDTH 13 0
BBX 13 12 0 -2
BITMAP
0F10
0728
0638
0FF0
7EC0
68C0
18C0
1080
3080
2780
4380
8300
ENDCHAR
STARTCHAR 30AD
ENCODING 12461
SWIDTH 1040 0
DWIDTH 13 0
BBX 11 13 1 -2
BITMAP
1C00
0F00
0E00
0FC0
7EC0
6E00
07E0
FF60
E760
6700
0700
0700
0700
ENDCHAR
STARTCHAR 30AE
ENCODING 12462
SWIDTH 1040 0
DWIDTH 13 0
BBX 12 13 1 -2
BITMAP
1C20
0F50
0E70
0FA0
7E80
6E00
07E0
FF60
E760
6700
0700
0700
0700
ENDCHAR
STARTCHAR 30AF
ENCODING 12463
SWIDTH 1040 0
DWIDTH 13 0
BBX 9 12 2 -2
BITMAP
3800
1D80
1F80
3980
2300
4300
8E00
8C00
0C00
1800
2000
4000
ENDCHAR
STARTCHAR 30B0
ENCODING 12464
SWIDTH 1040 0
DWIDTH 13 0
BBX 12 13 1 -2
BITMAP
0020
3050
1DF0
1FA0
3180
2700
4700
8E00
8C00
0C00
1000
2000
4000
ENDCHAR
STARTCHAR 30B1
ENCODING 12465
SWIDTH 1040 0
DWIDTH 13 0
BBX 11 11 1 -2
BITMAP
3000
1C00
1DC0
3FE0
2700
4700
C600
8E00
0C00
1000
2000
ENDCHAR
STARTCHAR 30B2
ENCODING 12466
SWIDTH 1040 0
DWIDTH 13 0
BBX 13 12 0 -2
BITMAP
0010
3028
1818
1BD0
3FE0
2700
4700
C600
8E00
0800
1000
2000
ENDCHAR
STARTCHAR 30B3
ENCODING 12467
SWIDTH 1040 0
DWIDTH 13 0
BBX 9 8 2 0
BITMAP
0300
FF80
6180
0300
0300
0300
FF00
6300
ENDCHAR
STARTCHAR 30B4
ENCODING 12468
SWIDTH 1040 0
DWIDTH 13 0
BBX 11 10 2 0
BITMAP
0040
00A0
0FE0
FF40
6300
0E00
0E00
0E00
FE00
6E00
ENDCHAR
STARTCHAR 30B5
ENCODING 12469
SWIDTH 1040 0
DWIDTH 13 0
BBX 13 13 0 -2
BITMAP
0380
30E0
1EC0
18F0
1FF8
F8C0
D8C0
18C0
1880
0380
0380
0300
0E00
ENDCHAR
STARTCHAR 30B6
ENCODING 12470
SWIDTH 1040 0
DWIDTH 13 0
BBX 13 13 0 -2
BITMAP
0390
30E8
1ED8
18D0
1FF8
F8C0
D8C0
18C0
1880
0380
0380
0300
0E00
ENDCHAR
STARTCHAR 30B7
ENCODING 12471
SWIDTH 1040 0
DWIDTH 13 0
BBX 11 11 1 -1
BITMAP
4000
3C00
9C00
7020
3040
0080
0700
8600
9E00
7C00
6000
ENDCHAR
STARTCHAR 30B8
ENCODING 12472
SWIDTH 1040 0
DWIDTH 13 0
BBX 12 11 1 -1
BITMAP
4020
3C50
9C30
7020
3040
0080
0700
8600
9E00
7C00
6000
ENDCHAR
STARTCHAR 30B9
ENCODING 12473
SWIDTH 1040 0
DWIDTH 13 0
BBX 10 10 1 -1
BITMAP
0F80
7F00
6700
0E00
0E00
1D00
1180
1180
20C0
C0C0
ENDCHAR
STARTCHAR 30BA
ENCODING 12474
SWIDTH 1040 0
DWIDTH 13 0
BBX 12 12 1 -1
BITMAP
0020
0050
0FF0
7F20
6700
0E00
0E00
1D00
1180
1180
20C0
C0C0
ENDCHAR
STARTCHAR 30BB
ENCODING 12475
SWIDTH 1040 0
DWIDTH 13 0
BBX 11 12 0 -1
BITMAP
3800
1E00
1800
18C0
1FE0
F8C0
D880
1B00
1B00
1800
1FE0
0FE0
ENDCHAR
STARTCHAR 30BC
ENCODING 12476
SWIDTH 1040 0
DWIDTH 13 0
BBX 13 12 0 -1
BITMAP
3810
1E28
1838
18D0
1FE0
F8C0
D880
1B00
1B00
1800
1FE0
0FE0
ENDCHAR
STARTCHAR 30BD
ENCODING 12477
SWIDTH 1040 0
DWIDTH 13 0
BBX 10 12 1 -2
BITMAP
0180
80C0
41C0
6180
6180
0700
0700
0600
0E00
0C00
1000
2000
ENDCHAR
STARTCHAR 30BE
ENCODING 12478
SWIDTH 1040 0
DWIDTH 13 0
BBX 12 13 1 -2
BITMAP
0020
0650
81F0
41A0
6180
6180
0700
0700
0600
0E00
0C00
1000
2000
ENDCHAR
STARTCHAR 30BF
ENCODING 12479
SWIDTH 1040 0
DWIDTH 13 0
BBX 9 12 2 -2
BITMAP
3800
1D80
1F80
3B00
3B00
5E00
8E00
8C00
1C00
1800
2000
4000
ENDCHAR
STARTCHAR 30C0
ENCODING 12480
SWIDTH 1040 0
DWIDTH 13 0
BBX 12 13 1 -2
BITMAP
0020
3050
1DF0
1FA0
3700
3700
5E00
8E00
8C00
1C00
1000
2000
4000
ENDCHAR
STARTCHAR 30C1
ENCODING 12481
SWIDTH 1040 0
DWIDTH 13 0
BBX 11 13 1 -2
BITMAP
0600
0700
1F00
7C00
0EC0
0FE0
FE00
6E00
6C00
0C00
1C00
1000
6000
ENDCHAR
STARTCHAR 30C2
ENCODING 12482
SWIDTH 1040 0
DWIDTH 13 0
BBX 12 13 1 -2
BITMAP
0600
0720
1F50
7C30
0EE0
0FC0
FE00
6E00
6C00
0C00
1C00
1000
6000
ENDCHAR
STARTCHAR 30C3
ENCODING 12483
SWIDTH 1040 0
DWIDTH 13 0
BBX 8 8 2 -2
BITMAP
22
BB
DB
DA
42
0E
0C
38
ENDCHAR
STARTCHAR 30C4
ENCODING 12484
SWIDTH 1040 0
DWIDTH 13 0
BBX 11 12 1 -2
BITMAP
20C0
1C60
9CE0
60C0
60C0
0180
0180
0100
0700
0600
0C00
1000
ENDCHAR
STARTCHAR 30C5
ENCODING 12485
SWIDTH 1040 0
DWIDTH 13 0
BBX 13 13 0 -2
BITMAP
0010
2028
18B8
98D0
60C0
60C0
0380
0380
0300
0700
0600
0800
1000
ENDCHAR
STARTCHAR 30C6
ENCODING 12486
SWIDTH 1040 0
DWIDTH 13 0
BBX 11 12 1 -2
BITMAP
0700
7F80
3000
8FC0
FEE0
6E00
0E00
0C00
0C00
1C00
1000
2000
ENDCHAR
STARTCHAR 30C7
ENCODING 12487
SWIDTH 1040 0
DWIDTH 13 0
BBX 12 13 1 -2
BITMAP
0020
0750
7F70
3020
8FC0
FEC0
6E00
0E00
0C00
0C00
1C00
1000
2000
ENDCHAR
STARTCHAR 30C8
ENCODING 12488
SWIDTH 1040 0
DWIDTH 13 0
BBX 8 13 3 -2
BITMAP
C0
78
70
70
7C
77
73
70
70
70
70
70
70
ENDCHAR
STARTCHAR 30C9
ENCODING 12489
SWIDTH 1040 0
DWIDTH 13 0
BBX 9 13 3 -2
BITMAP
C000
7900
7280
7380
7D00
7700
7300
7000
7000
7000
7000
7000
7000
ENDCHAR
STARTCHAR 30CA
ENCODING 12490
SWIDTH 1040 0
DWIDTH 13 0
BBX 11 13 1 -2
BITMAP
1C00
0F00
0E00
0E00
0FE0
FE60
6E00
0E00
0C00
0C00
1C00
1000
2000
ENDCHAR
STARTCHAR 30CB
ENCODING 12491
SWIDTH 1040 0
DWIDTH 13 0
BBX 11 8 1 0
BITMAP
0700
7F80
7000
0000
01C0
01E0
FFE0
E000
ENDCHAR
STARTCHAR 30CC
ENCODING 12492
SWIDTH 1040 0
DWIDTH 13 0
BBX 9 10 2 -1
BITMAP
0F00
FB80
E300
2E00
1C00
1F00
1980
3980
2180
C000
ENDCHAR
STARTCHAR 30CD
ENCODING 12493
SWIDTH 1040 0
DWIDTH 13 0
BBX 10 13 1 -2
BITMAP
1C00
0F00
0600
5F80
7700
2E00
1D80
3EC0
FEC0
CEC0
0E00
0E00
0E00
ENDCHAR
STARTCHAR 30CE
ENCODING 12494
SWIDTH 1040 0
DWIDTH 13 0
BBX 9 11 2 -1
BITMAP
0200
0380
0300
0300
0E00
0E00
1C00
1800
1800
2000
C000
ENDCHAR
STARTCHAR 30CF
ENCODING 12495
SWIDTH 1040 0
DWIDTH 13 0
BBX 11 8 1 0
BITMAP
3100
3080
30C0
2060
6060
4060
4060
8000
ENDCHAR
STARTCHAR 30D0
ENCODING 12496
SWIDTH 1040 0
DWIDTH 13 0
BBX 12 10 1 0
BITMAP
0020
0050
3120
30A0
30C0
2060
6060
4060
4060
8000
ENDCHAR
STARTCHAR 30D1
ENCODING 12497
SWIDTH 1040 0
DWIDTH 13 0
BBX 12 10 1 0
BITMAP
0070
0050
3170
3080
30C0
2060
6060
4060
4060
8000
ENDCHAR
STARTCHAR 30D2
ENCODING 12498
SWIDTH 1040 0
DWIDTH 13 0
BBX 9 11 2 -1
BITMAP
C000
7800
6000
6300
7F00
6000
6000
6000
6000
7F80
3F80
ENDCHAR
STARTCHAR 30D3
ENCODING 12499
SWIDTH 1040 0
DWIDTH 13 0
BBX 11 11 2 -1
BITMAP
C040
78A0
60E0
6340
7F00
6000
6000
6000
6000
7F80
3F80
ENDCHAR
STARTCHAR 30D4
ENCODING 12500
SWIDTH 1040 0
DWIDTH 13 0
BBX 11 11 2 -1
BITMAP
C0E0
78A0
60E0
6300
7F00
6000
6000
6000
6000
7F80
3F80
ENDCHAR
STARTCHAR 30D5
ENCODING 12501
SWIDTH 1040 0
DWIDTH 13 0
BBX 10 10 1 -1
BITMAP
0FC0
FD80
E180
0700
0700
0E00
0C00
0C00
1000
2000
ENDCHAR
STARTCHAR 30D6
ENCODING 12502
SWIDTH 1040 0
DWIDTH 13 0
BBX 12 12 1 -1
BITMAP
0020
0050
0FF0
FDA0
E180
0700
0700
0E00
0C00
0C00
1000
2000
ENDCHAR
STARTCHAR 30D7
ENCODING 12503
SWIDTH 1040 0
DWIDTH 13 0
BBX 12 12 1 -1
BITMAP
0070
0050
0FF0
FD80
E180
0700
0700
0E00
0C00
0C00
1000
2000
ENDCHAR
STARTCHAR 30D8
ENCODING 12504
SWIDTH 1040 0
DWIDTH 13 0
BBX 11 7 1 1
BITMAP
3C00
2600
6700
E180
40E0
40E0
0060
ENDCHAR
STARTCHAR 30D9
ENCODING 12505
SWIDTH 1040 0
DWIDTH 13 0
BBX 11 9 1 1
BITMAP
0080
0140
3DC0
2680
6700
E180
40E0
40E0
0060
ENDCHAR
STARTCHAR 30DA
ENCODING 12506
SWIDTH 1040 0
DWIDTH 13 0
BBX 11 9 1 1
BITMAP
01C0
0140
3DC0
2600
6700
E180
40E0
40E0
0060
ENDCHAR
STARTCHAR 30DB
ENCODING 12507
SWIDTH 1040 0
DWIDTH 13 0
BBX 11 12 1 -2
BITMAP
1C00
0F00
0E00
8FE0
FE60
6F00
4EC0
4EE0
CE60
EE60
1E00
0C00
ENDCHAR
STARTCHAR 30DC
ENCODING 12508
SWIDTH 1040 0
DWIDTH 13 0
BBX 12 13 1 -2
BITMAP
0020
1C50
0F70
0E20
8FE0
FE60
6F00
4EC0
4EE0
CE60
EE60
1E00
0C00
ENDCHAR
STARTCHAR 30DD
ENCODING 12509
SWIDTH 1040 0
DWIDTH 13 0
BBX 12 13 1 -2
BITMAP
0070
1C50
0F70
0E00
8FE0
FE60
6F00
4EC0
4EE0
CE60
EE60
1E00
0C00
ENDCHAR
STARTCHAR 30DE
ENCODING 12510
SWIDTH 1040 0
DWIDTH 13 0
BBX 10 8 1 0
BITMAP
8FC0
FDC0
E100
1E00
0E00
0F00
0700
0700
ENDCHAR
STARTCHAR 30DF
ENCODING 12511
SWIDTH 1040 0
DWIDTH 13 0
BBX 8 11 2 -1
BITMAP
7C
0F
03
78
1E
0E
F8
FE
1E
0F
03
ENDCHAR
STARTCHAR 30E0
ENCODING 12512
SWIDTH 1040 0
DWIDTH 13 0
BBX 11 11 1 -1
BITMAP
1C00
0E00
0E00
1C00
1D00
1080
10C0
20C0
27C0
FC60
E060
ENDCHAR
STARTCHAR 30E1
ENCODING 12513
SWIDTH 1040 0
DWIDTH 13 0
BBX 10 11 1 -1
BITMAP
0180
01C0
0180
3700
0F00
0E00
1D80
11C0
10C0
20C0
C000
ENDCHAR
STARTCHAR 30E2
ENCODING 12514
SWIDTH 1040 0
DWIDTH 13 0
BBX 11 10 1 -1
BITMAP
0F80
7D80
7C00
1FE0
FE60
DC00
DC00
1C00
1FC0
0FC0
ENDCHAR
STARTCHAR 30E3
ENCODING 12515
SWIDTH 1040 0
DWIDTH 13 0
BBX 9 8 2 -2
BITMAP
6000
2F80
3D00
3E00
FA00
9C00
0C00
0E00
ENDCHAR
STARTCHAR 30E4
ENCODING 12516
SWIDTH 1040 0
DWIDTH 13 0
BBX 12 12 0 -2
BITMAP
3000
1800
1BE0
0F70
1E40
F680
6700
6700
0300
0380
00C0
00C0
ENDCHAR
STARTCHAR 30E5
ENCODING 12517
SWIDTH 1040 0
DWIDTH 13 0
BBX 9 7 2 -1
BITMAP
0E00
7A00
2C00
2D00
0D00
FF80
4000
ENDCHAR
STARTCHAR 30E6
ENCODING 12518
SWIDTH 1040 0
DWIDTH 13 0
BBX 11 8 1 0
BITMAP
0F80
7700
6700
0600
0EC0
0EE0
FFE0
6000
ENDCHAR
STARTCHAR 30E7
ENCODING 12519
SWIDTH 1040 0
DWIDTH 13 0
BBX 7 8 3 -2
BITMAP
1E
F6
1E
14
F4
1C
BC
DC
ENDCHAR
STARTCHAR 30E8
ENCODING 12520
SWIDTH 1040 0
DWIDTH 13 0
BBX 9 9 2 0
BITMAP
0F80
F980
C180
1F00
7B00
0300
C300
DF00
E300
ENDCHAR
STARTCHAR 30E9
ENCODING 12521
SWIDTH 1040 0
DWIDTH 13 0
BBX 9 12 2 -2
BITMAP
0F00
7F00
6000
1F80
FB00
C300
0E00
0E00
0E00
1C00
1800
2000
ENDCHAR
STARTCHAR 30EA
ENCODING 12522
SWIDTH 1040 0
DWIDTH 13 0
BBX 9 13 2 -2
BITMAP
0E00
C380
7B00
6300
6300
6300
6300
6300
6200
0200
0E00
0C00
3800
ENDCHAR
STARTCHAR 30EB
ENCODING 12523
SWIDTH 1040 0
DWIDTH 13 0
BBX 13 11 0 -1
BITMAP
0700
33C0
1B80
1B80
1B88
1390
33A0
23E0
23C0
4380
8700
ENDCHAR
STARTCHAR 30EC
ENCODING 12524
SWIDTH 1040 0
DWIDTH 13 0
BBX 10 11 2 -1
BITMAP
C000
7800
6000
6000
6040
6080
6300
6200
7E00
7800
4000
ENDCHAR
STARTCHAR 30ED
ENCODING 12525
SWIDTH 1040 0
DWIDTH 13 0
BBX 9 9 1 0
BITMAP
CF80
7180
6180
6700
6700
6700
6780
7F80
6000
ENDCHAR
STARTCHAR 30EE
ENCODING 12526
SWIDTH 1040 0
DWIDTH 13 0
BBX 8 8 3 -2
BITMAP
9F
F6
C6
C4
C4
1C
18
30
ENDCHAR
STARTCHAR 30EF
ENCODING 12527
SWIDTH 1040 0
DWIDTH 13 0
BBX 10 11 1 -2
BITMAP
CF80
7CC0
61C0
6180
6180
0700
0700
0700
0600
0C00
3000
ENDCHAR
STARTCHAR 30F0
ENCODING 12528
SWIDTH 1040 0
DWIDTH 13 0
BBX 11 13 1 -2
BITMAP
0E00
0780
0700
07C0
7FC0
3700
37C0
FFE0
E700
6700
0700
0700
0700
ENDCHAR
STARTCHAR 30F1
ENCODING 12529
SWIDTH 1040 0
DWIDTH 13 0
BBX 11 10 1 -1
BITMAP
0780
7DC0
6700
1E00
0E00
0E00
0EC0
0EC0
FFE0
6000
ENDCHAR
STARTCHAR 30F2
ENCODING 12530
SWIDTH 1040 0
DWIDTH 13 0
BBX 9 11 2 -2
BITMAP
0F00
FD80
E180
1F00
FB00
CE00
CE00
0E00
1C00
1800
6000
ENDCHAR
STARTCHAR 30F3
ENCODING 12531
SWIDTH 1040 0
DWIDTH 13 0
BBX 11 10 1 -1
BITMAP
8000
7000
3020
0040
0080
0700
8600
9E00
7C00
6000
ENDCHAR
STARTCHAR 30F4
ENCODING 12532
SWIDTH 1040 0
DWIDTH 13 0
BBX 12 13 1 -2
BITMAP
3020
1E50
1CF0
DFA0
7180
6180
6180
6700
6700
0700
0E00
0C00
1000
ENDCHAR
STARTCHAR 30F5
ENCODING 12533
SWIDTH 1040 0
DWIDTH 13 0
BBX 8 8 2 -2
BITMAP
38
BF
FB
FB
3B
63
5E
9C
ENDCHAR
STARTCHAR 30F6
ENCODING 12534
SWIDTH 1040 0
DWIDTH 13 0
BBX 9 9 2 -2
BITMAP
3800
3B00
7F80
6E00
EE00
8E00
1C00
1800
2000
ENDCHAR
STARTCHAR 30FB
ENCODING 12539
SWIDTH 1040 0
DWIDTH 13 0
BBX 3 2 5 4
BITMAP
E0
E0
ENDCHAR
STARTCHAR 30FC
ENCODING 12540
SWIDTH 1040 0
DWIDTH 13 0
BBX 13 5 0 2
BITMAP
8000
FFF0
7FF8
2000
2000
ENDCHAR
STARTCHAR 30FD
ENCODING 12541
SWIDTH 1040 0
DWIDTH 13 0
BBX 6 6 3 2
BITMAP
80
70
38
1C
1C
1C
ENDCHAR
STARTCHAR 30FE
ENCODING 12542
SWIDTH 1040 0
DWIDTH 13 0
BBX 9 8 2 2
BITMAP
0200
0D00
8380
6200
3800
1C00
1C00
1C00
ENDCHAR
STARTCHAR 3231
ENCODING 12849
SWIDTH 1040 0
DWIDTH 13 0
BBX 12 12 0 -1
BITMAP
2040
53A0
57E0
BD10
9150
BFF0
9790
D350
9370
5560
5920
2040
ENDCHAR
STARTCHAR 3232
ENCODING 12850
SWIDTH 1040 0
DWIDTH 13 0
BBX 12 12 0 -1
BITMAP
2040
44A0
7FE0
8410
8910
9F90
EF10
C910
8F10
4920
4A20
2040
ENDCHAR
STARTCHAR 3239
ENCODING 12857
SWIDTH 1040 0
DWIDTH 13 0
BBX 12 12 0 -1
BITMAP
2040
4BA0
4AE0
9210
9FF0
B210
D210
9110
9110
5160
50E0
2040
ENDCHAR
STARTCHAR 32A4
ENCODING 12964
SWIDTH 1040 0
DWIDTH 13 0
BBX 12 13 0 -2
BITMAP
0F00
76E0
4420
4420
8510
8790
8410
8410
8490
7FE0
4020
30C0
0F00
ENDCHAR
STARTCHAR 32A5
ENCODING 12965
SWIDTH 1040 0
DWIDTH 13 0
BBX 12 13 0 -2
BITMAP
0F00
76E0
4420
64A0
BFD0
A490
A490
BF90
A490
4420
4420
30C0
0F00
ENDCHAR
STARTCHAR 32A6
ENCODING 12966
SWIDTH 1040 0
DWIDTH 13 0
BBX 12 13 0 -2
BITMAP
0F00
70E0
40A0
7FE0
8410
8410
8790
8490
8410
4420
4420
30C0
0F00
ENDCHAR
STARTCHAR 32A7
ENCODING 12967
SWIDTH 1040 0
DWIDTH 13 0
BBX 12 13 0 -2
BITMAP
0F00
76E0
4420
4480
BFD0
8810
9FD0
9210
A210
42A0
4D20
30C0
0F00
ENDCHAR
STARTCHAR 32A8
ENCODING 12968
SWIDTH 1040 0
DWIDTH 13 0
BBX 12 13 0 -2
BITMAP
0F00
76E0
4420
44A0
BFD0
8810
9F90
A910
C910
4920
4F20
30C0
0F00
ENDCHAR
STARTCHAR 3303
ENCODING 13059
SWIDTH 1040 0
DWIDTH 13 0
BBX 12 12 0 -2
BITMAP
FC00
2800
3200
23F0
2200
4600
5A00
0A00
0A40
1300
1200
2200
ENDCHAR
STARTCHAR 330D
ENCODING 13069
SWIDTH 1040 0
DWIDTH 13 0
BBX 12 13 0 -2
BITMAP
2000
3DF0
E510
2510
4520
4520
B1E0
0C00
4800
4BF0
4800
1000
2000
ENDCHAR
STARTCHAR 3314
ENCODING 13076
SWIDTH 1040 0
DWIDTH 13 0
BBX 12 12 0 -1
BITMAP
2000
2000
3800
E000
2000
2000
F9F0
1110
1110
1120
01E0
0120
ENDCHAR
STARTCHAR 3318
ENCODING 13080
SWIDTH 1040 0
DWIDTH 13 0
BBX 12 13 0 -2
BITMAP
2200
3FE0
4A70
4B80
9020
1020
67C0
C200
0200
0400
0B80
3CC0
1040
ENDCHAR
STARTCHAR 3322
ENCODING 13090
SWIDTH 1040 0
DWIDTH 13 0
BBX 12 13 0 -2
BITMAP
4200
3F80
C410
4800
4260
0180
1E00
1E00
0200
07E0
3200
0400
1800
ENDCHAR
STARTCHAR 3323
ENCODING 13091
SWIDTH 1040 0
DWIDTH 13 0
BBX 12 13 0 -2
BITMAP
4200
3F80
C410
4800
4260
0180
1C00
0400
0400
0600
0480
0400
0400
ENDCHAR
STARTCHAR 3326
ENCODING 13094
SWIDTH 1040 0
DWIDTH 13 0
BBX 11 13 1 -2
BITMAP
8400
8C00
8800
4000
B000
9800
8500
8500
0500
0520
0540
0980
1100
ENDCHAR
STARTCHAR 3327
ENCODING 13095
SWIDTH 1040 0
DWIDTH 13 0
BBX 10 12 2 -1
BITMAP
8000
8000
8000
C000
B000
9800
8600
8040
8080
0880
0F00
0800
ENDCHAR
STARTCHAR 332B
ENCODING 13099
SWIDTH 1040 0
DWIDTH 13 0
BBX 12 12 0 -1
BITMAP
2600
5E00
4800
0BF0
4500
8400
C0C0
4440
7240
D0E0
5350
3A40
ENDCHAR
STARTCHAR 3336
ENCODING 13110
SWIDTH 1040 0
DWIDTH 13 0
BBX 12 13 0 -2
BITMAP
0180
31E0
C920
4620
4640
0280
4200
5060
79A0
50A0
26B0
0120
4220
ENDCHAR
STARTCHAR 333B
ENCODING 13115
SWIDTH 1040 0
DWIDTH 13 0
BBX 12 13 0 -2
BITMAP
0600
3600
2800
C9F0
4480
4600
0840
06A0
1040
0C40
1200
0E00
0800
ENDCHAR
STARTCHAR 3349
ENCODING 13129
SWIDTH 1040 0
DWIDTH 13 0
BBX 12 12 0 -2
BITMAP
7000
1800
0000
4010
21A0
0120
C120
2120
1020
0020
0020
00C0
ENDCHAR
STARTCHAR 334A
ENCODING 13130
SWIDTH 1040 0
DWIDTH 13 0
BBX 12 13 0 -2
BITMAP
3020
0120
3120
0920
0020
6040
0980
0060
55A0
6AA0
56B0
5520
9220
ENDCHAR
STARTCHAR 334D
ENCODING 13133
SWIDTH 1040 0
DWIDTH 13 0
BBX 11 13 1 -2
BITMAP
1800
A000
4400
47E0
A400
B000
8680
8280
8280
62A0
84C0
8480
0800
ENDCHAR
STARTCHAR 3351
ENCODING 13137
SWIDTH 1040 0
DWIDTH 13 0
BBX 10 13 1 -2
BITMAP
1800
9000
9200
9500
9540
2440
4380
4000
4180
6680
5A80
42C0
4480
ENDCHAR
STARTCHAR 3357
ENCODING 13143
SWIDTH 1040 0
DWIDTH 13 0
BBX 10 12 1 -2
BITMAP
FC00
8500
8CC0
0A80
1240
5900
0A00
0800
0C00
0900
0800
0800
ENDCHAR
STARTCHAR 337B
ENCODING 13179
SWIDTH 1040 0
DWIDTH 13 0
BBX 12 10 0 0
BITMAP
0820
7E30
23F0
6A20
6AB0
FFE0
22B0
23B0
2260
2010
ENDCHAR
STARTCHAR 337C
ENCODING 13180
SWIDTH 1040 0
DWIDTH 13 0
BBX 12 10 0 0
BITMAP
3E80
95C0
D730
D530
AFF0
DFB0
D770
D730
9530
1D00
ENDCHAR
STARTCHAR 337D
ENCODING 13181
SWIDTH 1040 0
DWIDTH 13 0
BBX 12 10 0 0
BITMAP
33E0
2880
FC80
2280
22A0
12C0
5280
5280
4AA0
8550
ENDCHAR
STARTCHAR 337E
ENCODING 13182
SWIDTH 1040 0
DWIDTH 13 0
BBX 12 11 0 -1
BITMAP
9D20
D520
D660
DD50
D570
DD80
D570
9750
1550
3D70
09D0
ENDCHAR
STARTCHAR 338E
ENCODING 13198
SWIDTH 1040 0
DWIDTH 13 0
BBX 11 8 1 -1
BITMAP
B1A0
6A40
AA40
A980
A900
ABC0
5220
01C0
ENDCHAR
STARTCHAR 338F
ENCODING 13199
SWIDTH 1040 0
DWIDTH 13 0
BBX 11 11 1 -1
BITMAP
8000
8000
8000
9DA0
8A40
6240
A180
9100
8BC0
4220
01C0
ENDCHAR
STARTCHAR 339C
ENCODING 13212
SWIDTH 1040 0
DWIDTH 13 0
BBX 11 6 1 1
BITMAP
B6C0
6BC0
AAC0
AAC0
AAC0
FFE0
ENDCHAR
STARTCHAR 339D
ENCODING 13213
SWIDTH 1040 0
DWIDTH 13 0
BBX 10 6 2 1
BITMAP
DD80
B780
8580
8580
9580
F7C0
ENDCHAR
STARTCHAR 339E
ENCODING 13214
SWIDTH 1040 0
DWIDTH 13 0
BBX 11 9 1 1
BITMAP
8000
8000
8000
BEC0
93C0
42C0
A2C0
92C0
D3E0
ENDCHAR
STARTCHAR 33A1
ENCODING 13217
SWIDTH 1040 0
DWIDTH 13 0
BBX 9 9 2 1
BITMAP
0300
0080
0180
DA00
B780
9400
9400
9400
FC00
ENDCHAR
STARTCHAR 33C4
ENCODING 13252
SWIDTH 1040 0
DWIDTH 13 0
BBX 9 6 2 1
BITMAP
D380
B480
8400
8400
9480
F780
ENDCHAR
STARTCHAR 33CD
ENCODING 13261
SWIDTH 1040 0
DWIDTH 13 0
BBX 12 11 0 -1
BITMAP
DF60
4A20
4A20
5240
6280
6380
5240
5240
4A20
DF70
0410
ENDCHAR
STARTCHAR 4E00
ENCODING 19968
SWIDTH 1040 0
DWIDTH 13 0
BBX 13 3 0 5
BITMAP
0020
0070
FFF8
ENDCHAR
STARTCHAR 4E01
ENCODING 19969
SWIDTH 1040 0
DWIDTH 13 0
BBX 13 13 0 -2
BITMAP
0030
FFF8
0700
0700
0700
0700
0700
0700
0700
0700
0700
1F00
0E00
ENDCHAR
STARTCHAR 4E03
ENCODING 19971
SWIDTH 1040 0
DWIDTH 13 0
BBX 13 13 0 -2
BITMAP
1E00
1800
1800
1830
18F8
1F80
F800
1800
1820
1820
1820
1FF0
0FF0
ENDCHAR
STARTCHAR 4E07
ENCODING 19975
SWIDTH 1040 0
DWIDTH 13 0
BBX 13 13 0 -2
BITMAP
0030
FFF8
1800
1860
1FF0
1860
1860
1860
1060
1060
30C0
27C0
C380
ENDCHAR
STARTCHAR 4E08
ENCODING 19976
SWIDTH 1040 0
DWIDTH 13 0
BBX 13 13 0 -2
BITMAP
0780
0700
0730
FFF8
0700
1700
1700
0F00
0F00
0700
0EF8
3870
C010
ENDCHAR
STARTCHAR 4E09
ENCODING 19977
SWIDTH 1040 0
DWIDTH 13 0
BBX 13 12 0 -1
BITMAP
0060
7FF0
0000
0000
00C0
3FE0
0000
0000
0000
0000
0030
FFF8
ENDCHAR
STARTCHAR 4E0A
ENCODING 19978
SWIDTH 1040 0
DWIDTH 13 0
BBX 13 12 0 -1
BITMAP
0780
0700
0700
0720
07F0
0700
0700
0700
0700
0700
0730
FFF8
ENDCHAR
STARTCHAR 4E0B
ENCODING 19979
SWIDTH 1040 0
DWIDTH 13 0
BBX 13 13 0 -2
BITMAP
0030
FFF8
0700
0700
07E0
0730
0730
0700
0700
0700
0700
0700
0700
ENDCHAR
STARTCHAR 4E0D
ENCODING 19981
SWIDTH 1040 0
DWIDTH 13 0
BBX 13 13 0 -2
BITMAP
0030
FFF8
0380
0700
0FC0
1F30
3718
C718
C718
0700
0700
0700
0700
ENDCHAR
STARTCHAR 4E0E
ENCODING 19982
SWIDTH 1040 0
DWIDTH 13 0
BBX 13 13 0 -2
BITMAP
1E00
18C0
1FE0
1800
3FE0
30C0
00D0
FFF8
FF80
0380
0380
1F00
0E00
ENDCHAR
STARTCHAR 4E10
ENCODING 19984
SWIDTH 1040 0
DWIDTH 13 0
BBX 13 13 0 -2
BITMAP
0030
FFF8
0700
37E0
3700
3760
7FF0
6060
6060
0060
00C0
07C0
0380
ENDCHAR
STARTCHAR 4E11
ENCODING 19985
SWIDTH 1040 0
DWIDTH 13 0
BBX 13 12 0 -1
BITMAP
00C0
7FE0
0EC0
0EC0
0ED0
FFF8
18C0
18C0
18C0
18C0
18D0
FFF8
ENDCHAR
STARTCHAR 4E14
ENCODING 19988
SWIDTH 1040 0
DWIDTH 13 0
BBX 13 12 0 -1
BITMAP
10C0
1FE0
18C0
18C0
1FC0
18C0
18C0
1FC0
18C0
18C0
18D0
FFF8
ENDCHAR
STARTCHAR 4E15
ENCODING 19989
SWIDTH 1040 0
DWIDTH 13 0
BBX 13 12 0 -1
BITMAP
0030
FFF8
0700
0F80
1F70
2738
C718
0700
0700
0700
0030
FFF8
ENDCHAR
STARTCHAR 4E16
ENCODING 19990
SWIDTH 1040 0
DWIDTH 13 0
BBX 13 13 0 -2
BITMAP
3FF0
3760
3760
3760
FFF8
3760
3760
37E0
3760
3760
3030
3FF8
3000
ENDCHAR
STARTCHAR 4E17
ENCODING 19991
SWIDTH 1040 0
DWIDTH 13 0
BBX 13 13 0 -2
BITMAP
3FF0
3760
3760
3770
FFF8
3760
3760
3760
3760
3760
3760
3FE0
3060
ENDCHAR
STARTCHAR 4E18
ENCODING 19992
SWIDTH 1040 0
DWIDTH 13 0
BBX 13 12 0 -1
BITMAP
00C0
13E0
1F00
1800
1860
1FF0
18C0
18C0
18C0
18C0
18D0
FFF8
ENDCHAR
STARTCHAR 4E19
ENCODING 19993
SWIDTH 1040 0
DWIDTH 13 0
BBX 13 13 0 -2
BITMAP
0030
FFF8
0700
2760
3FF0
3760
37E0
36E0
38E0
3860
3060
33E0
30C0
ENDCHAR
STARTCHAR 4E1E
ENCODING 19998
SWIDTH 1040 0
DWIDTH 13 0
BBX 13 12 0 -1
BITMAP
00C0
3FE0
0380
1760
FFE0
3780
6778
4730
C730
9F10
0E60
7FF0
ENDCHAR
STARTCHAR 4E21
ENCODING 20001
SWIDTH 1040 0
DWIDTH 13 0
BBX 13 13 0 -2
BITMAP
0030
FFF8
0700
4730
7FF8
6730
6730
7770
7770
7FF0
6030
60F0
6060
ENDCHAR
STARTCHAR 4E26
ENCODING 20006
SWIDTH 1040 0
DWIDTH 13 0
BBX 13 12 0 -1
BITMAP
20C0
18C0
1B20
7FF0
9B80
5BB0
5BB0
7BA0
5BE0
5BC0
1BB0
FFF8
ENDCHAR
STARTCHAR 4E2A
ENCODING 20010
SWIDTH 1040 0
DWIDTH 13 0
BBX 13 13 0 -2
BITMAP
0700
0700
0E80
18C0
3778
C730
0700
0700
0700
0700
0700
0700
0700
ENDCHAR
STARTCHAR 4E2D
ENCODING 20013
SWIDTH 1040 0
DWIDTH 13 0
BBX 12 13 1 -2
BITMAP
0F00
0E00
8E60
FFF0
CE60
CE60
CE60
FFE0
CE60
CE60
0E00
0E00
0E00
ENDCHAR
STARTCHAR 4E31
ENCODING 20017
SWIDTH 1040 0
DWIDTH 13 0
BBX 13 13 0 -2
BITMAP
1FC0
1B80
FBB8
DBB0
DBB0
DBB0
DBB0
FBF0
DBB0
DBB0
3380
2380
C380
ENDCHAR
STARTCHAR 4E32
ENCODING 20018
SWIDTH 1040 0
DWIDTH 13 0
BBX 12 13 1 -2
BITMAP
0F00
4EC0
7FE0
6EC0
7FC0
8E60
FFF0
CE60
CE60
FFE0
CE60
0E00
0E00
ENDCHAR
STARTCHAR 4E36
ENCODING 20022
SWIDTH 1040 0
DWIDTH 13 0
BBX 7 8 3 1
BITMAP
80
40
30
38
1C
06
06
06
ENDCHAR
STARTCHAR 4E38
ENCODING 20024
SWIDTH 1040 0
DWIDTH 13 0
BBX 13 13 0 -2
BITMAP
1E00
1800
18C0
FFE0
18C0
D8C0
38C0
1EC0
16D0
16D0
37D0
20F8
C078
ENDCHAR
STARTCHAR 4E39
ENCODING 20025
SWIDTH 1040 0
DWIDTH 13 0
BBX 13 13 0 -2
BITMAP
2060
3FF0
3660
3760
3360
FFF8
3060
3060
3060
3060
3060
23E0
C0C0
ENDCHAR
STARTCHAR 4E3B
ENCODING 20027
SWIDTH 1040 0
DWIDTH 13 0
BBX 13 12 0 -1
BITMAP
0800
0780
0760
7FF0
0700
0740
3FE0
0700
0700
0700
0730
FFF8
ENDCHAR
STARTCHAR 4E3C
ENCODING 20028
SWIDTH 1040 0
DWIDTH 13 0
BBX 13 13 0 -2
BITMAP
1EE0
18C0
18D0
7FF0
1EC0
1FC0
18D0
FFF8
F8C0
18C0
30C0
20C0
C0C0
ENDCHAR
STARTCHAR 4E3F
ENCODING 20031
SWIDTH 1040 0
DWIDTH 13 0
BBX 8 13 1 -2
BITMAP
0F
0E
0E
0E
0E
0E
0E
0E
0C
0C
1C
30
C0
ENDCHAR
STARTCHAR 4E42
ENCODING 20034
SWIDTH 1040 0
DWIDTH 13 0
BBX 13 13 0 -2
BITMAP
20E0
20C0
20C0
1380
1380
0B00
0F00
0600
0F80
0B80
10F8
2070
C010
ENDCHAR
STARTCHAR 4E43
ENCODING 20035
SWIDTH 1040 0
DWIDTH 13 0
BBX 13 13 0 -2
BITMAP
00C0
7FE0
18C0
18C0
1BB0
1BF8
1BB0
1830
1030
1030
3060
23E0
C0C0
ENDCHAR
STARTCHAR 4E45
ENCODING 20037
SWIDTH 1040 0
DWIDTH 13 0
BBX 13 13 0 -2
BITMAP
0F00
0EC0
0FE0
18C0
10C0
2380
4380
0740
0660
0E60
1838
3030
C010
ENDCHAR
STARTCHAR 4E4B
ENCODING 20043
SWIDTH 1040 0
DWIDTH 13 0
BBX 13 13 0 -2
BITMAP
0780
0760
7FF0
0060
00C0
0080
0300
2600
2800
2800
7000
DFF8
4FF8
ENDCHAR
STARTCHAR 4E4D
ENCODING 20045
SWIDTH 1040 0
DWIDTH 13 0
BBX 13 13 0 -2
BITMAP
1E00
1830
3FF8
2700
4740
87E0
0700
0760
0770
07F0
0700
0700
0700
ENDCHAR
STARTCHAR 4E4E
ENCODING 20046
SWIDTH 1040 0
DWIDTH 13 0
BBX 13 13 0 -2
BITMAP
00C0
0FE0
7F60
3740
17B0
FFF8
0700
0700
0700
0700
0700
1F00
0E00
ENDCHAR
STARTCHAR 4E4F
ENCODING 20047
SWIDTH 1040 0
DWIDTH 13 0
BBX 13 13 0 -2
BITMAP
00C0
07E0
7F00
0740
FFE0
00C0
0380
0300
2200
2600
6800
DFF8
4FF8
ENDCHAR
STARTCHAR 4E55
ENCODING 20053
SWIDTH 1040 0
DWIDTH 13 0
BBX 13 13 0 -2
BITMAP
2070
3FE0
3390
3FF8
3390
3FF8
3380
3FF0
3BB0
7BB0
5BB0
9BF0
0380
ENDCHAR
STARTCHAR 4E56
ENCODING 20054
SWIDTH 1040 0
DWIDTH 13 0
BBX 13 13 0 -2
BITMAP
00E0
7FC0
0730
FFF8
0700
3768
F778
3770
3768
3768
F778
B738
0700
ENDCHAR
STARTCHAR 4E57
ENCODING 20055
SWIDTH 1040 0
DWIDTH 13 0
BBX 13 13 0 -2
BITMAP
03C0
3F80
0760
7FF0
3760
FFF8
3760
7FF0
7F80
1F80
3778
2730
C710
ENDCHAR
STARTCHAR 4E58
ENCODING 20056
SWIDTH 1040 0
DWIDTH 13 0
BBX 13 13 0 -2
BITMAP
00E0
7FC0
0730
FFF8
3768
F770
3778
FFB8
9FC0
9F40
3778
2730
C710
ENDCHAR
STARTCHAR 4E59
ENCODING 20057
SWIDTH 1040 0
DWIDTH 13 0
BBX 13 13 0 -2
BITMAP
00C0
FFE0
0380
0700
0E00
1800
3000
2010
2010
6010
4018
7FF8
3FF0
ENDCHAR
STARTCHAR 4E5D
ENCODING 20061
SWIDTH 1040 0
DWIDTH 13 0
BBX 13 13 0 -2
BITMAP
1E00
1800
18C0
FFE0
18C0
18C0
18C0
18C0
10D0
10D0
30D0
20F8
C078
ENDCHAR
STARTCHAR 4E5E
ENCODING 20062
SWIDTH 1040 0
DWIDTH 13 0
BBX 13 13 0 -2
BITMAP
1E00
1830
3FF8
3000
6380
BFC0
0700
0E00
0810
1810
3010
3FF8
1FF8
ENDCHAR
STARTCHAR 4E5F
ENCODING 20063
SWIDTH 1040 0
DWIDTH 13 0
BBX 13 13 0 -2
BITMAP
0780
3F00
3760
37F0
3F60
3760
F7E0
3760
3770
3710
3010
3FF8
1FF8
ENDCHAR
STARTCHAR 4E62
ENCODING 20066
SWIDTH 1040 0
DWIDTH 13 0
BBX 13 13 0 -2
BITMAP
38E0
30C0
B7C0
B6C0
B6C0
B6C0
B6C0
B6C0
B6D0
FED0
86D0
00F8
0078
ENDCHAR
STARTCHAR 4E71
ENCODING 20081
SWIDTH 1040 0
DWIDTH 13 0
BBX 13 13 0 -2
BITMAP
0EE0
1FC0
F8C0
1BC0
FFC0
18C0
58C0
7EC0
6ED0
6ED0
6ED0
7EF8
6E78
ENDCHAR
STARTCHAR 4E73
ENCODING 20083
SWIDTH 1040 0
DWIDTH 13 0
BBX 13 13 0 -2
BITMAP
0EE0
FFC0
A6C0
5EC0
68C0
FFC0
0EC0
1FC0
18D0
F8D0
D8D0
38F8
3078
ENDCHAR
STARTCHAR 4E7E
ENCODING 20094
SWIDTH 1040 0
DWIDTH 13 0
BBX 13 13 0 -2
BITMAP
33C0
FFB0
33F8
FB00
DE60
FFF0
D8C0
FB80
F310
3710
FF10
37F8
33F8
ENDCHAR
STARTCHAR 4E80
ENCODING 20096
SWIDTH 1040 0
DWIDTH 13 0
BBX 13 13 0 -2
BITMAP
0F80
1B40
3FE0
D740
1FC0
3770
3FE0
3760
3770
3FF0
3710
07F8
03F8
ENDCHAR
STARTCHAR 4E82
ENCODING 20098
SWIDTH 1040 0
DWIDTH 13 0
BBX 13 13 0 -2
BITMAP
0E70
FF60
5660
FF60
2E60
FF60
D760
FF60
EF68
EF68
D768
EF78
CF38
ENDCHAR
STARTCHAR 4E85
ENCODING 20101
SWIDTH 1040 0
DWIDTH 13 0
BBX 6 13 3 -2
BITMAP
3C
38
38
38
38
38
38
38
38
38
38
F8
70
ENDCHAR
STARTCHAR 4E86
ENCODING 20102
SWIDTH 1040 0
DWIDTH 13 0
BBX 13 13 0 -2
BITMAP
0030
FFF8
0060
06C0
0700
0700
0700
0700
0700
0700
0700
1F00
0E00
ENDCHAR
STARTCHAR 4E88
ENCODING 20104
SWIDTH 1040 0
DWIDTH 13 0
BBX 13 13 0 -2
BITMAP
00C0
3FE0
0B80
0730
FFF8
0720
0740
0700
0700
0700
0700
1F00
0E00
ENDCHAR
STARTCHAR 4E89
ENCODING 20105
SWIDTH 1040 0
DWIDTH 13 0
BBX 13 13 0 -2
BITMAP
1B80
1F80
3360
3FF0
4768
FFF8
0760
3FE0
3F60
0760
0700
1F00
0E00
ENDCHAR
STARTCHAR 4E8A
ENCODING 20106
SWIDTH 1040 0
DWIDTH 13 0
BBX 13 13 0 -2
BITMAP
0780
0730
FFF8
1740
3FF0
0760
FFF8
0760
0760
3FE0
0760
1F00
0E00
ENDCHAR
STARTCHAR 4E8B
ENCODING 20107
SWIDTH 1040 0
DWIDTH 13 0
BBX 13 13 0 -2
BITMAP
0730
FFF8
3760
3FE0
0760
7FF0
0730
FFF8
FF30
0730
7FF0
0730
0F00
ENDCHAR
STARTCHAR 4E8C
ENCODING 20108
SWIDTH 1040 0
DWIDTH 13 0
BBX 13 10 0 0
BITMAP
00C0
3FE0
0000
0000
0000
0000
0000
0030
0030
FFF8
ENDCHAR
STARTCHAR 4E8E
ENCODING 20110
SWIDTH 1040 0
DWIDTH 13 0
BBX 13 13 0 -2
BITMAP
0060
7FF0
0700
0700
0730
FFF8
0700
0700
0700
0700
0700
1F00
0E00
ENDCHAR
STARTCHAR 4E91
ENCODING 20113
SWIDTH 1040 0
DWIDTH 13 0
BBX 13 13 0 -2
BITMAP
00C0
3FE0
0000
0030
FFF8
0E00
0E00
1880
10C0
1040
17E0
FE30
6030
ENDCHAR
STARTCHAR 4E92
ENCODING 20114
SWIDTH 1040 0
DWIDTH 13 0
BBX 13 12 0 -1
BITMAP
0060
7FF0
0E00
0EC0
0FE0
18C0
18C0
1FC0
1B80
1B80
03B0
FFF8
ENDCHAR
STARTCHAR 4E94
ENCODING 20116
SWIDTH 1040 0
DWIDTH 13 0
BBX 13 12 0 -1
BITMAP
0060
7FF0
0E00
0E00
18C0
7FE0
18C0
18C0
10C0
30C0
30D0
FFF8
ENDCHAR
STARTCHAR 4E95
ENCODING 20117
SWIDTH 1040 0
DWIDTH 13 0
BBX 13 13 0 -2
BITMAP
1EE0
18C0
18D0
7FF0
18C0
18D0
FFF8
18C0
18C0
18C0
30C0
20C0
C0C0
ENDCHAR
STARTCHAR 4E98
ENCODING 20120
SWIDTH 1040 0
DWIDTH 13 0
BBX 13 12 0 -1
BITMAP
0060
7FF0
0000
1FE0
18C0
1FC0
18C0
18C0
18C0
1FC0
0030
FFF8
ENDCHAR
STARTCHAR 4E99
ENCODING 20121
SWIDTH 1040 0
DWIDTH 13 0
BBX 13 12 0 -1
BITMAP
0060
7FF0
1840
1FE0
18C0
1FC0
33C0
3F80
3780
3780
03B0
FFF8
ENDCHAR
STARTCHAR 4E9B
ENCODING 20123
SWIDTH 1040 0
DWIDTH 13 0
BBX 13 12 0 -1
BITMAP
1FD0
FBB0
DFF0
DB90
DFF8
F8F8
C0C0
3FE0
3FE0
0000
0030
FFF8
ENDCHAR
STARTCHAR 4E9C
ENCODING 20124
SWIDTH 1040 0
DWIDTH 13 0
BBX 13 12 0 -1
BITMAP
0030
FFF8
1B80
5BA0
7FF0
5BA0
5BA0
7FE0
5BA0
5BA0
1BB0
FFF8
ENDCHAR
STARTCHAR 4E9E
ENCODING 20126
SWIDTH 1040 0
DWIDTH 13 0
BBX 13 12 0 -1
BITMAP
0060
7FF0
1B80
5BA0
7BF0
6B60
6060
7BE0
5BA0
5BA0
1BB0
FFF8
ENDCHAR
STARTCHAR 4E9F
ENCODING 20127
SWIDTH 1040 0
DWIDTH 13 0
BBX 13 12 0 -1
BITMAP
0060
7FF0
0E00
0E60
9FF0
F760
D7C0
F760
97B8
9FB8
0E30
FFF8
ENDCHAR
STARTCHAR 4EA0
ENCODING 20128
SWIDTH 1040 0
DWIDTH 13 0
BBX 13 4 0 4
BITMAP
0780
0700
0730
FFF8
ENDCHAR
STARTCHAR 4EA1
ENCODING 20129
SWIDTH 1040 0
DWIDTH 13 0
BBX 13 12 0 -1
BITMAP
0780
0700
0730
FFF8
1800
1800
1800
1800
1800
1800
1FF0
0FF0
ENDCHAR
STARTCHAR 4EA2
ENCODING 20130
SWIDTH 1040 0
DWIDTH 13 0
BBX 13 13 0 -2
BITMAP
0780
0730
FFF8
0000
1FC0
1B80
1B80
1B80
1B90
1B90
3390
23F8
C0F8
ENDCHAR
STARTCHAR 4EA4
ENCODING 20132
SWIDTH 1040 0
DWIDTH 13 0
BBX 13 13 0 -2
BITMAP
0780
0730
FFF8
1840
30B0
28F8
CB80
0780
0700
0700
0EF8
3070
C010
ENDCHAR
STARTCHAR 4EA5
ENCODING 20133
SWIDTH 1040 0
DWIDTH 13 0
BBX 13 13 0 -2
BITMAP
0780
0730
FFF8
0E80
3380
0F60
0E60
18C0
7880
6380
0760
1830
6030
ENDCHAR
STARTCHAR 4EA6
ENCODING 20134
SWIDTH 1040 0
DWIDTH 13 0
BBX 13 13 0 -2
BITMAP
0780
0730
FFF8
18C0
58E0
78D0
58D8
58D8
D0D8
90C0
30C0
27C0
4380
ENDCHAR
STARTCHAR 4EA8
ENCODING 20136
SWIDTH 1040 0
DWIDTH 13 0
BBX 13 13 0 -2
BITMAP
0710
FFF8
18C0
1FC0
0020
7FF0
0660
0780
0700
0700
0700
1F00
0E00
ENDCHAR
STARTCHAR 4EAB
ENCODING 20139
SWIDTH 1040 0
DWIDTH 13 0
BBX 13 13 0 -2
BITMAP
0710
FFF8
18C0
1FC0
0040
3FE0
00D0
FFF8
FF00
0700
0700
1F00
0E00
ENDCHAR
STARTCHAR 4EAC
ENCODING 20140
SWIDTH 1040 0
DWIDTH 13 0
BBX 13 13 0 -2
BITMAP
0710
FFF8
0000
3FE0
30C0
30C0
3FC0
2740
3770
7730
6718
9F18
0E00
ENDCHAR
STARTCHAR 4EAD
ENCODING 20141
SWIDTH 1040 0
DWIDTH 13 0
BBX 13 13 0 -2
BITMAP
0720
7FF0
18C0
1FC0
4030
FFF8
C010
3FE0
3F00
0700
0700
1F00
0E00
ENDCHAR
STARTCHAR 4EAE
ENCODING 20142
SWIDTH 1040 0
DWIDTH 13 0
BBX 13 13 0 -2
BITMAP
0710
FFF8
18C0
1FC0
4010
FFF8
C030
1BC0
1B90
1B90
1B90
33F8
C0F8
ENDCHAR
STARTCHAR 4EB0
ENCODING 20144
SWIDTH 1040 0
DWIDTH 13 0
BBX 13 13 0 -2
BITMAP
0780
0730
FFF8
18C0
1FC0
18C0
1FC0
3780
3760
3760
6738
9F18
0E00
ENDCHAR
STARTCHAR 4EB3
ENCODING 20147
SWIDTH 1040 0
DWIDTH 13 0
BBX 13 13 0 -2
BITMAP
0780
0760
7FF0
18C0
7FF8
C0D0
FF80
0E60
0E70
7FF0
0E10
0FF8
07F8
ENDCHAR
STARTCHAR 4EB6
ENCODING 20150
SWIDTH 1040 0
DWIDTH 13 0
BBX 13 12 0 -1
BITMAP
0780
0760
7FF0
3760
3F60
3060
3FE0
18C0
18C0
1FC0
18D0
FFF8
ENDCHAR
STARTCHAR 4EBA
ENCODING 20154
SWIDTH 1040 0
DWIDTH 13 0
BBX 13 13 0 -2
BITMAP
0780
0700
0700
0700
0700
0780
0E80
0EC0
0EC0
0E40
1878
3030
C010
ENDCHAR
STARTCHAR 4EC0
ENCODING 20160
SWIDTH 1040 0
DWIDTH 13 0
BBX 13 13 0 -2
BITMAP
3BC0
3380
3380
63B0
7FF8
E380
6380
6380
6380
6380
6380
6380
6380
ENDCHAR
STARTCHAR 4EC1
ENCODING 20161
SWIDTH 1040 0
DWIDTH 13 0
BBX 13 13 0 -2
BITMAP
3800
3060
37F0
6000
6000
E000
6000
6000
6000
6000
6030
6FF8
6000
ENDCHAR
STARTCHAR 4EC2
ENCODING 20162
SWIDTH 1040 0
DWIDTH 13 0
BBX 13 13 0 -2
BITMAP
3F80
3700
3730
7FF8
6730
6730
E730
6730
6630
6630
6E60
6BE0
70C0
ENDCHAR
STARTCHAR 4EC4
ENCODING 20164
SWIDTH 1040 0
DWIDTH 13 0
BBX 13 13 0 -2
BITMAP
2060
3FF0
3000
33C0
3380
3380
3380
2740
2740
6740
4E78
9830
6010
ENDCHAR
STARTCHAR 4EC6
ENCODING 20166
SWIDTH 1040 0
DWIDTH 13 0
BBX 13 13 0 -2
BITMAP
1FC0
1B80
1B80
3380
33C0
73B0
B398
3398
3398
3380
3380
3380
3380
ENDCHAR
STARTCHAR 4EC7
ENCODING 20167
SWIDTH 1040 0
DWIDTH 13 0
BBX 13 13 0 -2
BITMAP
3F80
3700
3760
7FF0
6760
6760
E760
6760
6760
6760
6668
6E78
7038
ENDCHAR
STARTCHAR 4ECA
ENCODING 20170
SWIDTH 1040 0
DWIDTH 13 0
BBX 13 13 0 -2
BITMAP
0700
0700
0E80
18C0
3378
DFB0
0050
3FE0
3FC0
00C0
0380
0380
0700
ENDCHAR
STARTCHAR 4ECB
ENCODING 20171
SWIDTH 1040 0
DWIDTH 13 0
BBX 13 13 0 -2
BITMAP
0700
0F00
0E80
18F8
3070
DED0
18C0
18C0
18C0
18C0
30C0
30C0
C0C0
ENDCHAR
STARTCHAR 4ECD
ENCODING 20173
SWIDTH 1040 0
DWIDTH 13 0
BBX 13 13 0 -2
BITMAP
30C0
3FE0
3EC0
2EC0
6ED0
6EF8
EEB0
6E30
6E30
6E30
6860
6BE0
70C0
ENDCHAR
STARTCHAR 4ECE
ENCODING 20174
SWIDTH 1040 0
DWIDTH 13 0
BBX 13 13 0 -2
BITMAP
3BC0
3380
3380
3380
3380
3380
3740
3F40
2760
2760
6E38
4830
B010
ENDCHAR
STARTCHAR 4ECF
ENCODING 20175
SWIDTH 1040 0
DWIDTH 13 0
BBX 13 13 0 -2
BITMAP
3B00
33C0
3380
6380
6380
E380
6340
6720
6630
6630
66F0
7F98
6E18
ENDCHAR
STARTCHAR 4ED4
ENCODING 20180
SWIDTH 1040 0
DWIDTH 13 0
BBX 13 13 0 -2
BITMAP
3060
3FF0
3360
63C0
63B0
FFF8
6380
6380
6380
6380
6380
6F80
6700
ENDCHAR
STARTCHAR 4ED5
ENCODING 20181
SWIDTH 1040 0
DWIDTH 13 0
BBX 13 13 0 -2
BITMAP
3BC0
3380
3380
63B0
7FF8
E380
6380
6380
6380
6380
63A0
6FF0
6000
ENDCHAR
STARTCHAR 4ED6
ENCODING 20182
SWIDTH 1040 0
DWIDTH 13 0
BBX 13 13 0 -2
BITMAP
30C0
3F80
2EB0
6EF8
6FB0
EEB0
7EB0
6EF0
6EB0
6EB0
6E08
6FF8
67F8
ENDCHAR
STARTCHAR 4ED7
ENCODING 20183
SWIDTH 1040 0
DWIDTH 13 0
BBX 13 13 0 -2
BITMAP
3BC0
3380
33B0
7FF8
6B80
6B80
E780
6700
6780
6780
66F8
6870
7010
ENDCHAR
STARTCHAR 4ED8
ENCODING 20184
SWIDTH 1040 0
DWIDTH 13 0
BBX 13 13 0 -2
BITMAP
3870
3060
3068
7FF8
6060
EE60
6760
6760
6760
6060
6060
63E0
60C0
ENDCHAR
STARTCHAR 4ED9
ENCODING 20185
SWIDTH 1040 0
DWIDTH 13 0
BBX 13 13 0 -2
BITMAP
3BC0
3380
3380
6FB8
6BB0
EBB0
6BB0
6BB0
6BB0
6BB0
6BB0
6FF0
6830
ENDCHAR
STARTCHAR 4EDD
ENCODING 20189
SWIDTH 1040 0
DWIDTH 13 0
BBX 13 12 0 -1
BITMAP
0700
0700
0E80
08C0
1078
20B0
DFD0
0700
0700
0700
0730
FFF8
ENDCHAR
STARTCHAR 4EDE
ENCODING 20190
SWIDTH 1040 0
DWIDTH 13 0
BBX 13 13 0 -2
BITMAP
3800
3030
3FF8
6730
7730
6F30
E7B0
67B0
66B0
6670
6E60
6BE0
70C0
ENDCHAR
STARTCHAR 4EDF
ENCODING 20191
SWIDTH 1040 0
DWIDTH 13 0
BBX 13 13 0 -2
BITMAP
3860
33F0
3F80
6380
63B0
7FF8
E380
6380
6380
6380
6380
6380
6380
ENDCHAR
STARTCHAR 4EE3
ENCODING 20195
SWIDTH 1040 0
DWIDTH 13 0
BBX 13 13 0 -2
BITMAP
1EC0
18F0
18D0
3FF8
30C0
70C0
B0C0
3060
3068
3068
3030
3038
3018
ENDCHAR
STARTCHAR 4EE4
ENCODING 20196
SWIDTH 1040 0
DWIDTH 13 0
BBX 13 13 0 -2
BITMAP
0600
0F00
0880
1340
3FF8
C030
3FE0
0E60
0E60
0E60
0FE0
0EC0
0E00
ENDCHAR
STARTCHAR 4EE5
ENCODING 20197
SWIDTH 1040 0
DWIDTH 13 0
BBX 13 13 0 -2
BITMAP
7070
6060
6E60
6760
6760
6060
6060
6360
7F60
7E60
F0D0
C398
0E18
ENDCHAR
STARTCHAR 4EED
ENCODING 20205
SWIDTH 1040 0
DWIDTH 13 0
BBX 13 13 0 -2
BITMAP
3800
3030
3FF8
63B0
6BB0
6BB0
E730
67F0
6778
6778
6678
6BE0
70C0
ENDCHAR
STARTCHAR 4EEE
ENCODING 20206
SWIDTH 1040 0
DWIDTH 13 0
BBX 13 13 0 -2
BITMAP
3630
3FF8
3700
3760
67F0
6760
E7E0
66C0
66E0
6EE0
6BB8
7330
6E10
ENDCHAR
STARTCHAR 4EF0
ENCODING 20208
SWIDTH 1040 0
DWIDTH 13 0
BBX 13 13 0 -2
BITMAP
3B00
37B0
3FF8
6BB0
6BB0
EBB0
6BB0
6BB0
6BB0
7FF0
7BB0
6380
6380
ENDCHAR
STARTCHAR 4EF2
ENCODING 20210
SWIDTH 1040 0
DWIDTH 13 0
BBX 13 13 0 -2
BITMAP
3BC0
3380
3BB0
6FF8
6BB0
EBB0
6BB0
6FF0
6BB0
6BB0
6380
6380
6380
ENDCHAR
STARTCHAR 4EF6
ENCODING 20214
SWIDTH 1040 0
DWIDTH 13 0
BBX 13 13 0 -2
BITMAP
3EE0
37C0
36D0
6FF0
68C0
F0D0
7FF8
60C0
60C0
60C0
60C0
60C0
60C0
ENDCHAR
STARTCHAR 4EF7
ENCODING 20215
SWIDTH 1040 0
DWIDTH 13 0
BBX 13 13 0 -2
BITMAP
3B80
3380
3740
6678
6E30
7770
E760
6760
6760
6760
6660
6E60
7060
ENDCHAR
STARTCHAR 4EFB
ENCODING 20219
SWIDTH 1040 0
DWIDTH 13 0
BBX 13 13 0 -2
BITMAP
3860
33F0
3F80
6380
63B0
FFF8
6380
6380
6380
6380
63A0
6FF0
6000
ENDCHAR
STARTCHAR 4F01
ENCODING 20225
SWIDTH 1040 0
DWIDTH 13 0
BBX 13 12 0 -1
BITMAP
0700
0F00
08C0
1F78
2730
F750
37E0
3700
3700
3700
3730
FFF8
ENDCHAR
STARTCHAR 4F09
ENCODING 20233
SWIDTH 1040 0
DWIDTH 13 0
BBX 13 13 0 -2
BITMAP
3BC0
33B0
3FF8
6000
6660
67F0
E760
6760
6768
6768
6668
6E78
7038
ENDCHAR
STARTCHAR 4F0A
ENCODING 20234
SWIDTH 1040 0
DWIDTH 13 0
BBX 13 13 0 -2
BITMAP
3030
3FF8
33B0
3FF8
63B0
63B0
FFF0
63B0
63B0
6380
6700
6600
7800
ENDCHAR
STARTCHAR 4F0D
ENCODING 20237
SWIDTH 1040 0
DWIDTH 13 0
BBX 13 13 0 -2
BITMAP
3060
3FF0
3380
6380
63A0
FFF0
6760
6760
6760
6760
6760
7FF8
6000
ENDCHAR
STARTCHAR 4F0E
ENCODING 20238
SWIDTH 1040 0
DWIDTH 13 0
BBX 13 13 0 -2
BITMAP
38E0
30D0
3FF8
60C0
60C0
EFF0
6660
6660
6640
63C0
63F8
6730
7810
ENDCHAR
STARTCHAR 4F0F
ENCODING 20239
SWIDTH 1040 0
DWIDTH 13 0
BBX 13 13 0 -2
BITMAP
3BC0
33B0
33B0
7FF8
6380
E380
6740
6740
6660
6660
6638
6830
7010
ENDCHAR
STARTCHAR 4F10
ENCODING 20240
SWIDTH 1040 0
DWIDTH 13 0
BBX 13 13 0 -2
BITMAP
3BC0
33A0
33B0
63F8
7F80
E3B0
60B0
60E0
60E8
60E8
63B0
6E38
6018
ENDCHAR
STARTCHAR 4F11
ENCODING 20241
SWIDTH 1040 0
DWIDTH 13 0
BBX 13 13 0 -2
BITMAP
3BC0
3380
33B0
7FF8
63C0
67C0
E7A0
6FB8
6BB0
6BB0
7390
6380
6380
ENDCHAR
STARTCHAR 4F1A
ENCODING 20250
SWIDTH 1040 0
DWIDTH 13 0
BBX 13 13 0 -2
BITMAP
0700
0F00
0E80
1860
3FF8
C0B0
3FE0
0E00
0880
1880
1060
FFF0
7030
ENDCHAR
STARTCHAR 4F1C
ENCODING 20252
SWIDTH 1040 0
DWIDTH 13 0
BBX 13 13 0 -2
BITMAP
3F80
3760
3FF0
6760
6678
7838
E3C0
63B0
63B8
7FF8
6380
6380
6380
ENDCHAR
STARTCHAR 4F1D
ENCODING 20253
SWIDTH 1040 0
DWIDTH 13 0
BBX 13 13 0 -2
BITMAP
3860
37F0
3000
6030
7FF8
E380
6380
6340
6360
6720
6670
7F98
6E18
ENDCHAR
STARTCHAR 4F2F
ENCODING 20271
SWIDTH 1040 0
DWIDTH 13 0
BBX 13 13 0 -2
BITMAP
3BC0
3380
3B30
6FF8
6E30
EE30
6FF0
6E30
6E30
6E30
6E30
6FF0
6E30
ENDCHAR
STARTCHAR 4F30
ENCODING 20272
SWIDTH 1040 0
DWIDTH 13 0
BBX 13 13 0 -2
BITMAP
3BC0
3380
33B0
7FF8
6380
6380
EBA0
6FF0
6E60
6E60
6E60
6FE0
6E60
ENDCHAR
STARTCHAR 4F34
ENCODING 20276
SWIDTH 1040 0
DWIDTH 13 0
BBX 13 13 0 -2
BITMAP
33C0
3BB0
37A0
67D0
7FF0
E380
63B0
7FF8
6380
6380
6380
6380
6380
ENDCHAR
STARTCHAR 4F36
ENCODING 20278
SWIDTH 1040 0
DWIDTH 13 0
BBX 13 13 0 -2
BITMAP
3B80
3380
3740
6638
6FF0
F010
6FF8
6730
6730
6730
67F0
6760
6700
ENDCHAR
STARTCHAR 4F38
ENCODING 20280
SWIDTH 1040 0
DWIDTH 13 0
BBX 13 13 0 -2
BITMAP
3BC0
33B0
3FF8
6BB0
6FF0
EBB0
6BB0
6FF0
6BB0
6BB0
6380
6380
6380
ENDCHAR
STARTCHAR 4F3A
ENCODING 20282
SWIDTH 1040 0
DWIDTH 13 0
BBX 13 13 0 -2
BITMAP
3030
3FF8
30B0
6FB0
6030
EFB0
6EB0
6EB0
6EB0
6FB0
6EB0
60F0
6060
ENDCHAR
STARTCHAR 4F3C
ENCODING 20284
SWIDTH 1040 0
DWIDTH 13 0
BBX 13 13 0 -2
BITMAP
2F38
3E30
2F30
6EB0
6EF0
EEB0
6E30
6EB0
6FA0
6F60
7E70
68D8
6718
ENDCHAR
STARTCHAR 4F3D
ENCODING 20285
SWIDTH 1040 0
DWIDTH 13 0
BBX 13 13 0 -2
BITMAP
3780
3700
3758
7FF8
6B58
6B58
EB58
6B58
6B58
6B58
6B58
7F78
6E58
ENDCHAR
STARTCHAR 4F43
ENCODING 20291
SWIDTH 1040 0
DWIDTH 13 0
BBX 13 13 0 -2
BITMAP
3030
3FF8
2EB0
6EB0
6EB0
EFF0
6EB0
6EB0
6EB0
6EB0
6EB0
6FF0
6E30
ENDCHAR
STARTCHAR 4F46
ENCODING 20294
SWIDTH 1040 0
DWIDTH 13 0
BBX 13 13 0 -2
BITMAP
3E60
37F0
3760
6760
67E0
E760
6760
67E0
6760
6760
6030
7FF8
6000
ENDCHAR
STARTCHAR 4F47
ENCODING 20295
SWIDTH 1040 0
DWIDTH 13 0
BBX 13 13 0 -2
BITMAP
38E0
36D0
37F8
6E30
6E20
7FF8
E0C0
60C0
60C0
60C0
60C0
67C0
6380
ENDCHAR
STARTCHAR 4F4D
ENCODING 20301
SWIDTH 1040 0
DWIDTH 13 0
BBX 13 13 0 -2
BITMAP
33C0
3380
33B0
7FF0
6840
6660
E760
6740
6740
67C0
60B0
7FF8
6000
ENDCHAR
STARTCHAR 4F4E
ENCODING 20302
SWIDTH 1040 0
DWIDTH 13 0
BBX 13 13 0 -2
BITMAP
3060
38F0
2FC0
6ED0
6FF8
EEC0
6EC0
6EE0
6F68
7F68
78B0
67F8
6018
ENDCHAR
STARTCHAR 4F4F
ENCODING 20303
SWIDTH 1040 0
DWIDTH 13 0
BBX 13 13 0 -2
BITMAP
3B00
33C0
30A0
7FF0
6380
E3A0
6FF0
6380
6380
6380
6390
7FF8
6000
ENDCHAR
STARTCHAR 4F50
ENCODING 20304
SWIDTH 1040 0
DWIDTH 13 0
BBX 13 13 0 -2
BITMAP
3BC0
3380
33B0
7FF8
6700
E760
6FF0
6B80
7380
7380
63B0
7FF8
6000
ENDCHAR
STARTCHAR 4F51
ENCODING 20305
SWIDTH 1040 0
DWIDTH 13 0
BBX 13 13 0 -2
BITMAP
3BC0
33B0
3FF8
6380
6700
E730
6FF8
7730
6730
6730
6730
67F0
6730
ENDCHAR
STARTCHAR 4F53
ENCODING 20307
SWIDTH 1040 0
DWIDTH 13 0
BBX 13 13 0 -2
BITMAP
3BC0
3380
33B0
7FF8
6780
E7C0
6FE0
6BB8
6BB0
7FF0
6390
6380
6380
ENDCHAR
STARTCHAR 4F55
ENCODING 20309
SWIDTH 1040 0
DWIDTH 13 0
BBX 13 13 0 -2
BITMAP
3030
3FF8
3030
6BB0
6FB0
6BB0
EBB0
6FB0
6BB0
6BB0
6030
60F0
6060
ENDCHAR
STARTCHAR 4F57
ENCODING 20311
SWIDTH 1040 0
DWIDTH 13 0
BBX 13 13 0 -2
BITMAP
3BC0
33B0
3FF8
6820
7F80
6730
E770
67C0
6710
6710
6710
67F8
63F8
ENDCHAR
STARTCHAR 4F59
ENCODING 20313
SWIDTH 1040 0
DWIDTH 13 0
BBX 13 13 0 -2
BITMAP
0600
0F00
0880
1060
3FF8
C710
7FF0
2700
3760
3760
6730
9F30
0E00
ENDCHAR
STARTCHAR 4F5A
ENCODING 20314
SWIDTH 1040 0
DWIDTH 13 0
BBX 13 13 0 -2
BITMAP
33C0
3FA0
3FF0
6B80
73B0
7FF8
E380
63C0
6340
6740
6778
6630
7810
ENDCHAR
STARTCHAR 4F5B
ENCODING 20315
SWIDTH 1040 0
DWIDTH 13 0
BBX 13 13 0 -2
BITMAP
2EE0
3ED0
3FF8
6ED0
6FF0
6EC0
FFF8
6ED0
6ED0
6EF0
6ED0
68C0
70C0
ENDCHAR
STARTCHAR 4F5C
ENCODING 20316
SWIDTH 1040 0
DWIDTH 13 0
BBX 13 13 0 -2
BITMAP
3BC0
33B0
37F8
6780
6BA0
F3F0
6380
63B0
63B8
63F8
6380
6380
6380
ENDCHAR
STARTCHAR 4F5D
ENCODING 20317
SWIDTH 1040 0
DWIDTH 13 0
BBX 13 13 0 -2
BITMAP
3780
3730
3FF8
6E30
7FB0
6EB0
EEB0
6FB0
6EB0
6EB0
6060
63E0
60C0
ENDCHAR
STARTCHAR 4F5E
ENCODING 20318
SWIDTH 1040 0
DWIDTH 13 0
BBX 13 13 0 -2
BITMAP
3860
37F0
3030
7FF8
6380
63B0
FFF8
6760
6740
6EC0
63C0
6770
7E30
ENDCHAR
STARTCHAR 4F69
ENCODING 20329
SWIDTH 1040 0
DWIDTH 13 0
BBX 13 13 0 -2
BITMAP
3030
3FF8
3E30
6FF0
6EB0
6EB0
EFF0
6EB0
6EB8
6EB8
6EF0
6EB8
7098
ENDCHAR
STARTCHAR 4F6F
ENCODING 20335
SWIDTH 1040 0
DWIDTH 13 0
BBX 13 13 0 -2
BITMAP
3760
3340
3FF0
6380
63A0
6FE0
E380
63B0
63B8
7FF8
6380
6380
6380
ENDCHAR
STARTCHAR 4F70
ENCODING 20336
SWIDTH 1040 0
DWIDTH 13 0
BBX 13 13 0 -2
BITMAP
3030
3FF8
3380
6B30
6FF8
6E30
EE30
6FF0
6E30
6E30
6E30
6FF0
6E30
ENDCHAR
STARTCHAR 4F73
ENCODING 20339
SWIDTH 1040 0
DWIDTH 13 0
BBX 13 13 0 -2
BITMAP
3BC0
33A0
3FE0
6380
7FF0
6380
E3A0
6FF0
6F80
6380
63B0
7FF8
6000
ENDCHAR
STARTCHAR 4F75
ENCODING 20341
SWIDTH 1040 0
DWIDTH 13 0
BBX 13 13 0 -2
BITMAP
3F60
3350
3FF8
6760
6768
FFF8
6760
6760
6760
6760
6660
6860
7060
ENDCHAR
STARTCHAR 4F76
ENCODING 20342
SWIDTH 1040 0
DWIDTH 13 0
BBX 13 13 0 -2
BITMAP
3BC0
33B0
3FF8
6380
63A0
6FF0
E000
6FF0
6E60
6E60
6E60
6FE0
6E60
ENDCHAR
STARTCHAR 4F7B
ENCODING 20347
SWIDTH 1040 0
DWIDTH 13 0
BBX 13 13 0 -2
BITMAP
3FF0
3760
3768
7F78
6F70
6760
FF70
7778
6768
6768
6668
6E78
7038
ENDCHAR
STARTCHAR 4F7C
ENCODING 20348
SWIDTH 1040 0
DWIDTH 13 0
BBX 13 13 0 -2
BITMAP
3BC0
33B0
3FF8
6740
6630
6E58
F360
63C0
6380
6080
63F8
6730
7810
ENDCHAR
STARTCHAR 4F7F
ENCODING 20351
SWIDTH 1040 0
DWIDTH 13 0
BBX 13 13 0 -2
BITMAP
3BC0
33B0
3FF8
6380
6FF0
EBB0
6FF0
6BB0
6BB0
6780
67F8
6E70
7010
ENDCHAR
STARTCHAR 4F83
ENCODING 20355
SWIDTH 1040 0
DWIDTH 13 0
BBX 13 13 0 -2
BITMAP
3E60
37F0
3760
3760
67E0
6000
EF70
6B60
6B60
6B60
6B68
6B78
7038
ENDCHAR
STARTCHAR 4F86
ENCODING 20358
SWIDTH 1040 0
DWIDTH 13 0
BBX 13 13 0 -2
BITMAP
0780
0730
FFF8
6760
6760
5F58
4F98
9F80
9740
1740
3778
C730
0710
ENDCHAR
STARTCHAR 4F88
ENCODING 20360
SWIDTH 1040 0
DWIDTH 13 0
BBX 13 13 0 -2
BITMAP
3BC0
33A0
37E0
7EC0
6380
67B0
FBF8
6330
6320
6FE0
60C0
6380
7E00
ENDCHAR
STARTCHAR 4F8B
ENCODING 20363
SWIDTH 1040 0
DWIDTH 13 0
BBX 13 13 0 -2
BITMAP
3338
3FF0
6EB0
6EB0
6FB0
EBB0
6FB0
77B0
6730
6730
6630
68F0
7060
ENDCHAR
STARTCHAR 4F8D
ENCODING 20365
SWIDTH 1040 0
DWIDTH 13 0
BBX 13 13 0 -2
BITMAP
38E0
30C0
37F0
60D0
7FF8
E060
6FF8
6660
6760
6760
6360
60E0
60C0
ENDCHAR
STARTCHAR 4F8F
ENCODING 20367
SWIDTH 1040 0
DWIDTH 13 0
BBX 13 13 0 -2
BITMAP
33C0
3BA0
3FF0
6B80
73B0
7FF8
E7C0
6FA0
6BB8
6BB8
6BB0
7390
6380
ENDCHAR
STARTCHAR 4F91
ENCODING 20369
SWIDTH 1040 0
DWIDTH 13 0
BBX 13 13 0 -2
BITMAP
3BC0
33B0
3FF8
6700
67F8
6F30
EFF0
7730
6730
67F0
6730
6770
6760
ENDCHAR
STARTCHAR 4F96
ENCODING 20374
SWIDTH 1040 0
DWIDTH 13 0
BBX 13 13 0 -2
BITMAP
0700
0F00
0880
1FE0
2038
FFF0
6B60
7FE0
6B60
6B60
6B60
6BE0
60C0
ENDCHAR
STARTCHAR 4F98
ENCODING 20376
SWIDTH 1040 0
DWIDTH 13 0
BBX 13 13 0 -2
BITMAP
3BC0
33B0
3FF8
6E10
78E0
6FC0
E3B0
7FF8
6380
6380
6390
63F8
60F8
ENDCHAR
STARTCHAR 4F9B
ENCODING 20379
SWIDTH 1040 0
DWIDTH 13 0
BBX 13 13 0 -2
BITMAP
3FF0
3760
3760
7FF0
6760
6760
E768
7FF8
6640
6640
6F30
6E18
7018
ENDCHAR
STARTCHAR 4F9D
ENCODING 20381
SWIDTH 1040 0
DWIDTH 13 0
BBX 13 13 0 -2
BITMAP
33C0
33B0
3FF8
6380
6730
E7B0
6F60
7740
6760
6760
67B8
6F30
6E10
ENDCHAR
STARTCHAR 4FA0
ENCODING 20384
SWIDTH 1040 0
DWIDTH 13 0
BBX 13 13 0 -2
BITMAP
3BC0
33A0
3FF0
6BB0
6FA0
6BD0
FFF8
6380
6340
6740
6778
6E30
7010
ENDCHAR
STARTCHAR 4FA1
ENCODING 20385
SWIDTH 1040 0
DWIDTH 13 0
BBX 13 13 0 -2
BITMAP
3030
3FF8
3760
6760
6FF8
6EB0
EEB0
6EB0
6EB0
6EB0
6EB0
6FF0
6E30
ENDCHAR
STARTCHAR 4FAB
ENCODING 20395
SWIDTH 1040 0
DWIDTH 13 0
BBX 13 13 0 -2
BITMAP
3BC0
33B0
3FF8
6700
67F0
63F0
E390
7FF8
6760
6760
6F40
63E0
7E30
ENDCHAR
STARTCHAR 4FAD
ENCODING 20397
SWIDTH 1040 0
DWIDTH 13 0
BBX 13 13 0 -2
BITMAP
3E60
37F0
3760
6760
67E0
E740
6660
6FB8
68B0
68F0
7710
60C0
6060
ENDCHAR
STARTCHAR 4FAE
ENCODING 20398
SWIDTH 1040 0
DWIDTH 13 0
BBX 13 13 0 -2
BITMAP
3BC0
33B0
37F8
6E20
77F0
E768
7FF8
6760
6768
6768
6FF8
6E60
63C0
ENDCHAR
STARTCHAR 4FAF
ENCODING 20399
SWIDTH 1040 0
DWIDTH 13 0
BBX 13 13 0 -2
BITMAP
3860
37F0
3060
7FF8
6720
6FF0
EB90
7FF8
6380
6380
6778
6630
7810
ENDCHAR
STARTCHAR 4FB5
ENCODING 20405
SWIDTH 1040 0
DWIDTH 13 0
BBX 13 13 0 -2
BITMAP
3860
37F0
3060
67E0
6870
EFF8
7830
6FE0
6E60
6660
63C0
6778
7830
ENDCHAR
STARTCHAR 4FB6
ENCODING 20406
SWIDTH 1040 0
DWIDTH 13 0
BBX 13 13 0 -2
BITMAP
3E60
37F0
3760
6760
67E0
E380
6B30
6FF8
6E30
6E30
6E30
6FF0
6E30
ENDCHAR
STARTCHAR 4FBF
ENCODING 20415
SWIDTH 1040 0
DWIDTH 13 0
BBX 13 13 0 -2
BITMAP
3030
3FF8
3380
6FF0
6BB0
EFF0
6BB0
6FF0
6F80
6780
63F8
6770
7810
ENDCHAR
STARTCHAR 4FC2
ENCODING 20418
SWIDTH 1040 0
DWIDTH 13 0
BBX 13 13 0 -2
BITMAP
3860
33F0
3F60
66C0
63A0
7FF8
FB98
63C0
63B0
6FB0
6B98
7398
6380
ENDCHAR
STARTCHAR 4FC3
ENCODING 20419
SWIDTH 1040 0
DWIDTH 13 0
BBX 13 13 0 -2
BITMAP
3E30
37F8
3730
6730
67F0
E0C0
6FD0
6EF0
6EC0
6EC0
6EC0
6BF8
70F8
ENDCHAR
STARTCHAR 4FC4
ENCODING 20420
SWIDTH 1040 0
DWIDTH 13 0
BBX 13 13 0 -2
BITMAP
36E0
37F0
3ED8
6ED0
7FF8
EED0
7FD8
7ED8
6ED0
6E70
6E68
7EB8
6B18
ENDCHAR
STARTCHAR 4FCA
ENCODING 20426
SWIDTH 1040 0
DWIDTH 13 0
BBX 13 13 0 -2
BITMAP
3B80
3720
3FF0
66D0
6EF8
EB78
7740
67E0
66C0
7EC0
63F8
6770
7810
ENDCHAR
STARTCHAR 4FCE
ENCODING 20430
SWIDTH 1040 0
DWIDTH 13 0
BBX 13 12 0 -1
BITMAP
7660
67F0
7760
5F60
9FE0
6760
6760
77E0
5760
5F60
9760
3FF8
ENDCHAR
STARTCHAR 4FD0
ENCODING 20432
SWIDTH 1040 0
DWIDTH 13 0
BBX 13 13 0 -2
BITMAP
3BB8
37B0
3EB0
6EB0
7FB0
6EB0
EFB0
7EB0
6EB0
6EB0
6E30
6EF0
6E60
ENDCHAR
STARTCHAR 4FD1
ENCODING 20433
SWIDTH 1040 0
DWIDTH 13 0
BBX 13 13 0 -2
BITMAP
3860
3FF0
3360
68B0
6FF8
6EB0
EFF0
6EB0
6EB0
6FF0
6EB0
6EB0
6EB0
ENDCHAR
STARTCHAR 4FD4
ENCODING 20436
SWIDTH 1040 0
DWIDTH 13 0
BBX 13 13 0 -2
BITMAP
3E60
37F0
3760
67E0
6760
67E0
E760
67E0
66D0
66D0
6ED0
6EF8
7078
ENDCHAR
STARTCHAR 4FD7
ENCODING 20439
SWIDTH 1040 0
DWIDTH 13 0
BBX 13 13 0 -2
BITMAP
3740
3720
3630
6B98
7380
E760
6638
6FF0
7F60
7760
6760
67E0
6760
ENDCHAR
STARTCHAR 4FD8
ENCODING 20440
SWIDTH 1040 0
DWIDTH 13 0
BBX 13 13 0 -2
BITMAP
3060
3FF0
36A0
6340
7FF0
60C0
E3B0
7FF8
6380
6380
6380
6F80
6700
ENDCHAR
STARTCHAR 4FDA
ENCODING 20442
SWIDTH 1040 0
DWIDTH 13 0
BBX 13 13 0 -2
BITMAP
3820
3FF0
3BA0
6FE0
6BA0
6FE0
EBA0
63A0
63B0
6FF0
6390
7FF8
6000
ENDCHAR
STARTCHAR 4FDB
ENCODING 20443
SWIDTH 1040 0
DWIDTH 13 0
BBX 13 13 0 -2
BITMAP
3B80
33F0
3760
6FF0
7EB0
6EB0
EFF0
66C0
66D0
67D0
6ED0
68F8
7078
ENDCHAR
STARTCHAR 4FDD
ENCODING 20445
SWIDTH 1040 0
DWIDTH 13 0
BBX 13 13 0 -2
BITMAP
3E60
37F0
3760
6760
67E0
E3B0
7FF8
67C0
67E0
6FE0
6BB8
73B0
6390
ENDCHAR
STARTCHAR 4FDF
ENCODING 20447
SWIDTH 1040 0
DWIDTH 13 0
BBX 13 13 0 -2
BITMAP
3B80
3320
3FF0
77B0
6E40
6FE0
F3B0
7FF8
6380
6380
6740
6678
7830
ENDCHAR
STARTCHAR 4FE1
ENCODING 20449
SWIDTH 1040 0
DWIDTH 13 0
BBX 13 13 0 -2
BITMAP
37E0
3030
3FF8
6040
6FE0
E040
6FE0
6820
6830
6FF0
6E60
6FE0
6E60
ENDCHAR
STARTCHAR 4FE3
ENCODING 20451
SWIDTH 1040 0
DWIDTH 13 0
BBX 13 13 0 -2
BITMAP
3E60
37F0
3760
67E0
6020
EFF0
6390
7FF8
6380
6380
6778
6630
7810
ENDCHAR
STARTCHAR 4FE4
ENCODING 20452
SWIDTH 1040 0
DWIDTH 13 0
BBX 13 13 0 -2
BITMAP
3760
3350
3FF8
63B0
6FF0
6B80
EFF8
7BB0
6BB0
67B0
6FF0
73A0
6380
ENDCHAR
STARTCHAR 4FE5
ENCODING 20453
SWIDTH 1040 0
DWIDTH 13 0
BBX 13 13 0 -2
BITMAP
33A0
3FF0
3380
6FF0
6BA0
6FE0
EBA0
6FE0
6F90
6390
7FF8
6380
6380
ENDCHAR
STARTCHAR 4FEE
ENCODING 20462
SWIDTH 1040 0
DWIDTH 13 0
BBX 13 13 0 -2
BITMAP
3BC0
33B0
37F8
6F60
68C0
EF78
6890
6F60
6858
68D8
6F30
6060
6780
ENDCHAR
STARTCHAR 4FEF
ENCODING 20463
SWIDTH 1040 0
DWIDTH 13 0
BBX 13 13 0 -2
BITMAP
3BC0
33B0
3FF8
6EB0
6EB0
6FF8
EBB0
6F70
6F70
6F70
7730
67F0
6760
ENDCHAR
STARTCHAR 4FF3
ENCODING 20467
SWIDTH 1040 0
DWIDTH 13 0
BBX 13 13 0 -2
BITMAP
3FF0
3768
3F78
6760
6768
FF78
6760
6768
6768
7F78
7660
6660
7860
ENDCHAR
STARTCHAR 4FF5
ENCODING 20469
SWIDTH 1040 0
DWIDTH 13 0
BBX 13 13 0 -2
BITMAP
33A0
3FF0
3380
6FE0
6390
FFF8
6730
6EA0
6EC0
7E40
6EF8
7F30
6E10
ENDCHAR
STARTCHAR 4FF6
ENCODING 20470
SWIDTH 1040 0
DWIDTH 13 0
BBX 13 13 0 -2
BITMAP
3780
3F30
37F8
67B0
6770
7FF0
E720
6FE0
6F60
6F60
7778
6FD0
6E90
ENDCHAR
STARTCHAR 4FF8
ENCODING 20472
SWIDTH 1040 0
DWIDTH 13 0
BBX 13 13 0 -2
BITMAP
33A0
3FF0
3380
6FE0
6750
FFF8
6BA0
6FF8
7390
7390
6FF0
6380
6380
ENDCHAR
STARTCHAR 4FFA
ENCODING 20474
SWIDTH 1040 0
DWIDTH 13 0
BBX 13 13 0 -2
BITMAP
3BC0
33B0
3FF8
6740
6FF8
7BB0
EFE0
6BA0
6BB0
6FF0
6B90
63F8
60F8
ENDCHAR
STARTCHAR 4FFE
ENCODING 20478
SWIDTH 1040 0
DWIDTH 13 0
BBX 13 13 0 -2
BITMAP
3B80
3730
3FF8
6EB0
6FF0
6EB0
EFF0
66C0
66D0
6ED0
7FF8
60C0
60C0
ENDCHAR
STARTCHAR 5005
ENCODING 20485
SWIDTH 1040 0
DWIDTH 13 0
BBX 13 13 0 -2
BITMAP
3BC0
33A0
3FF0
6E60
6E60
6B50
F398
7FF8
6380
6380
6380
6380
6380
ENDCHAR
STARTCHAR 5006
ENCODING 20486
SWIDTH 1040 0
DWIDTH 13 0
BBX 13 13 0 -2
BITMAP
3030
3FF8
3380
6BB0
6FF8
6BB0
EFF0
6BB0
6BB0
6BB0
6FF0
6BB0
6BB0
ENDCHAR
STARTCHAR 5009
ENCODING 20489
SWIDTH 1040 0
DWIDTH 13 0
BBX 13 13 0 -2
BITMAP
0700
0E80
1FC0
38F8
DFF0
18D0
1FC0
3000
3FE0
3FE0
58C0
9FC0
18C0
ENDCHAR
STARTCHAR 500B
ENCODING 20491
SWIDTH 1040 0
DWIDTH 13 0
BBX 13 13 0 -2
BITMAP
2830
3FF8
3EB0
6EB0
6FF0
EEB0
6FF0
6F70
6F70
6FF0
6E30
6FF0
6E30
ENDCHAR
STARTCHAR 500D
ENCODING 20493
SWIDTH 1040 0
DWIDTH 13 0
BBX 13 13 0 -2
BITMAP
3BC0
33A0
3FF0
6660
6750
FFF8
6000
67F0
6760
6760
6760
67E0
6760
ENDCHAR
STARTCHAR 500F
ENCODING 20495
SWIDTH 1040 0
DWIDTH 13 0
BBX 13 13 0 -2
BITMAP
3B80
33F0
3760
6EC0
6BB8
6EF0
E8D0
6FF8
68C0
68C0
6BB8
6330
6E10
ENDCHAR
STARTCHAR 5011
ENCODING 20497
SWIDTH 1040 0
DWIDTH 13 0
BBX 13 13 0 -2
BITMAP
38B0
3FF8
2EB0
6FF0
6EB0
6FF0
EE30
6E30
6E30
6E30
6E30
6EF0
6E60
ENDCHAR
STARTCHAR 5012
ENCODING 20498
SWIDTH 1040 0
DWIDTH 13 0
BBX 13 13 0 -2
BITMAP
33B8
3FF0
2EB0
6BB0
7FB0
EEB0
6EB0
7FB0
6E30
6E30
6FB0
7EF0
6860
ENDCHAR
STARTCHAR 5014
ENCODING 20500
SWIDTH 1040 0
DWIDTH 13 0
BBX 13 13 0 -2
BITMAP
3030
3FF8
3E30
6FF0
6ED8
6ED0
EED0
6FF8
6ED0
6ED0
7ED0
6FF0
6E10
ENDCHAR
STARTCHAR 5016
ENCODING 20502
SWIDTH 1040 0
DWIDTH 13 0
BBX 13 13 0 -2
BITMAP
3BC0
33A0
3FF0
6390
7FF8
E660
6750
7FF8
63A0
63A0
6FF0
6380
6380
ENDCHAR
STARTCHAR 5019
ENCODING 20505
SWIDTH 1040 0
DWIDTH 13 0
BBX 13 13 0 -2
BITMAP
3860
37F0
3060
6FF8
6B20
6BF0
EED0
6FF8
68C0
68C0
6BB8
6330
6E10
ENDCHAR
STARTCHAR 501A
ENCODING 20506
SWIDTH 1040 0
DWIDTH 13 0
BBX 13 13 0 -2
BITMAP
3BC0
33A0
3FF0
6760
6E30
7FF8
E030
6FB0
6EB0
6EB0
6FB0
6EF0
6060
ENDCHAR
STARTCHAR 501F
ENCODING 20511
SWIDTH 1040 0
DWIDTH 13 0
BBX 13 13 0 -2
BITMAP
3FF0
3760
3FF8
6760
7FF8
E000
67F0
6760
6760
67E0
6760
67E0
6760
ENDCHAR
STARTCHAR 5021
ENCODING 20513
SWIDTH 1040 0
DWIDTH 13 0
BBX 13 13 0 -2
BITMAP
3FF0
3760
37E0
6760
67E0
6830
EFF8
6E30
6E30
6FF0
6E30
6FF0
6E30
ENDCHAR
STARTCHAR 5023
ENCODING 20515
SWIDTH 1040 0
DWIDTH 13 0
BBX 13 13 0 -2
BITMAP
3770
3760
3FE8
68F8
6BB0
EFB0
6BF0
6BA0
6BB0
6BB0
6BD8
77D0
6710
ENDCHAR
STARTCHAR 5024
ENCODING 20516
SWIDTH 1040 0
DWIDTH 13 0
BBX 13 13 0 -2
BITMAP
38E0
30D0
3FF8
60C0
6FF0
EBB0
6BF0
6BB0
6BB0
6BF0
6BB0
6FF8
6800
ENDCHAR
STARTCHAR 5025
ENCODING 20517
SWIDTH 1040 0
DWIDTH 13 0
BBX 13 13 0 -2
BITMAP
3BC0
33B0
3FF8
6B50
7F78
6E78
E020
6FF0
6F80
6380
63B0
7FF8
6000
ENDCHAR
STARTCHAR 5026
ENCODING 20518
SWIDTH 1040 0
DWIDTH 13 0
BBX 13 13 0 -2
BITMAP
3BF0
37A0
3FF0
6390
7FF8
E740
6FF8
68F0
78D0
77D0
6720
67F0
63F0
ENDCHAR
STARTCHAR 5028
ENCODING 20520
SWIDTH 1040 0
DWIDTH 13 0
BBX 13 13 0 -2
BITMAP
3030
3FF8
3E30
6FF0
6ED0
6FF8
EEC0
6ED0
6ED8
6FF8
7730
67F0
6730
ENDCHAR
STARTCHAR 5029
ENCODING 20521
SWIDTH 1040 0
DWIDTH 13 0
BBX 13 13 0 -2
BITMAP
33A0
3FF0
3380
6FE0
63B0
7FF8
EE60
6FE0
6E60
6E60
6FE0
6E60
6EE0
ENDCHAR
STARTCHAR 502A
ENCODING 20522
SWIDTH 1040 0
DWIDTH 13 0
BBX 13 13 0 -2
BITMAP
3380
33B0
3F78
6E30
6F70
6E30
EFF0
66C0
66D0
67D0
6ED0
68F8
7078
ENDCHAR
STARTCHAR 502B
ENCODING 20523
SWIDTH 1040 0
DWIDTH 13 0
BBX 13 13 0 -2
BITMAP
3B80
33C0
3720
67F8
6830
FFF8
6EB0
6EB0
6EB0
6FF0
6EB0
6EB0
6E70
ENDCHAR
STARTCHAR 502C
ENCODING 20524
SWIDTH 1040 0
DWIDTH 13 0
BBX 13 13 0 -2
BITMAP
3BA0
33F0
3B80
6FF0
6E60
6FE0
EE60
6FE0
6FB0
63B0
7FF8
6380
6380
ENDCHAR
STARTCHAR 502D
ENCODING 20525
SWIDTH 1040 0
DWIDTH 13 0
BBX 13 13 0 -2
BITMAP
38E0
37C0
33B0
7FF8
6FE0
EBB8
7390
7FF8
6760
6760
7EC0
67F0
7E30
ENDCHAR
STARTCHAR 5036
ENCODING 20534
SWIDTH 1040 0
DWIDTH 13 0
BBX 13 13 0 -2
BITMAP
3E60
37F0
3760
67E0
6760
67E0
E760
6760
6778
7FF8
6640
6730
7838
ENDCHAR
STARTCHAR 5039
ENCODING 20537
SWIDTH 1040 0
DWIDTH 13 0
BBX 13 13 0 -2
BITMAP
3B80
33C0
3720
67F8
7BB0
EFF0
6BB0
6FF0
6B80
6B80
6778
6630
7810
ENDCHAR
STARTCHAR 5043
ENCODING 20547
SWIDTH 1040 0
DWIDTH 13 0
BBX 13 13 0 -2
BITMAP
3860
3FF0
2E60
6FE0
6E60
6FE0
EEB0
6FF8
6F60
6F60
6EB0
6FF8
6E00
ENDCHAR
STARTCHAR 5047
ENCODING 20551
SWIDTH 1040 0
DWIDTH 13 0
BBX 13 13 0 -2
BITMAP
38B0
3FF8
2EB0
6FF0
6EB0
6E90
EFF8
6EB0
6EA0
6FE0
6E60
6E78
6F90
ENDCHAR
STARTCHAR 5048
ENCODING 20552
SWIDTH 1040 0
DWIDTH 13 0
BBX 13 13 0 -2
BITMAP
3FE0
3760
37E0
6760
67E0
6730
E7F8
6EB0
6EB0
7FB0
6EB0
67E0
60C0
ENDCHAR
STARTCHAR 5049
ENCODING 20553
SWIDTH 1040 0
DWIDTH 13 0
BBX 13 13 0 -2
BITMAP
3380
3FF0
3760
7FF8
6E60
6FE0
E0D0
6FF0
6EC0
6EC0
7FF8
60C0
60C0
ENDCHAR
STARTCHAR 504F
ENCODING 20559
SWIDTH 1040 0
DWIDTH 13 0
BBX 13 13 0 -2
BITMAP
3030
3FF8
6E60
6FE0
6E30
EFF8
6EB0
6EB0
6EB0
7FF0
6EB0
6EB0
6EF0
ENDCHAR
STARTCHAR 5050
ENCODING 20560
SWIDTH 1040 0
DWIDTH 13 0
BBX 13 13 0 -2
BITMAP
38E0
30D0
3FF8
6320
6FF8
6EC0
EFB0
6E60
6BF0
6BB0
6E60
70C0
6700
ENDCHAR
STARTCHAR 5055
ENCODING 20565
SWIDTH 1040 0
DWIDTH 13 0
BBX 13 13 0 -2
BITMAP
3EE0
3ED0
2FF0
6ED0
6FF8
7EB8
F7E0
6760
6760
67E0
6760
67E0
6760
ENDCHAR
STARTCHAR 5056
ENCODING 20566
SWIDTH 1040 0
DWIDTH 13 0
BBX 13 13 0 -2
BITMAP
3BC0
33B0
3FE0
63D0
7FF8
6380
E7F0
6F60
7760
77E0
6760
67E0
6760
ENDCHAR
STARTCHAR 505A
ENCODING 20570
SWIDTH 1040 0
DWIDTH 13 0
BBX 13 13 0 -2
BITMAP
37F0
3760
3760
7FF8
67B0
6770
EFF0
6EE0
6EA0
6EA0
6FF8
68B0
6710
ENDCHAR
STARTCHAR 505C
ENCODING 20572
SWIDTH 1040 0
DWIDTH 13 0
BBX 13 13 0 -2
BITMAP
33A0
3FF0
3760
67E0
6830
EFF8
7810
6FF0
6F80
6380
6380
6F80
6700
ENDCHAR
STARTCHAR 5065
ENCODING 20581
SWIDTH 1040 0
DWIDTH 13 0
BBX 13 13 0 -2
BITMAP
38E0
36D0
3FF8
6ED0
6BF8
FED0
6FF0
7EC8
6EC8
6FF8
68C0
6FF8
73F8
ENDCHAR
STARTCHAR 506C
ENCODING 20588
SWIDTH 1040 0
DWIDTH 13 0
BBX 13 13 0 -2
BITMAP
3780
3730
3FF8
6BB0
66B0
7B30
E6E0
7B60
6B50
6BD0
6B98
6BF8
70E0
ENDCHAR
STARTCHAR 5072
ENCODING 20594
SWIDTH 1040 0
DWIDTH 13 0
BBX 13 13 0 -2
BITMAP
3030
3FF8
2EB0
6FF0
6EB0
EFF0
6EB0
63E0
6BB0
6BB0
6F98
7BF8
70E0
ENDCHAR
STARTCHAR 5074
ENCODING 20596
SWIDTH 1040 0
DWIDTH 13 0
BBX 13 13 0 -2
BITMAP
33B8
3FF0
3BB0
6FB0
6BB0
EFB0
6BB0
6FB0
6EB0
66B0
6F30
6BF0
7360
ENDCHAR
STARTCHAR 5075
ENCODING 20597
SWIDTH 1040 0
DWIDTH 13 0
BBX 13 13 0 -2
BITMAP
38D0
30F8
36C0
67F8
6730
E7F0
6730
67F0
6730
6730
67F0
6738
7E18
ENDCHAR
STARTCHAR 5076
ENCODING 20598
SWIDTH 1040 0
DWIDTH 13 0
BBX 13 13 0 -2
BITMAP
3E60
37F0
3760
67E0
6760
E7E0
6BB0
6FF8
6BB0
6BB0
6FF0
6E30
6870
ENDCHAR
STARTCHAR 5078
ENCODING 20600
SWIDTH 1040 0
DWIDTH 13 0
BBX 13 13 0 -2
BITMAP
3B80
33C0
3720
6FF8
7030
6FF0
EBB0
6FB0
6BB0
6BB0
6FB0
6BF0
6BA0
ENDCHAR
STARTCHAR 507D
ENCODING 20605
SWIDTH 1040 0
DWIDTH 13 0
BBX 13 13 0 -2
BITMAP
3EE0
36C0
3FE0
6EC0
6FF0
EE60
6FF8
6EB0
68B0
7BF0
6FB0
6EF0
6060
ENDCHAR
STARTCHAR 5080
ENCODING 20608
SWIDTH 1040 0
DWIDTH 13 0
BBX 13 13 0 -2
BITMAP
3B80
3730
3FF8
6BB0
6FF0
6BB0
EFF0
66D0
66D0
67F0
6EC8
68F8
7078
ENDCHAR
STARTCHAR 5085
ENCODING 20613
SWIDTH 1040 0
DWIDTH 13 0
BBX 13 13 0 -2
BITMAP
3BE0
33B0
3FF8
6BB0
6FF0
6BB0
EFF0
6060
6078
7FF8
6E60
66E0
60C0
ENDCHAR
STARTCHAR 508D
ENCODING 20621
SWIDTH 1040 0
DWIDTH 13 0
BBX 13 13 0 -2
BITMAP
3BC0
33B0
3FF8
6760
6FF8
EB90
7FF8
6380
63F0
67F0
6760
6EE0
70C0
ENDCHAR
STARTCHAR 5091
ENCODING 20625
SWIDTH 1040 0
DWIDTH 13 0
BBX 13 13 0 -2
BITMAP
3730
37B0
3BF8
6FB0
77F8
EFB0
73B0
7FF8
67C0
67C0
6FB8
6BB0
7390
ENDCHAR
STARTCHAR 5098
ENCODING 20632
SWIDTH 1040 0
DWIDTH 13 0
BBX 13 13 0 -2
BITMAP
0700
0F80
3778
F770
2FA0
7770
3760
4FB0
4FB8
FFF8
0700
0700
0700
ENDCHAR
STARTCHAR 5099
ENCODING 20633
SWIDTH 1040 0
DWIDTH 13 0
BBX 13 13 0 -2
BITMAP
3760
3FF0
3768
6FF8
6E10
EFF8
6EB0
6FF0
6EB0
6EB0
6FF0
76B0
66F0
ENDCHAR
STARTCHAR 509A
ENCODING 20634
SWIDTH 1040 0
DWIDTH 13 0
BBX 13 13 0 -2
BITMAP
3770
3760
3FE0
6F78
6BB0
7BB0
EF70
6660
6760
6F20
6BF8
70D0
6090
ENDCHAR
STARTCHAR 50AC
ENCODING 20652
SWIDTH 1040 0
DWIDTH 13 0
BBX 13 13 0 -2
BITMAP
36D0
36D0
37F0
6760
6FF8
EEC0
7FF0
6EC0
6EF0
6FF0
6ED0
6FF8
6E00
ENDCHAR
STARTCHAR 50AD
ENCODING 20653
SWIDTH 1040 0
DWIDTH 13 0
BBX 13 13 0 -2
BITMAP
30D0
3FF8
6ED0
6FF8
6ED0
EFF0
6EC0
6FF0
6ED0
6ED0
6FF0
76D0
66F0
ENDCHAR
STARTCHAR 50B2
ENCODING 20658
SWIDTH 1040 0
DWIDTH 13 0
BBX 13 13 0 -2
BITMAP
3770
3FE0
3760
3FF8
67B0
7FF0
EE70
6FA0
6BB0
6BB0
6BF8
7F50
6690
ENDCHAR
STARTCHAR 50B3
ENCODING 20659
SWIDTH 1040 0
DWIDTH 13 0
BBX 13 13 0 -2
BITMAP
33B0
3FF8
3380
6FF0
6BB0
6FF0
EBB0
7FF8
7668
7668
6760
60E0
60C0
ENDCHAR
STARTCHAR 50B4
ENCODING 20660
SWIDTH 1040 0
DWIDTH 13 0
BBX 13 13 0 -2
BITMAP
3030
3FF8
3EA0
6EF0
6EA0
6EA0
EFF8
6EB0
6EB0
6FF0
6EB0
6FF8
6800
ENDCHAR
STARTCHAR 50B5
ENCODING 20661
SWIDTH 1040 0
DWIDTH 13 0
BBX 13 13 0 -2
BITMAP
33A0
3FF0
3380
6FE0
6390
FFF8
6760
67E0
6760
6760
67E0
6738
7E18
ENDCHAR
STARTCHAR 50B7
ENCODING 20663
SWIDTH 1040 0
DWIDTH 13 0
BBX 13 13 0 -2
BITMAP
3B90
37F8
37B0
6BF0
73B0
FFF8
6710
67F8
6B70
7B70
66B0
6B70
6660
ENDCHAR
STARTCHAR 50BE
ENCODING 20670
SWIDTH 1040 0
DWIDTH 13 0
BBX 13 13 0 -2
BITMAP
3830
3FF8
30C0
6BF8
6BB0
6FF0
EBB0
6FF0
6FB0
67B0
63F0
63B8
6F18
ENDCHAR
STARTCHAR 50C2
ENCODING 20674
SWIDTH 1040 0
DWIDTH 13 0
BBX 13 13 0 -2
BITMAP
38C0
37F0
36D0
7FF8
66D0
67F0
E6D0
7FF8
6760
6760
6EC0
63E0
7F30
ENDCHAR
STARTCHAR 50C5
ENCODING 20677
SWIDTH 1040 0
DWIDTH 13 0
BBX 13 13 0 -2
BITMAP
3F60
3770
3FF8
6760
6FF0
6BB0
EFF0
6380
63F0
6FF0
6380
7FF8
6000
ENDCHAR
STARTCHAR 50C9
ENCODING 20681
SWIDTH 1040 0
DWIDTH 13 0
BBX 13 13 0 -2
BITMAP
0700
0F00
0880
1FC0
2038
FBF0
5B60
7BE0
73C0
30C0
30C0
2EB0
C718
ENDCHAR
STARTCHAR 50CA
ENCODING 20682
SWIDTH 1040 0
DWIDTH 13 0
BBX 13 13 0 -2
BITMAP
3030
3FF8
3340
6FF0
6EB0
7FF8
E740
6FF8
68D0
78D0
67C0
6730
63F0
ENDCHAR
STARTCHAR 50CD
ENCODING 20685
SWIDTH 1040 0
DWIDTH 13 0
BBX 13 13 0 -2
BITMAP
33C0
3F80
2EB0
7FF8
6EB0
FFB0
6EB0
7FB0
6EB0
6EB0
7FB0
6EF0
7F60
ENDCHAR
STARTCHAR 50CF
ENCODING 20687
SWIDTH 1040 0
DWIDTH 13 0
BBX 13 13 0 -2
BITMAP
3B80
33E0
3740
6FF0
6EB0
EFF0
6730
7BE0
6FE0
6EE0
6378
6FD0
6090
ENDCHAR
STARTCHAR 50D1
ENCODING 20689
SWIDTH 1040 0
DWIDTH 13 0
BBX 13 13 0 -2
BITMAP
30E0
3FC0
33B0
7FF8
6760
6FF8
FB50
6FF8
6EB0
6EB0
6FB0
6EF0
6E60
ENDCHAR
STARTCHAR 50D5
ENCODING 20693
SWIDTH 1040 0
DWIDTH 13 0
BBX 13 13 0 -2
BITMAP
3B50
3760
3FF8
66C0
6FF0
E380
6FE0
6390
6398
7FF8
6380
6778
7830
ENDCHAR
STARTCHAR 50D6
ENCODING 20694
SWIDTH 1040 0
DWIDTH 13 0
BBX 13 13 0 -2
BITMAP
3BC0
33B0
3FF8
6380
6FF0
6760
E7E0
6350
6358
7FF8
6760
67E0
6760
ENDCHAR
STARTCHAR 50DA
ENCODING 20698
SWIDTH 1040 0
DWIDTH 13 0
BBX 13 13 0 -2
BITMAP
30D0
3FF8
3B50
67E0
6F78
F7F0
6760
67E0
66D0
6ED0
68D8
77D8
6380
ENDCHAR
STARTCHAR 50DE
ENCODING 20702
SWIDTH 1040 0
DWIDTH 13 0
BBX 13 13 0 -2
BITMAP
3030
3FF0
36A0
67E0
6760
67F0
E730
67F8
66B0
66B0
6F70
6B70
7060
ENDCHAR
STARTCHAR 50E3
ENCODING 20707
SWIDTH 1040 0
DWIDTH 13 0
BBX 13 13 0 -2
BITMAP
3760
3FF0
3760
7FF8
6F60
6BD8
F7E8
6760
6760
67E0
6760
67E0
6760
ENDCHAR
STARTCHAR 50E5
ENCODING 20709
SWIDTH 1040 0
DWIDTH 13 0
BBX 13 13 0 -2
BITMAP
3B80
37E0
3380
7FF0
6E60
7FF0
EE60
7FF8
76C0
76C0
6ED0
6EF8
7078
ENDCHAR
STARTCHAR 50E7
ENCODING 20711
SWIDTH 1040 0
DWIDTH 13 0
BBX 13 13 0 -2
BITMAP
3760
3350
3FF8
6EB0
6FF0
EEB0
6FF0
6760
6760
67E0
6760
67E0
6760
ENDCHAR
STARTCHAR 50ED
ENCODING 20717
SWIDTH 1040 0
DWIDTH 13 0
BBX 13 13 0 -2
BITMAP
3760
3FF8
3760
7FF8
6EA0
6BB8
F7F8
6760
6760
67E0
6760
67E0
6760
ENDCHAR
STARTCHAR 50EE
ENCODING 20718
SWIDTH 1040 0
DWIDTH 13 0
BBX 13 13 0 -2
BITMAP
33A0
3FF0
3660
6750
7FF8
6BA0
EFE0
6BA0
6BB0
7FF0
6380
7FF8
6000
ENDCHAR
STARTCHAR 50F5
ENCODING 20725
SWIDTH 1040 0
DWIDTH 13 0
BBX 13 13 0 -2
BITMAP
3030
3FF8
3820
6FF0
6BA0
7FF8
EBA0
6FE0
6BA0
6BA0
6FE0
6030
7FF8
ENDCHAR
STARTCHAR 50F9
ENCODING 20729
SWIDTH 1040 0
DWIDTH 13 0
BBX 13 13 0 -2
BITMAP
3030
3FF8
3340
6FF0
6EB0
6FF0
E760
67E0
6760
6760
67E0
6730
7E38
ENDCHAR
STARTCHAR 50FB
ENCODING 20731
SWIDTH 1040 0
DWIDTH 13 0
BBX 13 13 0 -2
BITMAP
3370
3F60
3BF8
6BD0
6F70
EBF8
6B60
6F68
6B68
7BF8
6B60
6F60
6B60
ENDCHAR
STARTCHAR 5100
ENCODING 20736
SWIDTH 1040 0
DWIDTH 13 0
BBX 13 13 0 -2
BITMAP
3760
3FF0
3380
6FE0
6390
FFF8
66F0
7ED0
6ED8
6FF8
7ED0
6E78
6FB8
ENDCHAR
STARTCHAR 5101
ENCODING 20737
SWIDTH 1040 0
DWIDTH 13 0
BBX 13 13 0 -2
BITMAP
33B0
3760
3FF0
6F40
77F0
6740
E7F8
6E30
6E38
6FF8
6EB0
6EB0
6E70
ENDCHAR
STARTCHAR 5102
ENCODING 20738
SWIDTH 1040 0
DWIDTH 13 0
BBX 13 13 0 -2
BITMAP
3340
3FF0
6EB0
6FF0
6EB0
6FF8
EE10
6FF8
6BB0
6BB0
6B60
77B8
6710
ENDCHAR
STARTCHAR 5104
ENCODING 20740
SWIDTH 1040 0
DWIDTH 13 0
BBX 13 13 0 -2
BITMAP
30C0
3FF0
3768
3FF8
6760
67E0
E760
67E0
6BD0
6BD0
6BA8
7BF8
70F0
ENDCHAR
STARTCHAR 5109
ENCODING 20745
SWIDTH 1040 0
DWIDTH 13 0
BBX 13 13 0 -2
BITMAP
3B80
3380
3760
67F8
6810
7FF0
EBB0
6FF0
6F60
6760
6F60
6BD0
7398
ENDCHAR
STARTCHAR 5112
ENCODING 20754
SWIDTH 1040 0
DWIDTH 13 0
BBX 13 13 0 -2
BITMAP
3060
3FF0
3390
7FF8
6BB0
E7A0
7FF8
6710
6718
6FF8
6EB0
6EB0
6EF0
ENDCHAR
STARTCHAR 5114
ENCODING 20756
SWIDTH 1040 0
DWIDTH 13 0
BBX 13 13 0 -2
BITMAP
33B0
3FF0
33B0
7FF8
63B0
6FF0
E390
7FF8
6EB0
6EB0
6FB0
6EF0
6060
ENDCHAR
STARTCHAR 5115
ENCODING 20757
SWIDTH 1040 0
DWIDTH 13 0
BBX 13 13 0 -2
BITMAP
30D0
3FF8
3358
7FF0
6EA0
68B8
F7E8
6760
6760
67E0
6760
6660
7860
ENDCHAR
STARTCHAR 5116
ENCODING 20758
SWIDTH 1040 0
DWIDTH 13 0
BBX 13 13 0 -2
BITMAP
3360
3FD0
2EF8
6F80
6EA0
6FF0
E000
6FF0
6EB0
6EB0
6EB0
7FF8
6000
ENDCHAR
STARTCHAR 5118
ENCODING 20760
SWIDTH 1040 0
DWIDTH 13 0
BBX 13 13 0 -2
BITMAP
3380
3FF0
33B0
7FF8
63B0
7FF8
EB50
7BF8
6BF0
6FF0
6EB0
7FF8
6000
ENDCHAR
STARTCHAR 511A
ENCODING 20762
SWIDTH 1040 0
DWIDTH 13 0
BBX 13 13 0 -2
BITMAP
3350
3FF8
3340
6FF0
6EB0
6FF8
FB30
67E0
66C0
6EC0
7380
6700
7800
ENDCHAR
STARTCHAR 511F
ENCODING 20767
SWIDTH 1040 0
DWIDTH 13 0
BBX 13 13 0 -2
BITMAP
36D0
3FF8
3BB0
67E0
6760
E7E0
6760
67E0
6760
6760
67E0
6738
7E18
ENDCHAR
STARTCHAR 5121
ENCODING 20769
SWIDTH 1040 0
DWIDTH 13 0
BBX 13 13 0 -2
BITMAP
3FF0
36A0
37E0
66A0
67E0
6830
EFF8
6EB0
6EB0
6FF0
6EB0
6FF0
6EB0
ENDCHAR
STARTCHAR 512A
ENCODING 20778
SWIDTH 1040 0
DWIDTH 13 0
BBX 13 13 0 -2
BITMAP
3030
3FF8
3760
67E0
6760
EFF8
7BB0
6FF8
6F60
6760
6EC0
63F8
7E30
ENDCHAR
STARTCHAR 5132
ENCODING 20786
SWIDTH 1040 0
DWIDTH 13 0
BBX 13 13 0 -2
BITMAP
3F60
30F8
3F70
66F8
6F60
E6D0
6FF8
60D0
60D0
6FF0
6ED0
6FF0
6ED0
ENDCHAR
STARTCHAR 5137
ENCODING 20791
SWIDTH 1040 0
DWIDTH 13 0
BBX 13 13 0 -2
BITMAP
3318
3FF8
3758
6F78
68D0
6FF8
EEB0
6FF0
6FE0
6FE0
76D0
6FF8
6E78
ENDCHAR
STARTCHAR 513A
ENCODING 20794
SWIDTH 1040 0
DWIDTH 13 0
BBX 13 13 0 -2
BITMAP
3660
3FD8
36D0
66F8
7FD0
6EF8
EED0
7FF8
6ED0
6ED0
6BD0
73F8
60C0
ENDCHAR
STARTCHAR 513B
ENCODING 20795
SWIDTH 1040 0
DWIDTH 13 0
BBX 13 13 0 -2
BITMAP
3BD0
37B0
3FF8
7B50
6FF0
6ED0
EFF0
6ED0
6ED8
7FF8
60C0
7FF8
6ED8
ENDCHAR
STARTCHAR 513C
ENCODING 20796
SWIDTH 1040 0
DWIDTH 13 0
BBX 13 13 0 -2
BITMAP
3EF0
36B0
3EF0
2810
6FF8
6E60
EFF8
6B50
6B50
6FF0
76A0
6FF8
6E90
ENDCHAR
STARTCHAR 513F
ENCODING 20799
SWIDTH 1040 0
DWIDTH 13 0
BBX 13 13 0 -2
BITMAP
1FC0
1B80
1B80
1B80
1B80
1B80
1B80
1B80
1390
1390
3390
23F8
C0F8
ENDCHAR
STARTCHAR 5140
ENCODING 20800
SWIDTH 1040 0
DWIDTH 13 0
BBX 13 13 0 -2
BITMAP
0030
FFF8
1B80
1B80
1B80
1B80
1B80
1B80
1390
1390
3390
23F8
C0F8
ENDCHAR
STARTCHAR 5141
ENCODING 20801
SWIDTH 1040 0
DWIDTH 13 0
BBX 13 13 0 -2
BITMAP
0E00
0E40
1020
FFF0
DBB8
1B80
1B80
1B80
1390
1390
3390
23F8
C0F8
ENDCHAR
STARTCHAR 5143
ENCODING 20803
SWIDTH 1040 0
DWIDTH 13 0
BBX 13 13 0 -2
BITMAP
00C0
3FE0
0000
0030
FFF8
1B80
1B80
1B80
1390
1390
3390
23F8
C0F8
ENDCHAR
STARTCHAR 5144
ENCODING 20804
SWIDTH 1040 0
DWIDTH 13 0
BBX 13 13 0 -2
BITMAP
2060
3FF0
3060
3060
3060
3FE0
1B80
1B80
1B90
1B90
3390
23F8
C0F8
ENDCHAR
STARTCHAR 5145
ENCODING 20805
SWIDTH 1040 0
DWIDTH 13 0
BBX 13 13 0 -2
BITMAP
0780
0730
FFF8
0E80
0860
7FF0
3BB0
0F80
0B90
1B90
1390
23F8
C0F8
ENDCHAR
STARTCHAR 5146
ENCODING 20806
SWIDTH 1040 0
DWIDTH 13 0
BBX 13 13 0 -2
BITMAP
1FC0
1B80
9BB0
5BA0
7BC0
5B80
3BE0
DBB0
93B0
9390
3390
23F8
C0F8
ENDCHAR
STARTCHAR 5147
ENCODING 20807
SWIDTH 1040 0
DWIDTH 13 0
BBX 13 13 0 -2
BITMAP
73F0
6B60
6F60
6760
7BE0
6360
7FE0
6BA0
6BB0
1F90
1B90
33F8
C0F8
ENDCHAR
STARTCHAR 5148
ENCODING 20808
SWIDTH 1040 0
DWIDTH 13 0
BBX 13 13 0 -2
BITMAP
3780
3760
3FF0
6700
4730
FFF8
1B80
1B80
1B90
1B90
3390
23F8
C0F8
ENDCHAR
STARTCHAR 5149
ENCODING 20809
SWIDTH 1040 0
DWIDTH 13 0
BBX 13 13 0 -2
BITMAP
0780
6760
3760
3740
07B0
FFF8
1B80
1B80
1B90
1B90
3390
23F8
C0F8
ENDCHAR
STARTCHAR 514B
ENCODING 20811
SWIDTH 1040 0
DWIDTH 13 0
BBX 13 13 0 -2
BITMAP
0780
0730
FFF8
0700
3FF0
3060
3060
3FE0
3B90
1B90
1B90
33F8
C0F8
ENDCHAR
STARTCHAR 514C
ENCODING 20812
SWIDTH 1040 0
DWIDTH 13 0
BBX 13 13 0 -2
BITMAP
20C0
1B80
1B40
3FE0
30C0
30C0
30C0
3FC0
3B90
1B90
1B90
33F8
C0F8
ENDCHAR
STARTCHAR 514D
ENCODING 20813
SWIDTH 1040 0
DWIDTH 13 0
BBX 13 13 0 -2
BITMAP
0E80
0FC0
1BA0
3FF0
F760
3760
3FE0
0BA0
0BB0
1F90
1B90
33F8
C0F8
ENDCHAR
STARTCHAR 514E
ENCODING 20814
SWIDTH 1040 0
DWIDTH 13 0
BBX 13 13 0 -2
BITMAP
00E0
3FC0
0720
3FF0
3760
3760
3FE0
2BA0
2BB0
1FB0
1B90
33F8
C0F8
ENDCHAR
STARTCHAR 5150
ENCODING 20816
SWIDTH 1040 0
DWIDTH 13 0
BBX 13 13 0 -2
BITMAP
3E60
37F0
3760
37E0
3760
37E0
3760
1BC0
1B90
1B90
1B90
33F8
C0F8
ENDCHAR
STARTCHAR 5152
ENCODING 20818
SWIDTH 1040 0
DWIDTH 13 0
BBX 13 13 0 -2
BITMAP
2EC0
3BE0
30C0
3BC0
30C0
30C0
3FC0
1B80
1B90
1B90
3390
23F8
C0F8
ENDCHAR
STARTCHAR 5154
ENCODING 20820
SWIDTH 1040 0
DWIDTH 13 0
BBX 13 13 0 -2
BITMAP
0E00
1FC0
1BA0
3FF0
F760
3760
3FE0
0BC0
0BA0
1BA0
1BB0
33F8
C0F8
ENDCHAR
STARTCHAR 515A
ENCODING 20826
SWIDTH 1040 0
DWIDTH 13 0
BBX 13 13 0 -2
BITMAP
3760
5350
FFF8
C030
3FC0
30C0
30C0
3FC0
3B90
1B90
1B90
33F8
C0F8
ENDCHAR
STARTCHAR 515C
ENCODING 20828
SWIDTH 1040 0
DWIDTH 13 0
BBX 13 13 0 -2
BITMAP
3730
FE78
DFB0
DBB0
DFB0
FBF0
DFB0
1BC0
1B90
1B90
3390
33F8
C0F8
ENDCHAR
STARTCHAR 5162
ENCODING 20834
SWIDTH 1040 0
DWIDTH 13 0
BBX 13 13 0 -2
BITMAP
38E0
36D0
FFF8
30C0
7BF0
6BA0
6BA0
7BE0
5B68
5B68
5F68
5B78
9638
ENDCHAR
STARTCHAR 5165
ENCODING 20837
SWIDTH 1040 0
DWIDTH 13 0
BBX 13 13 0 -2
BITMAP
0700
1F80
0300
0300
0700
0780
0E80
0EC0
08C0
1840
1078
2030
C010
ENDCHAR
STARTCHAR 5168
ENCODING 20840
SWIDTH 1040 0
DWIDTH 13 0
BBX 13 12 0 -1
BITMAP
0700
0700
0E80
1060
3FF8
C710
0740
3FE0
3F00
0700
0720
7FF0
ENDCHAR
STARTCHAR 5169
ENCODING 20841
SWIDTH 1040 0
DWIDTH 13 0
BBX 13 13 0 -2
BITMAP
0030
FFF8
0700
4730
7FF8
6730
7FF0
6F70
77B0
77B0
6730
6770
6760
ENDCHAR
STARTCHAR 516A
ENCODING 20842
SWIDTH 1040 0
DWIDTH 13 0
BBX 13 13 0 -2
BITMAP
0700
0F80
0840
3FF8
C050
3FF0
36A0
3F40
37A0
36A0
3EA0
36F0
3650
ENDCHAR
STARTCHAR 516B
ENCODING 20843
SWIDTH 1040 0
DWIDTH 13 0
BBX 13 13 0 -2
BITMAP
0B80
0E80
0E80
0E80
0E80
18C0
1840
1040
1060
3060
2038
4030
8010
ENDCHAR
STARTCHAR 516C
ENCODING 20844
SWIDTH 1040 0
DWIDTH 13 0
BBX 13 13 0 -2
BITMAP
1E80
1880
1040
3660
2738
4730
8E10
0E80
08C0
0840
17E0
7E30
3030
ENDCHAR
STARTCHAR 516D
ENCODING 20845
SWIDTH 1040 0
DWIDTH 13 0
BBX 13 12 0 -1
BITMAP
0780
0700
0730
FFF8
0000
1880
1840
3020
2030
2030
4018
8018
ENDCHAR
STARTCHAR 516E
ENCODING 20846
SWIDTH 1040 0
DWIDTH 13 0
BBX 13 13 0 -2
BITMAP
0E80
0E80
18C0
1FE0
2E38
CED0
1FE0
18C0
18C0
00C0
0380
0F80
0700
ENDCHAR
STARTCHAR 5171
ENCODING 20849
SWIDTH 1040 0
DWIDTH 13 0
BBX 13 13 0 -2
BITMAP
1FC0
1B80
1BA0
7FF0
1B80
1B80
1BB0
FFF8
F080
1080
3860
3030
C030
ENDCHAR
STARTCHAR 5175
ENCODING 20853
SWIDTH 1040 0
DWIDTH 13 0
BBX 13 13 0 -2
BITMAP
00C0
13E0
1F00
1860
1FF0
18C0
18D0
FFF8
F800
0800
1EE0
3038
C018
ENDCHAR
STARTCHAR 5176
ENCODING 20854
SWIDTH 1040 0
DWIDTH 13 0
BBX 13 13 0 -2
BITMAP
1EE0
18D0
7FF0
18C0
1FC0
18C0
1FC0
18D0
18D8
FFF8
1880
1870
6030
ENDCHAR
STARTCHAR 5177
ENCODING 20855
SWIDTH 1040 0
DWIDTH 13 0
BBX 13 13 0 -2
BITMAP
10C0
1FE0
18C0
1FC0
18C0
1FC0
18C0
18D0
18D8
FFF8
10C0
3870
C030
ENDCHAR
STARTCHAR 5178
ENCODING 20856
SWIDTH 1040 0
DWIDTH 13 0
BBX 13 13 0 -2
BITMAP
0F80
4B60
7FF0
6B60
6B60
7FE0
6B60
6B60
6B78
FFF8
1880
3870
C038
ENDCHAR
STARTCHAR 517C
ENCODING 20860
SWIDTH 1040 0
DWIDTH 13 0
BBX 13 13 0 -2
BITMAP
18D0
FFF8
1B80
7FF0
1BB0
FFF8
1BB0
7FF0
7BC0
3BC0
3BF8
5BB0
9B90
ENDCHAR
STARTCHAR 5180
ENCODING 20864
SWIDTH 1040 0
DWIDTH 13 0
BBX 13 13 0 -2
BITMAP
1BB0
FBE0
1B90
FFF8
B778
3FE0
3760
7FF0
7F10
0710
FFF8
3770
DBD8
ENDCHAR
STARTCHAR 5182
ENCODING 20866
SWIDTH 1040 0
DWIDTH 13 0
BBX 12 13 1 -2
BITMAP
8060
FFF0
C060
C060
C060
C060
C060
C060
C060
C060
C060
C1E0
C0C0
ENDCHAR
STARTCHAR 5185
ENCODING 20869
SWIDTH 1040 0
DWIDTH 13 0
BBX 12 13 1 -2
BITMAP
0F00
8E60
FFF0
CE60
CE60
DD60
D1E0
E0E0
C0E0
C060
C060
C1E0
C0C0
ENDCHAR
STARTCHAR 5186
ENCODING 20870
SWIDTH 1040 0
DWIDTH 13 0
BBX 12 13 1 -2
BITMAP
8060
FFF0
CE60
CE60
CE60
FFE0
C060
C060
C060
C060
C060
C1E0
C0C0
ENDCHAR
STARTCHAR 5189
ENCODING 20873
SWIDTH 1040 0
DWIDTH 13 0
BBX 13 13 0 -2
BITMAP
0780
2760
3FF0
3760
3FE0
3760
3760
FFF8
F060
3060
3060
33E0
30C0
ENDCHAR
STARTCHAR 518A
ENCODING 20874
SWIDTH 1040 0
DWIDTH 13 0
BBX 13 13 0 -2
BITMAP
4060
7FF0
6B60
6B60
6B68
FFF8
6B60
6B60
6B60
6B60
6B60
6BE0
60C0
ENDCHAR
STARTCHAR 518C
ENCODING 20876
SWIDTH 1040 0
DWIDTH 13 0
BBX 13 13 0 -2
BITMAP
5B30
7BF8
5BB0
5BB0
5BB0
FFF8
5BB0
5BB0
5BB0
5BB0
5B30
BBF0
B660
ENDCHAR
STARTCHAR 518D
ENCODING 20877
SWIDTH 1040 0
DWIDTH 13 0
BBX 13 13 0 -2
BITMAP
0030
FFF8
0700
3FF0
3760
3FE0
3760
3760
3778
FFF8
3060
33E0
30C0
ENDCHAR
STARTCHAR 518F
ENCODING 20879
SWIDTH 1040 0
DWIDTH 13 0
BBX 12 13 1 -2
BITMAP
8060
FFF0
D760
D760
F1E0
DF60
DD60
DD60
DD60
DF60
DD60
C1E0
C0C0
ENDCHAR
STARTCHAR 5190
ENCODING 20880
SWIDTH 1040 0
DWIDTH 13 0
BBX 12 13 1 -2
BITMAP
8060
FFF0
C060
FFE0
C060
FFE0
3180
3F80
3180
3180
3F80
3180
3780
ENDCHAR
STARTCHAR 5191
ENCODING 20881
SWIDTH 1040 0
DWIDTH 13 0
BBX 10 13 2 -2
BITMAP
9D80
FFC0
DD80
FF80
DD80
FF80
6300
7F00
6300
6300
7F00
6300
6F00
ENDCHAR
STARTCHAR 5192
ENCODING 20882
SWIDTH 1040 0
DWIDTH 13 0
BBX 10 13 2 -2
BITMAP
8180
FFC0
C180
FF80
C180
FF80
6300
7F00
6300
6300
6300
7F00
6300
ENDCHAR
STARTCHAR 5193
ENCODING 20883
SWIDTH 1040 0
DWIDTH 13 0
BBX 13 13 0 -2
BITMAP
1BA0
7FF0
1B80
3FE0
1BB0
FFF8
3760
3FE0
3760
3760
FFF8
3060
30E0
ENDCHAR
STARTCHAR 5195
ENCODING 20885
SWIDTH 1040 0
DWIDTH 13 0
BBX 13 13 0 -2
BITMAP
3FF0
3060
3FE0
3060
3FE0
1B80
3FF0
F760
F760
3FE0
1390
3BF8
E0F8
ENDCHAR
STARTCHAR 5196
ENCODING 20886
SWIDTH 1040 0
DWIDTH 13 0
BBX 13 4 0 4
BITMAP
4030
7FF8
C010
C020
ENDCHAR
STARTCHAR 5197
ENCODING 20887
SWIDTH 1040 0
DWIDTH 13 0
BBX 13 13 0 -2
BITMAP
4030
7FF8
C030
D3A0
1FC0
1B80
1B80
1B80
1B90
1B90
3390
23F8
C0F8
ENDCHAR
STARTCHAR 5199
ENCODING 20889
SWIDTH 1040 0
DWIDTH 13 0
BBX 13 13 0 -2
BITMAP
4030
7FF8
CE50
9FE0
1800
3FE0
00D0
FFF8
FFC0
00C0
0380
0F80
0700
ENDCHAR
STARTCHAR 51A0
ENCODING 20896
SWIDTH 1040 0
DWIDTH 13 0
BBX 13 13 0 -2
BITMAP
4030
FFF8
C830
7E30
03F8
FFB0
6EB0
6EB0
6EB0
6E70
6E68
4FF8
87F8
ENDCHAR
STARTCHAR 51A2
ENCODING 20898
SWIDTH 1040 0
DWIDTH 13 0
BBX 13 13 0 -2
BITMAP
4030
FFF8
C010
7FE0
1E30
3760
CB40
37C0
4FA0
CBA0
33B8
CF10
0E00
ENDCHAR
STARTCHAR 51A4
ENCODING 20900
SWIDTH 1040 0
DWIDTH 13 0
BBX 13 13 0 -2
BITMAP
4030
FFF8
CE20
1FC0
33A0
FFF0
3760
3FE0
33A0
13A0
1BB0
33F8
C0F8
ENDCHAR
STARTCHAR 51A5
ENCODING 20901
SWIDTH 1040 0
DWIDTH 13 0
BBX 13 13 0 -2
BITMAP
4030
FFF8
C020
1FE0
18C0
1FC0
18C0
18D0
18D8
FFF8
1880
3870
C038
ENDCHAR
STARTCHAR 51A6
ENCODING 20902
SWIDTH 1040 0
DWIDTH 13 0
BBX 13 13 0 -2
BITMAP
4030
FFF8
C8D0
78D0
06F0
FEC0
5FF0
5B60
5B40
58C0
5B30
5FF8
8FF8
ENDCHAR
STARTCHAR 51A8
ENCODING 20904
SWIDTH 1040 0
DWIDTH 13 0
BBX 13 13 0 -2
BITMAP
4030
FFF8
C020
3FE0
18C0
3FF0
3760
3FE0
3760
3760
3760
3FE0
3060
ENDCHAR
STARTCHAR 51A9
ENCODING 20905
SWIDTH 1040 0
DWIDTH 13 0
BBX 13 13 0 -2
BITMAP
4030
FFF8
CE10
3BE0
30C0
3BC0
30C0
3FC0
3030
3030
DFF8
36B0
DBE0
ENDCHAR
STARTCHAR 51AA
ENCODING 20906
SWIDTH 1040 0
DWIDTH 13 0
BBX 13 13 0 -2
BITMAP
4030
FFF8
CB90
3FE0
18C0
1FC0
18D0
FFF8
F760
3760
FFF8
3770
37E0
ENDCHAR
STARTCHAR 51AB
ENCODING 20907
SWIDTH 1040 0
DWIDTH 13 0
BBX 7 13 3 -2
BITMAP
40
30
38
1A
04
04
18
B8
B0
70
30
38
38
ENDCHAR
STARTCHAR 51AC
ENCODING 20908
SWIDTH 1040 0
DWIDTH 13 0
BBX 13 13 0 -2
BITMAP
0F00
0EC0
1FE0
18C0
3780
C700
0EF8
3770
F7F0
C390
1E00
0700
0380
ENDCHAR
STARTCHAR 51B0
ENCODING 20912
SWIDTH 1040 0
DWIDTH 13 0
BBX 13 13 0 -2
BITMAP
83C0
4380
63A0
13B0
3FB0
27C0
2FC0
4BA0
4BB0
DBB0
53B8
6F90
6700
ENDCHAR
STARTCHAR 51B1
ENCODING 20913
SWIDTH 1040 0
DWIDTH 13 0
BBX 13 13 0 -2
BITMAP
8060
5FF0
6700
1760
27F0
2760
6E60
CFE0
CE60
4E60
6060
7FF8
6000
ENDCHAR
STARTCHAR 51B2
ENCODING 20914
SWIDTH 1040 0
DWIDTH 13 0
BBX 13 13 0 -2
BITMAP
83C0
4380
73B0
1FF8
3BB0
3BB0
5BB0
5FF0
5BB0
DBB0
4380
6380
6380
ENDCHAR
STARTCHAR 51B3
ENCODING 20915
SWIDTH 1040 0
DWIDTH 13 0
BBX 13 13 0 -2
BITMAP
8780
4760
7FF0
1760
1760
2760
3FF8
6700
4680
C680
4EC0
6878
7030
ENDCHAR
STARTCHAR 51B4
ENCODING 20916
SWIDTH 1040 0
DWIDTH 13 0
BBX 13 13 0 -2
BITMAP
4030
2FF8
3760
1760
1768
1FF8
20E0
E3E0
C360
4360
6660
6BE0
30C0
ENDCHAR
STARTCHAR 51B5
ENCODING 20917
SWIDTH 1040 0
DWIDTH 13 0
BBX 13 13 0 -2
BITMAP
8860
4FF0
6E60
1E60
2E60
2FE0
66C0
C7C0
C6D0
4ED0
6ED0
68F8
7078
ENDCHAR
STARTCHAR 51B6
ENCODING 20918
SWIDTH 1040 0
DWIDTH 13 0
BBX 13 13 0 -2
BITMAP
4380
2380
3320
2310
16F8
3F98
2E60
67F0
4760
C760
6760
67E0
6760
ENDCHAR
STARTCHAR 51B7
ENCODING 20919
SWIDTH 1040 0
DWIDTH 13 0
BBX 13 13 0 -2
BITMAP
8700
4780
6680
2860
1FF8
2030
3FF0
E760
C760
4760
67E0
6760
6700
ENDCHAR
STARTCHAR 51BD
ENCODING 20925
SWIDTH 1040 0
DWIDTH 13 0
BBX 13 13 0 -2
BITMAP
83B8
7FF0
6830
1FB0
3BB0
2BB0
6FB0
DB30
DB30
5730
6630
68F0
7060
ENDCHAR
STARTCHAR 51C4
ENCODING 20932
SWIDTH 1040 0
DWIDTH 13 0
BBX 13 13 0 -2
BITMAP
8390
5FF8
6380
3FF0
03B0
3FF8
43B0
FFF8
C760
4760
6EC0
63E0
7F30
ENDCHAR
STARTCHAR 51C5
ENCODING 20933
SWIDTH 1040 0
DWIDTH 13 0
BBX 13 13 0 -2
BITMAP
8830
4FF8
6EB0
1EB0
2FF0
2EB0
6FF0
CF70
CF70
4FF0
6E30
6FF0
6E30
ENDCHAR
STARTCHAR 51C6
ENCODING 20934
SWIDTH 1040 0
DWIDTH 13 0
BBX 13 13 0 -2
BITMAP
43C0
23B0
3768
37F8
0F60
17F8
2760
67F8
4760
C760
6768
67F8
6700
ENDCHAR
STARTCHAR 51C9
ENCODING 20937
SWIDTH 1040 0
DWIDTH 13 0
BBX 13 13 0 -2
BITMAP
83C0
43B0
7FF8
0000
3FE0
2E60
6E60
CFE0
CBA0
5BA0
5BB8
7798
6700
ENDCHAR
STARTCHAR 51CB
ENCODING 20939
SWIDTH 1040 0
DWIDTH 13 0
BBX 13 13 0 -2
BITMAP
8830
4FF8
6EB0
2FF0
1EB0
2FF0
2E30
EFF0
CF70
4F70
5BF0
7370
6060
ENDCHAR
STARTCHAR 51CC
ENCODING 20940
SWIDTH 1040 0
DWIDTH 13 0
BBX 13 13 0 -2
BITMAP
43A0
2FF0
3390
2FF8
1760
2678
3B80
E7E0
C740
4740
5BF8
6770
7810
ENDCHAR
STARTCHAR 51CD
ENCODING 20941
SWIDTH 1040 0
DWIDTH 13 0
BBX 13 13 0 -2
BITMAP
8390
5FF8
6380
2FF0
1BB0
2FF0
2BB0
EFF0
CFC0
47C0
4FA0
73B8
6390
ENDCHAR
STARTCHAR 51D6
ENCODING 20950
SWIDTH 1040 0
DWIDTH 13 0
BBX 13 13 0 -2
BITMAP
8760
4EC0
6FF0
1EC0
2FF0
EEC0
4FF8
6710
6718
FFF8
0700
0700
0700
ENDCHAR
STARTCHAR 51DB
ENCODING 20955
SWIDTH 1040 0
DWIDTH 13 0
BBX 13 13 0 -2
BITMAP
8390
5FF8
6E30
1FB0
2EB0
2FF0
6010
DFF8
DBA0
4BA0
5BB8
7798
6700
ENDCHAR
STARTCHAR 51DC
ENCODING 20956
SWIDTH 1040 0
DWIDTH 13 0
BBX 13 13 0 -2
BITMAP
0390
DFF8
6E30
6FB0
0EB0
1FF0
23C0
67B0
47B8
DFF8
47C0
6FF8
73B0
ENDCHAR
STARTCHAR 51DD
ENCODING 20957
SWIDTH 1040 0
DWIDTH 13 0
BBX 13 13 0 -2
BITMAP
8E90
4FF8
4ED0
7FA0
28F8
3FE8
5870
DFE8
FB68
6B78
5FE0
7378
6638
ENDCHAR
STARTCHAR 51E0
ENCODING 20960
SWIDTH 1040 0
DWIDTH 13 0
BBX 13 13 0 -2
BITMAP
2380
3FC0
3380
3380
3380
3380
3380
3380
3390
3390
2390
23F8
C0F8
ENDCHAR
STARTCHAR 51E1
ENCODING 20961
SWIDTH 1040 0
DWIDTH 13 0
BBX 13 13 0 -2
BITMAP
10C0
1FE0
18C0
18C0
1EC0
1FC0
1BC0
18C0
10D0
10D0
30D0
20F8
C078
ENDCHAR
STARTCHAR 51E6
ENCODING 20966
SWIDTH 1040 0
DWIDTH 13 0
BBX 13 13 0 -2
BITMAP
3800
3360
33F0
3F60
6B60
6B60
BB68
1378
1278
3E38
2800
47F8
83F8
ENDCHAR
STARTCHAR 51E7
ENCODING 20967
SWIDTH 1040 0
DWIDTH 13 0
BBX 13 13 0 -2
BITMAP
2060
3FF0
3760
3760
3FE0
3760
3760
3760
3768
37E8
6730
4738
8718
ENDCHAR
STARTCHAR 51E9
ENCODING 20969
SWIDTH 1040 0
DWIDTH 13 0
BBX 13 13 0 -2
BITMAP
2060
3FF0
3760
3760
3FE0
3760
3760
3FE0
2FE8
2FE8
6F70
5758
8718
ENDCHAR
STARTCHAR 51EA
ENCODING 20970
SWIDTH 1040 0
DWIDTH 13 0
BBX 13 13 0 -2
BITMAP
2060
3FF0
3760
3760
3760
37E0
3760
3760
3768
3768
7FF0
4038
8018
ENDCHAR
STARTCHAR 51ED
ENCODING 20973
SWIDTH 1040 0
DWIDTH 13 0
BBX 13 13 0 -2
BITMAP
3870
37E0
70D0
7FF8
B0C0
37F0
2080
3FC0
3390
3390
3390
23F8
C0F8
ENDCHAR
STARTCHAR 51F0
ENCODING 20976
SWIDTH 1040 0
DWIDTH 13 0
BBX 13 13 0 -2
BITMAP
2060
3FF0
3660
3F60
3760
3F60
3760
3FE0
2E68
2E68
7FB0
4EB8
BFD8
ENDCHAR
STARTCHAR 51F1
ENCODING 20977
SWIDTH 1040 0
DWIDTH 13 0
BBX 13 13 0 -2
BITMAP
B760
B7F0
FF60
0360
FF60
5B60
5B60
7B60
4B68
4B68
3F68
F378
CE38
ENDCHAR
STARTCHAR 51F5
ENCODING 20981
SWIDTH 1040 0
DWIDTH 13 0
BBX 12 13 1 -2
BITMAP
E070
C060
C060
C060
C060
C060
C060
C060
C060
C060
C060
FFE0
C060
ENDCHAR
STARTCHAR 51F6
ENCODING 20982
SWIDTH 1040 0
DWIDTH 13 0
BBX 12 13 1 -2
BITMAP
0100
C7F0
E760
D760
DE60
CE60
DF60
D760
E760
E1E0
C160
FFE0
C060
ENDCHAR
STARTCHAR 51F8
ENCODING 20984
SWIDTH 1040 0
DWIDTH 13 0
BBX 13 13 0 -2
BITMAP
1380
1FC0
1B80
1B80
9BB0
FBF8
DBB0
C030
C030
C030
C030
FFF0
C030
ENDCHAR
STARTCHAR 51F9
ENCODING 20985
SWIDTH 1040 0
DWIDTH 13 0
BBX 13 12 0 -2
BITMAP
9B30
FBF8
DBB0
DBB0
DBB0
DFB0
DBB0
DBB0
C030
C030
FFF0
C030
ENDCHAR
STARTCHAR 51FA
ENCODING 20986
SWIDTH 1040 0
DWIDTH 13 0
BBX 12 13 1 -2
BITMAP
0F00
7EE0
6EC0
6EC0
7FC0
0EC0
EE70
CE60
CE60
CE60
CE60
FFE0
C060
ENDCHAR
STARTCHAR 51FD
ENCODING 20989
SWIDTH 1040 0
DWIDTH 13 0
BBX 13 13 0 -2
BITMAP
0030
FFF8
0E00
6FB8
7770
7FF0
67B0
7F70
7770
7770
6E30
7FF0
6030
ENDCHAR
STARTCHAR 51FE
ENCODING 20990
SWIDTH 1040 0
DWIDTH 13 0
BBX 12 13 1 -2
BITMAP
0180
7FC0
0700
CE70
FFE0
CEE0
FF60
DFE0
DEE0
FEE0
DC60
FFE0
C060
ENDCHAR
STARTCHAR 5200
ENCODING 20992
SWIDTH 1040 0
DWIDTH 13 0
BBX 12 13 0 -2
BITMAP
0060
FFF0
1860
1860
1860
1860
1860
3060
3060
3060
20C0
47C0
8380
ENDCHAR
STARTCHAR 5203
ENCODING 20995
SWIDTH 1040 0
DWIDTH 13 0
BBX 13 13 0 -2
BITMAP
0030
FFF8
0E30
0E30
6E30
1E30
0F30
1BB0
1BA0
1B60
3060
23E0
C0C0
ENDCHAR
STARTCHAR 5204
ENCODING 20996
SWIDTH 1040 0
DWIDTH 13 0
BBX 13 12 0 -2
BITMAP
0060
7FF0
2E60
2E60
1E60
0F60
1BE0
1BF8
18F8
10D8
27C0
C380
ENDCHAR
STARTCHAR 5206
ENCODING 20998
SWIDTH 1040 0
DWIDTH 13 0
BBX 13 13 0 -2
BITMAP
0E80
0E80
1840
1060
3FF8
D8F0
18D0
18C0
18C0
18C0
3380
2F80
4700
ENDCHAR
STARTCHAR 5207
ENCODING 20999
SWIDTH 1040 0
DWIDTH 13 0
BBX 13 13 0 -2
BITMAP
7000
6030
6FF8
7BB0
63B0
E3B0
6BB0
6BB0
6B30
7B30
3F60
06E0
18C0
ENDCHAR
STARTCHAR 5208
ENCODING 21000
SWIDTH 1040 0
DWIDTH 13 0
BBX 13 13 0 -2
BITMAP
1E38
1BF0
9BB0
5BB0
3BB0
33B0
1BB0
3E30
2730
2730
6730
40F0
8060
ENDCHAR
STARTCHAR 520A
ENCODING 21002
SWIDTH 1040 0
DWIDTH 13 0
BBX 13 13 0 -2
BITMAP
0E38
FFF0
33B0
33B0
33B0
FFB0
33B0
33B0
33B0
3030
3030
30F0
3060
ENDCHAR
STARTCHAR 520B
ENCODING 21003
SWIDTH 1040 0
DWIDTH 13 0
BBX 13 13 0 -2
BITMAP
1838
3FB0
F3B0
33B0
33B0
FFB0
33B0
33B0
23B0
2030
6030
40F0
8060
ENDCHAR
STARTCHAR 520E
ENCODING 21006
SWIDTH 1040 0
DWIDTH 13 0
BBX 13 13 0 -2
BITMAP
7038
6EF0
7FB0
5EB0
AEB0
7EB0
5EB0
AEB0
AEB0
2EB0
5830
B8F0
3060
ENDCHAR
STARTCHAR 5211
ENCODING 21009
SWIDTH 1040 0
DWIDTH 13 0
BBX 13 13 0 -2
BITMAP
0738
FFF0
6EB0
6EB0
6EB0
FFB0
6EB0
6EB0
6EB0
6E30
4E30
4EF0
8E60
ENDCHAR
STARTCHAR 5214
ENCODING 21012
SWIDTH 1040 0
DWIDTH 13 0
BBX 13 13 0 -2
BITMAP
3838
36F0
FFB0
36B0
36B0
FFB0
30B0
30B0
28B0
28B0
6E30
4EF0
8060
ENDCHAR
STARTCHAR 5217
ENCODING 21015
SWIDTH 1040 0
DWIDTH 13 0
BBX 13 13 0 -2
BITMAP
0E38
FFF0
30B0
36B0
3EB0
6EB0
6EB0
78B0
F8B0
9830
3030
20F0
4060
ENDCHAR
STARTCHAR 521D
ENCODING 21021
SWIDTH 1040 0
DWIDTH 13 0
BBX 13 13 0 -2
BITMAP
7000
6830
FFF8
1BB0
37B0
2BB0
7BB0
EBB0
EB30
6730
6660
6BE0
70C0
ENDCHAR
STARTCHAR 5224
ENCODING 21028
SWIDTH 1040 0
DWIDTH 13 0
BBX 13 13 0 -2
BITMAP
3838
B7F0
7FB0
73B0
FFB0
33B0
33B0
FFB0
F3B0
33B0
3030
30F0
3060
ENDCHAR
STARTCHAR 5225
ENCODING 21029
SWIDTH 1040 0
DWIDTH 13 0
BBX 13 13 0 -2
BITMAP
8E38
FFF0
CEB0
CEB0
FEB0
60B0
7FB0
6EB0
6EB0
6E30
4E30
7EF0
9860
ENDCHAR
STARTCHAR 5227
ENCODING 21031
SWIDTH 1040 0
DWIDTH 13 0
BBX 13 13 0 -2
BITMAP
3800
3730
FFF8
33B0
33B0
FFB0
33B0
2BB0
4B30
4B30
FF60
C6E0
18C0
ENDCHAR
STARTCHAR 5229
ENCODING 21033
SWIDTH 1040 0
DWIDTH 13 0
BBX 13 13 0 -2
BITMAP
0E38
3FF0
F3B0
37B0
FFB0
33B0
7BB0
7FB0
F3B0
B3B0
3030
30F0
3060
ENDCHAR
STARTCHAR 522A
ENCODING 21034
SWIDTH 1040 0
DWIDTH 13 0
BBX 13 13 0 -2
BITMAP
40D8
7FD8
6ED8
6ED8
6ED8
FFF8
6ED8
6ED8
6ED8
6ED8
6ED8
6EF8
6ED0
ENDCHAR
STARTCHAR 522E
ENCODING 21038
SWIDTH 1040 0
DWIDTH 13 0
BBX 13 13 0 -2
BITMAP
0E38
3FB0
F3B0
33B0
FFB0
33B0
B3B0
FFB0
CE30
CE30
CE30
FEF0
CE60
ENDCHAR
STARTCHAR 5230
ENCODING 21040
SWIDTH 1040 0
DWIDTH 13 0
BBX 13 13 0 -2
BITMAP
0E38
FFF0
33B0
6BB0
FFB0
B3B0
33B0
FFB0
F030
3030
3F30
F0F0
C060
ENDCHAR
STARTCHAR 5233
ENCODING 21043
SWIDTH 1040 0
DWIDTH 13 0
BBX 13 13 0 -2
BITMAP
3838
33B0
FFB0
6BB0
7FB0
83B0
FFB0
33B0
3230
7E30
6E30
1EF0
1860
ENDCHAR
STARTCHAR 5236
ENCODING 21046
SWIDTH 1040 0
DWIDTH 13 0
BBX 13 13 0 -2
BITMAP
5E38
7BF0
7FB0
DBB0
FFB0
1BB0
FFB0
DBB0
DB30
DB30
DF30
DBF0
1860
ENDCHAR
STARTCHAR 5237
ENCODING 21047
SWIDTH 1040 0
DWIDTH 13 0
BBX 13 13 0 -2
BITMAP
43B8
7FB0
63B0
7FB0
6EB0
6EB0
7FB0
6EB0
6EB0
6EB0
AFB0
2EF0
0E60
ENDCHAR
STARTCHAR 5238
ENCODING 21048
SWIDTH 1040 0
DWIDTH 13 0
BBX 13 13 0 -2
BITMAP
3760
1740
7FE0
0E10
FFF8
1880
3078
3FF0
FED0
CED0
18C0
17C0
6380
ENDCHAR
STARTCHAR 5239
ENCODING 21049
SWIDTH 1040 0
DWIDTH 13 0
BBX 13 13 0 -2
BITMAP
0E38
EFB0
3BB0
37B0
DFB0
1BB0
FFB0
3BB0
3B30
7F30
5B30
98F0
1860
ENDCHAR
STARTCHAR 523A
ENCODING 21050
SWIDTH 1040 0
DWIDTH 13 0
BBX 13 13 0 -2
BITMAP
1E38
1BF0
FFB0
1BB0
FFB0
DBB0
DFB0
FBB0
FA30
7E30
5F30
98F0
1860
ENDCHAR
STARTCHAR 523B
ENCODING 21051
SWIDTH 1040 0
DWIDTH 13 0
BBX 13 13 0 -2
BITMAP
3838
36F0
FFB0
60B0
D8B0
58B0
36B0
2EB0
48B0
D830
1830
2770
C760
ENDCHAR
STARTCHAR 5243
ENCODING 21059
SWIDTH 1040 0
DWIDTH 13 0
BBX 13 13 0 -2
BITMAP
6E38
2BF0
FFB0
1BB0
FFB0
D8B0
FFB0
BBB0
BB30
7B30
5F30
9EF0
1860
ENDCHAR
STARTCHAR 5244
ENCODING 21060
SWIDTH 1040 0
DWIDTH 13 0
BBX 13 13 0 -2
BITMAP
0E38
FFB0
57B0
ABB0
FFB0
57B0
FFB0
33B0
33B0
3030
3F30
F0F0
C060
ENDCHAR
STARTCHAR 5247
ENCODING 21063
SWIDTH 1040 0
DWIDTH 13 0
BBX 13 13 0 -2
BITMAP
4E38
7FF0
6EB0
7EB0
6EB0
7EB0
6EB0
7EB0
68B0
2830
6E30
67F0
8660
ENDCHAR
STARTCHAR 524A
ENCODING 21066
SWIDTH 1040 0
DWIDTH 13 0
BBX 13 13 0 -2
BITMAP
BB38
F7F0
36B0
FFB0
CEB0
FEB0
CEB0
FEB0
CEB0
CE30
CE30
DEF0
D860
ENDCHAR
STARTCHAR 524B
ENCODING 21067
SWIDTH 1040 0
DWIDTH 13 0
BBX 13 13 0 -2
BITMAP
3838
33B0
FFB0
33B0
7FB0
6FB0
6FB0
7E30
6E30
2EF0
6E20
4FF8
87F8
ENDCHAR
STARTCHAR 524C
ENCODING 21068
SWIDTH 1040 0
DWIDTH 13 0
BBX 13 13 0 -2
BITMAP
3838
36F0
FFB0
30B0
FEB0
B6B0
FEB0
B0B0
BEB0
7EB0
7630
B3F0
3060
ENDCHAR
STARTCHAR 524D
ENCODING 21069
SWIDTH 1040 0
DWIDTH 13 0
BBX 13 13 0 -2
BITMAP
18C0
08B0
FFF8
0000
7EF8
6EB0
7EB0
6EB0
6EB0
7EB0
6E30
6EF0
6E60
ENDCHAR
STARTCHAR 524F
ENCODING 21071
SWIDTH 1040 0
DWIDTH 13 0
BBX 13 13 0 -2
BITMAP
6E00
2B30
FFF8
6EB0
6FB0
FFB0
6EB0
6EF0
6EB0
6EB0
6EB8
4F70
8E60
ENDCHAR
STARTCHAR 5254
ENCODING 21076
SWIDTH 1040 0
DWIDTH 13 0
BBX 13 13 0 -2
BITMAP
4E38
7FF0
6EB0
7EB0
6EB0
7EB0
30B0
7FB0
EF30
AF30
5730
BF70
4E60
ENDCHAR
STARTCHAR 5256
ENCODING 21078
SWIDTH 1040 0
DWIDTH 13 0
BBX 13 13 0 -2
BITMAP
1E38
18F0
7FB0
2EB0
38B0
FFB0
00B0
7FB0
6E30
6E30
6E30
7EF0
6E60
ENDCHAR
STARTCHAR 525B
ENCODING 21083
SWIDTH 1040 0
DWIDTH 13 0
BBX 13 13 0 -2
BITMAP
8E38
FFF0
DEB0
AEB0
AEB0
FEB0
AEB0
AEB0
AEB0
FE30
8E30
BEF0
9860
ENDCHAR
STARTCHAR 525E
ENCODING 21086
SWIDTH 1040 0
DWIDTH 13 0
BBX 13 13 0 -2
BITMAP
3838
36F0
FFB0
68B0
4EB0
FFB0
4EB0
7EB0
6EB0
6EB0
7E30
5EF0
1860
ENDCHAR
STARTCHAR 5263
ENCODING 21091
SWIDTH 1040 0
DWIDTH 13 0
BBX 13 13 0 -2
BITMAP
1038
3BF0
2FB0
7FB0
9BB0
7FB0
5BB0
7FB0
5BB0
5BB0
3630
27F0
C760
ENDCHAR
STARTCHAR 5264
ENCODING 21092
SWIDTH 1040 0
DWIDTH 13 0
BBX 13 13 0 -2
BITMAP
3838
36F0
FFB0
4EB0
38B0
4FB0
FEB0
6EB0
6EB0
7E30
6E30
4EF0
8E60
ENDCHAR
STARTCHAR 5265
ENCODING 21093
SWIDTH 1040 0
DWIDTH 13 0
BBX 13 13 0 -2
BITMAP
1838
7FF0
1BB0
7BB0
1BB0
FFB0
B7B0
7BB0
7FB0
3E30
F730
B6F0
7060
ENDCHAR
STARTCHAR 5269
ENCODING 21097
SWIDTH 1040 0
DWIDTH 13 0
BBX 13 13 0 -2
BITMAP
0F38
7EB0
1BB0
FFB0
3EB0
FFB0
3EB0
FBF0
BA30
BE30
7F30
5BF0
9860
ENDCHAR
STARTCHAR 526A
ENCODING 21098
SWIDTH 1040 0
DWIDTH 13 0
BBX 13 13 0 -2
BITMAP
18C0
0890
FFF8
6EB0
7EB0
6EB0
7EF0
6E60
6E78
FFF8
0E30
18F0
E060
ENDCHAR
STARTCHAR 526F
ENCODING 21103
SWIDTH 1040 0
DWIDTH 13 0
BBX 13 13 0 -2
BITMAP
0E38
FFF0
00B0
7EB0
6EB0
FFB0
D7B0
FF30
D730
D730
D730
FFF0
C760
ENDCHAR
STARTCHAR 5270
ENCODING 21104
SWIDTH 1040 0
DWIDTH 13 0
BBX 13 13 0 -2
BITMAP
0E38
7FF0
1BB0
FFB0
5BB0
FFB0
5BB0
FFB0
FE30
3E30
7F30
5BF0
9860
ENDCHAR
STARTCHAR 5271
ENCODING 21105
SWIDTH 1040 0
DWIDTH 13 0
BBX 13 13 0 -2
BITMAP
3000
3830
6FF8
7EB0
B6B0
FFB0
B6B0
FEF0
B6B8
B6B8
6B78
4FE0
86C0
ENDCHAR
STARTCHAR 5272
ENCODING 21106
SWIDTH 1040 0
DWIDTH 13 0
BBX 13 13 0 -2
BITMAP
5B38
FFF0
DBB0
7EB0
18B0
7FB0
18B0
FFB0
EEB0
6EB0
6E30
7EF0
6E60
ENDCHAR
STARTCHAR 5273
ENCODING 21107
SWIDTH 1040 0
DWIDTH 13 0
BBX 13 13 0 -2
BITMAP
2B38
FFF0
2BB0
33B0
3BB0
67B0
7FB0
83B0
FFB0
7E30
6E30
7EF0
6E60
ENDCHAR
STARTCHAR 5274
ENCODING 21108
SWIDTH 1040 0
DWIDTH 13 0
BBX 13 13 0 -2
BITMAP
5B38
7FF0
06B0
FFB0
00B0
7EB0
6EB0
7EB0
6EB0
6E30
2BB0
FEF0
6060
ENDCHAR
STARTCHAR 5275
ENCODING 21109
SWIDTH 1040 0
DWIDTH 13 0
BBX 13 13 0 -2
BITMAP
1838
36F0
3FB0
76B0
BEB0
36B0
3EB0
60B0
6130
7F30
B730
3FF0
3760
ENDCHAR
STARTCHAR 527D
ENCODING 21117
SWIDTH 1040 0
DWIDTH 13 0
BBX 13 13 0 -2
BITMAP
0738
FFF0
28B0
FEB0
D6B0
FEB0
06B0
FFB0
F0B0
30B0
FE30
B7F0
6060
ENDCHAR
STARTCHAR 527F
ENCODING 21119
SWIDTH 1040 0
DWIDTH 13 0
BBX 13 13 0 -2
BITMAP
F738
56F0
FEB0
B6B0
FEB0
B6B0
FEB0
36B0
36B0
FFB0
7830
B6F0
3660
ENDCHAR
STARTCHAR 5283
ENCODING 21123
SWIDTH 1040 0
DWIDTH 13 0
BBX 13 13 0 -2
BITMAP
3038
FEF0
36B0
FFB0
36B0
FEB0
30B0
FFB0
B6B0
B6B0
FE30
B6F0
FF60
ENDCHAR
STARTCHAR 5287
ENCODING 21127
SWIDTH 1040 0
DWIDTH 13 0
BBX 13 13 0 -2
BITMAP
1F38
5BB0
7FB0
6BB0
7FB0
6BB0
7FB0
7BB0
6FB0
6E30
5F30
AEF0
1860
ENDCHAR
STARTCHAR 5288
ENCODING 21128
SWIDTH 1040 0
DWIDTH 13 0
BBX 13 13 0 -2
BITMAP
7E40
6FF0
7EA0
47F8
7EC0
AFF0
3EC0
06D0
06D8
7FF8
0E30
18F0
E060
ENDCHAR
STARTCHAR 5289
ENCODING 21129
SWIDTH 1040 0
DWIDTH 13 0
BBX 13 13 0 -2
BITMAP
9BB8
FFF0
DBB0
FFB0
DBB0
F7B0
3FB0
5B30
5B30
FF30
5B30
FFF0
7060
ENDCHAR
STARTCHAR 528D
ENCODING 21133
SWIDTH 1040 0
DWIDTH 13 0
BBX 13 13 0 -2
BITMAP
3038
3BF0
27B0
7FB0
83B0
FFB0
DBB0
FFB0
EE30
6E30
6F30
5BF0
9360
ENDCHAR
STARTCHAR 5291
ENCODING 21137
SWIDTH 1040 0
DWIDTH 13 0
BBX 13 13 0 -2
BITMAP
18B8
FFB0
2BB0
FFB0
56B0
5BB0
BBB0
7F30
6730
6730
7F30
47F0
8760
ENDCHAR
STARTCHAR 5292
ENCODING 21138
SWIDTH 1040 0
DWIDTH 13 0
BBX 13 13 0 -2
BITMAP
3000
3830
67F8
7EB0
86B0
FFB0
B6B0
FEF0
EEB0
6EB0
6F30
5BF0
9660
ENDCHAR
STARTCHAR 5294
ENCODING 21140
SWIDTH 1040 0
DWIDTH 13 0
BBX 13 13 0 -2
BITMAP
3000
3830
67F8
7EB0
86B0
FFB0
B6B0
FEF0
EEB8
6EB8
6F38
5BF0
9660
ENDCHAR
STARTCHAR 529B
ENCODING 21147
SWIDTH 1040 0
DWIDTH 13 0
BBX 13 13 0 -2
BITMAP
0F00
0E00
0E30
FFF8
0E30
0E30
0E30
0830
0830
1830
1060
23E0
C0C0
ENDCHAR
STARTCHAR 529F
ENCODING 21151
SWIDTH 1040 0
DWIDTH 13 0
BBX 13 13 0 -2
BITMAP
03C0
0B80
FBB0
3FF8
33B0
33B0
3FB0
F330
C330
C730
0660
0BE0
30C0
ENDCHAR
STARTCHAR 52A0
ENCODING 21152
SWIDTH 1040 0
DWIDTH 13 0
BBX 13 13 0 -2
BITMAP
7000
6000
6EB0
FFF8
6EB0
6EB0
6EB0
6EB0
6EB0
6EB0
4EF0
7EB0
9800
ENDCHAR
STARTCHAR 52A3
ENCODING 21155
SWIDTH 1040 0
DWIDTH 13 0
BBX 13 13 0 -2
BITMAP
0780
3760
3738
CF58
03C0
1F00
EE60
3FF0
3E60
0E60
1860
37C0
C380
ENDCHAR
STARTCHAR 52A9
ENCODING 21161
SWIDTH 1040 0
DWIDTH 13 0
BBX 13 13 0 -2
BITMAP
4BC0
7B80
6BB0
7FF8
6BB0
7BB0
6BB0
6FB0
6B30
7B30
F760
C6E0
18C0
ENDCHAR
STARTCHAR 52AA
ENCODING 21162
SWIDTH 1040 0
DWIDTH 13 0
BBX 13 13 0 -2
BITMAP
3820
33F0
FF60
6EC0
FB78
2E30
CE20
7FF0
7E60
0E60
1860
37C0
C380
ENDCHAR
STARTCHAR 52AB
ENCODING 21163
SWIDTH 1040 0
DWIDTH 13 0
BBX 13 13 0 -2
BITMAP
3BC0
3380
FBB0
37F8
33B0
FFB0
33B0
2BB0
2BB0
6FB0
5F30
F3F0
CE60
ENDCHAR
STARTCHAR 52AC
ENCODING 21164
SWIDTH 1040 0
DWIDTH 13 0
BBX 13 13 0 -2
BITMAP
73C0
6B80
7BB0
DFF8
FBB0
DBB0
DBB0
FBB0
DBB0
DBB0
3730
F6F0
6860
ENDCHAR
STARTCHAR 52AD
ENCODING 21165
SWIDTH 1040 0
DWIDTH 13 0
BBX 13 13 0 -2
BITMAP
0EC0
FE80
6EB0
6FF8
4EB0
7EB0
98B0
7EB0
6BB0
6B30
6B60
7EE0
68C0
ENDCHAR
STARTCHAR 52B1
ENCODING 21169
SWIDTH 1040 0
DWIDTH 13 0
BBX 13 13 0 -2
BITMAP
46C0
7F80
60B0
7FF8
60B0
7FB0
6EB0
6EB0
6EB0
6EB0
4EB0
BEF0
1B60
ENDCHAR
STARTCHAR 52B4
ENCODING 21172
SWIDTH 1040 0
DWIDTH 13 0
BBX 13 13 0 -2
BITMAP
3760
5350
FFF8
CE10
0E60
7FF0
0E60
0E60
0860
1860
10C0
27C0
C380
ENDCHAR
STARTCHAR 52B5
ENCODING 21173
SWIDTH 1040 0
DWIDTH 13 0
BBX 13 13 0 -2
BITMAP
3760
1640
7FF0
0E90
FFF8
1F80
3778
3FF0
FED0
CED0
18C0
17C0
6380
ENDCHAR
STARTCHAR 52B9
ENCODING 21177
SWIDTH 1040 0
DWIDTH 13 0
BBX 13 13 0 -2
BITMAP
3BC0
3380
FFB0
6BF8
4FB0
CBB0
3BB0
33B0
3B30
3B30
6F60
46E0
98C0
ENDCHAR
STARTCHAR 52BC
ENCODING 21180
SWIDTH 1040 0
DWIDTH 13 0
BBX 13 13 0 -2
BITMAP
3BC0
3380
FFB0
37F8
33B0
FFB0
03B0
7FB0
6BB0
6BB0
6B30
7BE0
6E60
ENDCHAR
STARTCHAR 52BE
ENCODING 21182
SWIDTH 1040 0
DWIDTH 13 0
BBX 13 13 0 -2
BITMAP
38E0
36C0
FED0
37F8
EEB0
58B0
36B0
2EB0
E8B0
D8B0
1F30
36F0
C760
ENDCHAR
STARTCHAR 52C1
ENCODING 21185
SWIDTH 1040 0
DWIDTH 13 0
BBX 13 13 0 -2
BITMAP
0BC0
FF80
57B0
ABF8
FFB0
57B0
FFB0
33B0
33B0
33B0
3F60
F6E0
C8C0
ENDCHAR
STARTCHAR 52C3
ENCODING 21187
SWIDTH 1040 0
DWIDTH 13 0
BBX 13 13 0 -2
BITMAP
3BC0
3380
FFB0
33F8
7FB0
C7B0
7BB0
1FB0
1BB0
FBB0
B730
76F0
6860
ENDCHAR
STARTCHAR 52C5
ENCODING 21189
SWIDTH 1040 0
DWIDTH 13 0
BBX 13 13 0 -2
BITMAP
3BC0
3380
FFB0
37F8
FFB0
B3B0
FFB0
B3B0
BBB0
7BB0
7760
B6E0
38C0
ENDCHAR
STARTCHAR 52C7
ENCODING 21191
SWIDTH 1040 0
DWIDTH 13 0
BBX 12 13 0 -2
BITMAP
00C0
3FE0
0B80
3FE0
3760
3FE0
3760
FFF0
FE60
0E60
1860
37C0
C380
ENDCHAR
STARTCHAR 52C9
ENCODING 21193
SWIDTH 1040 0
DWIDTH 13 0
BBX 13 13 0 -2
BITMAP
63C0
7B80
5BB0
ABF8
FFB0
DBB0
FFB0
5BB0
5BB0
7B70
5E68
5FF8
8FF8
ENDCHAR
STARTCHAR 52CD
ENCODING 21197
SWIDTH 1040 0
DWIDTH 13 0
BBX 13 13 0 -2
BITMAP
3BC0
3380
FFB0
07F8
7BB0
6BB0
7BB0
73B0
7330
FF30
B730
76E0
68C0
ENDCHAR
STARTCHAR 52D2
ENCODING 21202
SWIDTH 1040 0
DWIDTH 13 0
BBX 13 13 0 -2
BITMAP
6BC0
FF80
6BB0
7FF8
33B0
FFB0
B7B0
FFB0
F330
3330
FF60
36E0
38C0
ENDCHAR
STARTCHAR 52D5
ENCODING 21205
SWIDTH 1040 0
DWIDTH 13 0
BBX 13 13 0 -2
BITMAP
1EC0
F880
36B0
FFF8
B6B0
FEB0
B6B0
B6B0
B6B0
FEB0
3330
FFE0
C6C0
ENDCHAR
STARTCHAR 52D7
ENCODING 21207
SWIDTH 1040 0
DWIDTH 13 0
BBX 13 13 0 -2
BITMAP
10C0
1FE0
18C0
1FC0
58C0
7FC0
6EB0
7FF8
6EB0
6EB0
7EB0
EEF0
CF60
ENDCHAR
STARTCHAR 52D8
ENCODING 21208
SWIDTH 1040 0
DWIDTH 13 0
BBX 13 13 0 -2
BITMAP
6EE0
FFC0
6ED0
7FF8
6EB0
7EB0
6EB0
FFB0
DEB0
DEB0
EEB0
FF70
C660
ENDCHAR
STARTCHAR 52D9
ENCODING 21209
SWIDTH 1040 0
DWIDTH 13 0
BBX 13 13 0 -2
BITMAP
0BC0
FFB0
5BF8
3760
2EC0
FFB8
7BB0
7FF8
F3B0
B3B0
3730
F6F0
6860
ENDCHAR
STARTCHAR 52DD
ENCODING 21213
SWIDTH 1040 0
DWIDTH 13 0
BBX 13 13 0 -2
BITMAP
5ED0
7BE0
5FF0
58D0
7FF8
5BA0
5BF8
7ED8
5ED0
5FF0
5BB0
7B70
B660
ENDCHAR
STARTCHAR 52DE
ENCODING 21214
SWIDTH 1040 0
DWIDTH 13 0
BBX 13 13 0 -2
BITMAP
1EE0
5BD8
DFD0
36A0
4730
FFF8
CE10
7FE0
7E60
0E60
1860
17C0
6380
ENDCHAR
STARTCHAR 52DF
ENCODING 21215
SWIDTH 1040 0
DWIDTH 13 0
BBX 13 13 0 -2
BITMAP
18D0
FFF8
18C0
3FE0
3060
3FE0
3760
FFF8
F740
3740
DFF8
0ED0
3B80
ENDCHAR
STARTCHAR 52E0
ENCODING 21216
SWIDTH 1040 0
DWIDTH 13 0
BBX 13 13 0 -2
BITMAP
36C0
FE80
B6B0
7FF8
B6B0
7EB0
D8B0
2FB0
FEB0
D6B0
2F30
DBF0
6660
ENDCHAR
STARTCHAR 52E2
ENCODING 21218
SWIDTH 1040 0
DWIDTH 13 0
BBX 13 13 0 -2
BITMAP
3380
FF60
33F0
FF60
5BE8
DBB0
3ED8
EE38
AE30
BFF0
0E60
1BE0
60C0
ENDCHAR
STARTCHAR 52E3
ENCODING 21219
SWIDTH 1040 0
DWIDTH 13 0
BBX 13 13 0 -2
BITMAP
36C0
FF80
36B0
7FF8
30B0
FFB0
6EB0
7EB0
6EB0
6EB0
7EB0
6F60
C760
ENDCHAR
STARTCHAR 52E4
ENCODING 21220
SWIDTH 1040 0
DWIDTH 13 0
BBX 13 13 0 -2
BITMAP
6BC0
FF80
6BB0
FFF8
B7B0
FFB0
33B0
FFB0
F3B0
33B0
FF30
37F0
FE60
ENDCHAR
STARTCHAR 52E6
ENCODING 21222
SWIDTH 1040 0
DWIDTH 13 0
BBX 13 13 0 -2
BITMAP
F7C0
5680
FEB0
B7F8
FEB0
B6B0
FEB0
30B0
30B0
FFB0
7B30
77F0
B660
ENDCHAR
STARTCHAR 52E7
ENCODING 21223
SWIDTH 1040 0
DWIDTH 13 0
BBX 13 13 0 -2
BITMAP
38E0
36C0
7ED0
47F8
FEB0
36B0
7FB0
E8B0
E8B0
7FB0
68B0
7F70
4660
ENDCHAR
STARTCHAR 52F2
ENCODING 21234
SWIDTH 1040 0
DWIDTH 13 0
BBX 13 13 0 -2
BITMAP
1EC0
F880
36B0
FFF8
B6B0
FEB0
B6B0
FEB0
F3B0
3370
FF60
5BB0
CED8
ENDCHAR
STARTCHAR 52F3
ENCODING 21235
SWIDTH 1040 0
DWIDTH 13 0
BBX 13 13 0 -2
BITMAP
1EC0
F880
36B0
FFF8
B6B0
FEB0
B6B0
FEB0
F130
3330
FFB0
6EF0
DB60
ENDCHAR
STARTCHAR 52F5
ENCODING 21237
SWIDTH 1040 0
DWIDTH 13 0
BBX 13 13 0 -2
BITMAP
46C0
7F80
76B0
7FF8
6BB0
7FB0
6BB0
7FB0
6BB0
6BB0
BFB0
BB70
2760
ENDCHAR
STARTCHAR 52F8
ENCODING 21240
SWIDTH 1040 0
DWIDTH 13 0
BBX 13 13 0 -2
BITMAP
2BC0
FF80
2BB0
FFF8
DBB0
FFB0
2FB0
6BB0
6BB0
FFB0
6B30
7FF0
6E60
ENDCHAR
STARTCHAR 52F9
ENCODING 21241
SWIDTH 1040 0
DWIDTH 13 0
BBX 13 13 0 -2
BITMAP
1E00
1830
1FF8
3030
2030
4030
8030
0030
0020
0060
0060
07C0
0380
ENDCHAR
STARTCHAR 52FA
ENCODING 21242
SWIDTH 1040 0
DWIDTH 13 0
BBX 13 13 0 -2
BITMAP
1E00
1830
3FF8
3030
4830
8E30
0E30
0030
0020
0060
0060
07C0
0380
ENDCHAR
STARTCHAR 52FE
ENCODING 21246
SWIDTH 1040 0
DWIDTH 13 0
BBX 13 13 0 -2
BITMAP
1E00
1830
3FF8
2030
4E30
8E30
1B30
13B0
13B0
7FB0
3060
03E0
00C0
ENDCHAR
STARTCHAR 52FF
ENCODING 21247
SWIDTH 1040 0
DWIDTH 13 0
BBX 13 13 0 -2
BITMAP
1E00
1830
3FF8
2BB0
5BB0
9BB0
1330
2730
6630
4630
0860
33E0
00C0
ENDCHAR
STARTCHAR 5301
ENCODING 21249
SWIDTH 1040 0
DWIDTH 13 0
BBX 13 13 0 -2
BITMAP
1E00
1860
3FF0
2760
5760
9E60
0E60
1B60
1340
33C0
C0F8
0FB0
0700
ENDCHAR
STARTCHAR 5302
ENCODING 21250
SWIDTH 1040 0
DWIDTH 13 0
BBX 13 13 0 -2
BITMAP
1E00
1830
3FF8
2030
7730
B730
3E30
3330
33B0
3FB0
1F60
00E0
00C0
ENDCHAR
STARTCHAR 5305
ENCODING 21253
SWIDTH 1040 0
DWIDTH 13 0
BBX 13 13 0 -2
BITMAP
1E00
1860
3FF0
3060
7F60
8760
3F60
33E0
33D0
30D0
3010
3FF8
1FF8
ENDCHAR
STARTCHAR 5306
ENCODING 21254
SWIDTH 1040 0
DWIDTH 13 0
BBX 13 13 0 -2
BITMAP
1E00
1830
3FF8
37F0
76B0
9EB0
0F30
13B0
72B0
66F0
0860
33E0
00C0
ENDCHAR
STARTCHAR 5308
ENCODING 21256
SWIDTH 1040 0
DWIDTH 13 0
BBX 13 13 0 -2
BITMAP
1E00
1830
3FF8
3730
77F0
BBB0
3FB0
37B0
37B0
3FB0
33E0
03E0
00C0
ENDCHAR
STARTCHAR 530D
ENCODING 21261
SWIDTH 1040 0
DWIDTH 13 0
BBX 13 13 0 -2
BITMAP
1E00
1830
3FF8
6EB0
BFF0
0E30
3FF0
2EB0
2EB0
3FB0
2EB0
3FF0
2EA0
ENDCHAR
STARTCHAR 530F
ENCODING 21263
SWIDTH 1040 0
DWIDTH 13 0
BBX 13 13 0 -2
BITMAP
3BC0
33B0
FFF8
3330
6FF0
9670
FFF0
63B0
7BA0
FBE0
1B90
7BF8
30F8
ENDCHAR
STARTCHAR 5310
ENCODING 21264
SWIDTH 1040 0
DWIDTH 13 0
BBX 13 13 0 -2
BITMAP
1E00
1830
3FF8
20B0
7FF0
9B30
3FF0
2EB0
2EB0
3FB0
2EE0
3FE0
20C0
ENDCHAR
STARTCHAR 5315
ENCODING 21269
SWIDTH 1040 0
DWIDTH 13 0
BBX 11 13 1 -2
BITMAP
3C00
3000
3080
31C0
3780
3E00
3000
F000
F040
3040
3040
3FE0
1FE0
ENDCHAR
STARTCHAR 5316
ENCODING 21270
SWIDTH 1040 0
DWIDTH 13 0
BBX 13 13 0 -2
BITMAP
1BC0
1B80
1B80
33B0
33B0
73E0
B380
3380
3390
3390
3390
33F8
30F8
ENDCHAR
STARTCHAR 5317
ENCODING 21271
SWIDTH 1040 0
DWIDTH 13 0
BBX 13 13 0 -2
BITMAP
1FC0
1B80
1BB0
FBB0
1BE0
1B80
3B80
FB90
DB90
DB90
1BF8
18F8
1800
ENDCHAR
STARTCHAR 5319
ENCODING 21273
SWIDTH 1040 0
DWIDTH 13 0
BBX 13 13 0 -2
BITMAP
4E00
7FE0
6ED8
7ED8
6EF0
FFC0
58D0
7FF8
5878
5878
7800
5FF8
8FF8
ENDCHAR
STARTCHAR 531A
ENCODING 21274
SWIDTH 1040 0
DWIDTH 13 0
BBX 12 13 1 -2
BITMAP
80C0
FFE0
C000
C000
C000
C000
C000
C000
C000
C000
C060
FFF0
C000
ENDCHAR
STARTCHAR 531D
ENCODING 21277
SWIDTH 1040 0
DWIDTH 13 0
BBX 12 13 1 -2
BITMAP
80C0
FFE0
C700
D740
DFE0
D740
D740
D7C0
D740
D740
C760
FFF0
C000
ENDCHAR
STARTCHAR 5320
ENCODING 21280
SWIDTH 1040 0
DWIDTH 13 0
BBX 12 13 1 -2
BITMAP
80C0
FFE0
D0C0
DF80
DC40
DFE0
DD80
DD80
D180
D180
E1A0
FFF0
C000
ENDCHAR
STARTCHAR 5321
ENCODING 21281
SWIDTH 1040 0
DWIDTH 13 0
BBX 12 13 1 -2
BITMAP
8060
FFF0
C000
FFE0
C700
DFC0
C700
C740
C760
FFE0
C020
FFF0
C000
ENDCHAR
STARTCHAR 5323
ENCODING 21283
SWIDTH 1040 0
DWIDTH 13 0
BBX 12 13 1 -2
BITMAP
80C0
FFE0
C000
DFC0
D740
DFC0
D740
DFC0
D740
D740
C760
FFF0
C000
ENDCHAR
STARTCHAR 532A
ENCODING 21290
SWIDTH 1040 0
DWIDTH 13 0
BBX 12 13 1 -2
BITMAP
8060
FFF0
DD80
FDE0
DD80
FDE0
DD80
FDE0
DD80
DD80
D1A0
FFF0
C000
ENDCHAR
STARTCHAR 532F
ENCODING 21295
SWIDTH 1040 0
DWIDTH 13 0
BBX 12 13 1 -2
BITMAP
80C0
FFE0
E7C0
D680
F7E0
CF40
D7E0
F740
D760
D7E0
D020
FFF0
C000
ENDCHAR
STARTCHAR 5331
ENCODING 21297
SWIDTH 1040 0
DWIDTH 13 0
BBX 12 13 1 -2
BITMAP
8060
FFF0
D740
FFF0
DCC0
DFC0
DCC0
DFC0
DC80
CC80
DCE0
FFF0
C000
ENDCHAR
STARTCHAR 5333
ENCODING 21299
SWIDTH 1040 0
DWIDTH 13 0
BBX 12 13 1 -2
BITMAP
80C0
FFE0
C600
CF00
CCF0
FFE0
D6C0
DFC0
DEC0
CEC0
D760
FFF0
C000
ENDCHAR
STARTCHAR 5338
ENCODING 21304
SWIDTH 1040 0
DWIDTH 13 0
BBX 13 12 0 -2
BITMAP
0030
FFF8
6000
6000
6000
6000
6000
6000
6000
6000
7FF8
3FF8
ENDCHAR
STARTCHAR 5339
ENCODING 21305
SWIDTH 1040 0
DWIDTH 13 0
BBX 13 12 0 -2
BITMAP
8060
FFF0
DB80
DB80
DBA0
DBA0
D3F0
E3F0
E0F0
C020
FFF8
C000
ENDCHAR
STARTCHAR 533A
ENCODING 21306
SWIDTH 1040 0
DWIDTH 13 0
BBX 12 13 1 -2
BITMAP
80C0
FFE0
C080
E1C0
DD80
CF00
C700
CD80
D1C0
F1C0
C060
FFF0
C000
ENDCHAR
STARTCHAR 533B
ENCODING 21307
SWIDTH 1040 0
DWIDTH 13 0
BBX 12 13 1 -2
BITMAP
80C0
FFE0
DC00
DFC0
D700
FFE0
C700
CEC0
CCC0
CCC0
D060
FFF0
C000
ENDCHAR
STARTCHAR 533F
ENCODING 21311
SWIDTH 1040 0
DWIDTH 13 0
BBX 12 13 1 -2
BITMAP
80C0
FFE0
DD80
FFC0
CE40
FFE0
CE00
DFC0
DD80
FD80
DDA0
FFF0
C000
ENDCHAR
STARTCHAR 5340
ENCODING 21312
SWIDTH 1040 0
DWIDTH 13 0
BBX 12 13 1 -2
BITMAP
80C0
FFE0
CC80
CFC0
CD80
EFA0
FDF0
ED60
ED60
FDE0
C020
FFF0
C000
ENDCHAR
STARTCHAR 5341
ENCODING 21313
SWIDTH 1040 0
DWIDTH 13 0
BBX 13 13 0 -2
BITMAP
0780
0700
0700
0700
0730
FFF8
0700
0700
0700
0700
0700
0700
0700
ENDCHAR
STARTCHAR 5343
ENCODING 21315
SWIDTH 1040 0
DWIDTH 13 0
BBX 13 13 0 -2
BITMAP
00C0
0FE0
7F00
0700
0730
FFF8
0700
0700
0700
0700
0700
0700
0700
ENDCHAR
STARTCHAR 5345
ENCODING 21317
SWIDTH 1040 0
DWIDTH 13 0
BBX 13 13 0 -2
BITMAP
3FF0
3760
3760
3770
FFF8
3760
3760
3760
3760
3760
2760
2760
4760
ENDCHAR
STARTCHAR 5346
ENCODING 21318
SWIDTH 1040 0
DWIDTH 13 0
BBX 13 13 0 -2
BITMAP
0F00
0EC0
7FE0
0ED0
18D0
30F8
C778
0710
0718
FFF8
0700
0700
0700
ENDCHAR
STARTCHAR 5347
ENCODING 21319
SWIDTH 1040 0
DWIDTH 13 0
BBX 13 13 0 -2
BITMAP
0EE0
1EC0
F8C0
18C0
18D0
FFF8
18C0
18C0
10C0
10C0
30C0
20C0
C0C0
ENDCHAR
STARTCHAR 5348
ENCODING 21320
SWIDTH 1040 0
DWIDTH 13 0
BBX 13 13 0 -2
BITMAP
3800
3060
3FF0
6700
4700
8730
FFF8
0700
0700
0700
0700
0700
0700
ENDCHAR
STARTCHAR 5349
ENCODING 21321
SWIDTH 1040 0
DWIDTH 13 0
BBX 13 13 0 -2
BITMAP
0780
0760
7FF0
0700
3FE0
37C0
30D0
FFF8
F0C0
30C0
30C0
20C0
C0C0
ENDCHAR
STARTCHAR 534A
ENCODING 21322
SWIDTH 1040 0
DWIDTH 13 0
BBX 13 13 0 -2
BITMAP
47A0
3770
3740
07A0
7FF0
0700
0730
FFF8
FF00
0700
0700
0700
0700
ENDCHAR
STARTCHAR 534D
ENCODING 21325
SWIDTH 1040 0
DWIDTH 13 0
BBX 13 13 0 -2
BITMAP
0738
FFB0
0730
0730
4730
7FF0
6730
6700
6700
6700
6730
67F8
6700
ENDCHAR
STARTCHAR 5351
ENCODING 21329
SWIDTH 1040 0
DWIDTH 13 0
BBX 13 13 0 -2
BITMAP
0F00
2E60
3FF0
3760
3FE0
3760
3FE0
1B80
13B0
13B0
FFF8
0380
0380
ENDCHAR
STARTCHAR 5352
ENCODING 21330
SWIDTH 1040 0
DWIDTH 13 0
BBX 13 13 0 -2
BITMAP
0780
0760
7FF0
18C0
18C0
3760
4730
FFF8
FF00
0700
0700
0700
0700
ENDCHAR
STARTCHAR 5353
ENCODING 21331
SWIDTH 1040 0
DWIDTH 13 0
BBX 13 13 0 -2
BITMAP
0720
07F0
2700
3FF0
3060
3FE0
3060
3FE0
3F30
0730
FFF8
0700
0700
ENDCHAR
STARTCHAR 5354
ENCODING 21332
SWIDTH 1040 0
DWIDTH 13 0
BBX 13 13 0 -2
BITMAP
7780
6760
6FF0
FF60
6760
6EE0
6B50
7FF8
6B50
6B50
6B50
7FF0
66A0
ENDCHAR
STARTCHAR 5357
ENCODING 21335
SWIDTH 1040 0
DWIDTH 13 0
BBX 13 13 0 -2
BITMAP
0780
0730
FFF8
0700
7FF8
6BB0
7FF0
6730
6730
7FF0
6730
6770
6760
ENDCHAR
STARTCHAR 5358
ENCODING 21336
SWIDTH 1040 0
DWIDTH 13 0
BBX 13 13 0 -2
BITMAP
3760
1340
3FE0
3760
3FE0
3760
3FE0
0730
0738
FFF8
0700
0700
0700
ENDCHAR
STARTCHAR 535A
ENCODING 21338
SWIDTH 1040 0
DWIDTH 13 0
BBX 13 13 0 -2
BITMAP
38F0
30D0
3FF8
FED0
37F0
36D0
37F0
3068
3068
3FF8
3660
37E0
30C0
ENDCHAR
STARTCHAR 535C
ENCODING 21340
SWIDTH 1040 0
DWIDTH 13 0
BBX 7 13 5 -2
BITMAP
F0
E0
E0
E0
F8
EE
E6
E0
E0
E0
E0
E0
E0
ENDCHAR
STARTCHAR 535E
ENCODING 21342
SWIDTH 1040 0
DWIDTH 13 0
BBX 13 13 0 -2
BITMAP
0780
0730
FFF8
0700
07C0
0770
0730
0700
0700
0700
0700
0700
0700
ENDCHAR
STARTCHAR 5360
ENCODING 21344
SWIDTH 1040 0
DWIDTH 13 0
BBX 10 13 2 -2
BITMAP
1E00
1C00
1D80
1FC0
1C00
9D80
FFC0
C180
C180
C180
C180
FF80
C180
ENDCHAR
STARTCHAR 5366
ENCODING 21350
SWIDTH 1040 0
DWIDTH 13 0
BBX 13 13 0 -2
BITMAP
1EE0
18C0
7FC0
18C0
FFF0
18D8
18D8
7FC0
78C0
18C0
1FC0
F8C0
60C0
ENDCHAR
STARTCHAR 5369
ENCODING 21353
SWIDTH 1040 0
DWIDTH 13 0
BBX 8 13 3 -2
BITMAP
86
FF
C6
C6
C6
C6
C6
FE
DC
DC
C0
C0
C0
ENDCHAR
STARTCHAR 536E
ENCODING 21358
SWIDTH 1040 0
DWIDTH 13 0
BBX 13 13 0 -2
BITMAP
0060
23F0
3F80
3030
3FF8
3020
3FF0
2E60
2E60
6EE0
4E50
8FF8
07F8
ENDCHAR
STARTCHAR 536F
ENCODING 21359
SWIDTH 1040 0
DWIDTH 13 0
BBX 13 13 0 -2
BITMAP
0E00
9F30
F3F8
DFB0
DBB0
DBB0
DBB0
FBB0
DBB0
DBF0
9BB0
1380
6380
ENDCHAR
STARTCHAR 5370
ENCODING 21360
SWIDTH 1040 0
DWIDTH 13 0
BBX 12 13 1 -2
BITMAP
0E00
9E60
F7F0
C760
D760
FF60
C760
D760
D760
FFE0
C760
C700
0700
ENDCHAR
STARTCHAR 5371
ENCODING 21361
SWIDTH 1040 0
DWIDTH 13 0
BBX 13 13 0 -2
BITMAP
18C0
1FC0
3330
3FF8
F620
37F0
3760
37E0
2760
6760
4710
87F8
03F8
ENDCHAR
STARTCHAR 5373
ENCODING 21363
SWIDTH 1040 0
DWIDTH 13 0
BBX 13 13 0 -2
BITMAP
4B30
7FF8
6BB0
7BB0
6BB0
7BB0
73B0
6BB0
6BB0
7FF0
E7B0
C380
0380
ENDCHAR
STARTCHAR 5374
ENCODING 21364
SWIDTH 1040 0
DWIDTH 13 0
BBX 13 13 0 -2
BITMAP
3B30
33F8
FFB0
33B0
33B0
FFB0
33B0
6BB0
4BB0
4FF0
FFB0
CB80
0380
ENDCHAR
STARTCHAR 5375
ENCODING 21365
SWIDTH 1040 0
DWIDTH 13 0
BBX 13 13 0 -2
BITMAP
0E00
9F30
F3F8
DBB0
FBF0
FBF0
DBB0
DBB0
DBB0
FBF0
DBB0
1380
6380
ENDCHAR
STARTCHAR 5377
ENCODING 21367
SWIDTH 1040 0
DWIDTH 13 0
BBX 13 13 0 -2
BITMAP
3760
1640
7FF0
0EA0
FFF8
1880
1FF8
3BB0
FBB0
DB90
1820
1FF0
0FF0
ENDCHAR
STARTCHAR 5378
ENCODING 21368
SWIDTH 1040 0
DWIDTH 13 0
BBX 13 13 0 -2
BITMAP
7000
6BB0
7FF8
9BB0
FFB0
1BB0
FBB0
DFB0
DBB0
DBF0
DFB0
F380
C380
ENDCHAR
STARTCHAR 537B
ENCODING 21371
SWIDTH 1040 0
DWIDTH 13 0
BBX 13 13 0 -2
BITMAP
6B30
4FF8
77B0
BBB0
2BB0
67B0
7FB0
EBB0
EBB0
6BF0
6BB0
7B80
6B80
ENDCHAR
STARTCHAR 537F
ENCODING 21375
SWIDTH 1040 0
DWIDTH 13 0
BBX 13 13 0 -2
BITMAP
33B0
FFF8
DBB0
DFB0
DBB0
DFB0
DBB0
FBF0
ABB0
AFB0
7F80
5B80
8380
ENDCHAR
STARTCHAR 5382
ENCODING 21378
SWIDTH 1040 0
DWIDTH 13 0
BBX 13 13 0 -2
BITMAP
2030
3FF8
3000
3000
3000
3000
3000
3000
2000
2000
6000
4000
8000
ENDCHAR
STARTCHAR 5384
ENCODING 21380
SWIDTH 1040 0
DWIDTH 13 0
BBX 13 13 0 -2
BITMAP
2030
3FF8
3000
37F0
3760
3760
3760
27E0
2770
6770
4710
87F8
03F8
ENDCHAR
STARTCHAR 5396
ENCODING 21398
SWIDTH 1040 0
DWIDTH 13 0
BBX 13 13 0 -2
BITMAP
2030
3FF8
3780
3760
3FD8
3770
37A8
2FD8
2BD0
6BB0
5BD0
93F8
60F8
ENDCHAR
STARTCHAR 5398
ENCODING 21400
SWIDTH 1040 0
DWIDTH 13 0
BBX 13 12 0 -1
BITMAP
3FF0
3000
3FE0
3760
3FE0
3760
3FE0
3720
3730
7FF0
4710
BFF8
ENDCHAR
STARTCHAR 539A
ENCODING 21402
SWIDTH 1040 0
DWIDTH 13 0
BBX 13 13 0 -2
BITMAP
2030
3FF8
3620
37F0
3760
37E0
3760
37E0
27D0
60D0
7FF8
8380
0780
ENDCHAR
STARTCHAR 539F
ENCODING 21407
SWIDTH 1040 0
DWIDTH 13 0
BBX 13 13 0 -2
BITMAP
2030
3FF8
3380
37E0
3760
37E0
3760
27E0
2F80
6B80
5BB0
9798
6718
ENDCHAR
STARTCHAR 53A0
ENCODING 21408
SWIDTH 1040 0
DWIDTH 13 0
BBX 13 13 0 -2
BITMAP
4030
7FF8
6880
6FB8
6BB0
6FB0
6BB0
6FB0
6BB0
6BB0
4FB0
9BF0
30E0
ENDCHAR
STARTCHAR 53A5
ENCODING 21413
SWIDTH 1040 0
DWIDTH 13 0
BBX 13 13 0 -2
BITMAP
4030
7FF8
7760
6ED0
7FF8
6EB0
6EE0
7FC0
6EA0
6EA0
5BB8
9330
2610
ENDCHAR
STARTCHAR 53A6
ENCODING 21414
SWIDTH 1040 0
DWIDTH 13 0
BBX 13 13 0 -2
BITMAP
2030
3FF8
3020
3FF0
3760
37E0
3760
37E0
36C0
6EC0
5B80
8778
3830
ENDCHAR
STARTCHAR 53A8
ENCODING 21416
SWIDTH 1040 0
DWIDTH 13 0
BBX 13 13 0 -2
BITMAP
4030
7FF8
6300
6FB8
6030
6FF8
6BB0
6FF0
4B30
5B30
4BB0
BEF0
1860
ENDCHAR
STARTCHAR 53A9
ENCODING 21417
SWIDTH 1040 0
DWIDTH 13 0
BBX 13 13 0 -2
BITMAP
4030
7FF8
6000
6FF0
6B60
6F68
6BF8
6F60
6860
68E0
5FA8
98B8
0718
ENDCHAR
STARTCHAR 53AD
ENCODING 21421
SWIDTH 1040 0
DWIDTH 13 0
BBX 13 13 0 -2
BITMAP
4060
7FF0
6000
7EF0
6ED0
7FF8
6EC0
7EC0
6EE0
6EE0
7EB8
AEB0
2F10
ENDCHAR
STARTCHAR 53AE
ENCODING 21422
SWIDTH 1040 0
DWIDTH 13 0
BBX 13 13 0 -2
BITMAP
4030
7FF8
6EB0
6EE0
7F90
6EF8
6FB0
6EB0
6EB0
7FB0
4BB0
9BB0
6730
ENDCHAR
STARTCHAR 53B0
ENCODING 21424
SWIDTH 1040 0
DWIDTH 13 0
BBX 13 13 0 -2
BITMAP
4030
7FF8
6B60
7F60
6ED0
7FF8
67B0
7F70
7760
7760
7F78
A750
2F90
ENDCHAR
STARTCHAR 53B3
ENCODING 21427
SWIDTH 1040 0
DWIDTH 13 0
BBX 13 13 0 -2
BITMAP
3760
5350
7FF8
60C0
7FD0
6EF8
7FB0
7BB0
5BA0
5FE0
5BB8
BFD0
3390
ENDCHAR
STARTCHAR 53B6
ENCODING 21430
SWIDTH 1040 0
DWIDTH 13 0
BBX 13 13 0 -2
BITMAP
0780
0700
0700
0700
0E00
0E00
1880
1040
3060
2020
FFF0
7E38
4018
ENDCHAR
STARTCHAR 53BB
ENCODING 21435
SWIDTH 1040 0
DWIDTH 13 0
BBX 13 13 0 -2
BITMAP
0780
0760
7FF0
0700
0730
FFF8
0700
0E80
08C0
0840
17E0
7E30
3030
ENDCHAR
STARTCHAR 53C2
ENCODING 21442
SWIDTH 1040 0
DWIDTH 13 0
BBX 13 13 0 -2
BITMAP
0F00
0880
7FE0
3720
FFF8
1B40
37F8
DB30
DB40
06C0
3B80
0700
3800
ENDCHAR
STARTCHAR 53C3
ENCODING 21443
SWIDTH 1040 0
DWIDTH 13 0
BBX 13 13 0 -2
BITMAP
0E80
1860
7FF0
30E0
5B30
FFF8
DB80
3F78
23F0
E3B0
3ED0
0380
1E00
ENDCHAR
STARTCHAR 53C8
ENCODING 21448
SWIDTH 1040 0
DWIDTH 13 0
BBX 13 12 0 -2
BITMAP
00C0
7FE0
10C0
10C0
0B80
0B80
0700
0780
0780
08F8
3070
C010
ENDCHAR
STARTCHAR 53C9
ENCODING 21449
SWIDTH 1040 0
DWIDTH 13 0
BBX 13 13 0 -2
BITMAP
00C0
7FE0
28C0
2EC0
16C0
1B80
0B80
0700
0780
0F80
08F8
3070
C010
ENDCHAR
STARTCHAR 53CA
ENCODING 21450
SWIDTH 1040 0
DWIDTH 13 0
BBX 13 13 0 -2
BITMAP
00C0
7FE0
18C0
1BA0
1FF0
1E60
1660
33C0
2380
2380
47F8
8E70
7010
ENDCHAR
STARTCHAR 53CB
ENCODING 21451
SWIDTH 1040 0
DWIDTH 13 0
BBX 13 13 0 -2
BITMAP
0F00
0E30
FFF8
0E00
0FE0
0EC0
1EC0
1B80
1380
3780
4EF8
9870
6010
ENDCHAR
STARTCHAR 53CC
ENCODING 21452
SWIDTH 1040 0
DWIDTH 13 0
BBX 13 13 0 -2
BITMAP
1860
FFF0
1B60
1B60
7B60
10C0
3EC0
36C0
26A0
27A0
6338
4630
8810
ENDCHAR
STARTCHAR 53CD
ENCODING 21453
SWIDTH 1040 0
DWIDTH 13 0
BBX 13 13 0 -2
BITMAP
2030
3FF8
3000
30C0
3FE0
36C0
36C0
2780
2700
6700
4EF8
9870
6010
ENDCHAR
STARTCHAR 53CE
ENCODING 21454
SWIDTH 1040 0
DWIDTH 13 0
BBX 13 13 0 -2
BITMAP
1E00
7860
5FF0
5B60
5B60
5B40
58C0
7880
58C0
D8C0
DB78
1E30
1810
ENDCHAR
STARTCHAR 53D4
ENCODING 21460
SWIDTH 1040 0
DWIDTH 13 0
BBX 13 13 0 -2
BITMAP
3860
33F0
3F60
3360
FF60
30C0
B8C0
FEC0
B6A0
B6A0
B0B8
7330
6E10
ENDCHAR
STARTCHAR 53D6
ENCODING 21462
SWIDTH 1040 0
DWIDTH 13 0
BBX 13 13 0 -2
BITMAP
0600
FF30
6FF8
7EB0
6EB0
7EA0
6E60
7E40
6E60
6EE0
EEB8
CF30
0E10
ENDCHAR
STARTCHAR 53D7
ENCODING 21463
SWIDTH 1040 0
DWIDTH 13 0
BBX 13 13 0 -2
BITMAP
0070
7FE0
1360
5B90
FFF8
C030
3FE0
10C0
1880
0B80
0FF8
1870
E010
ENDCHAR
STARTCHAR 53D9
ENCODING 21465
SWIDTH 1040 0
DWIDTH 13 0
BBX 13 13 0 -2
BITMAP
3000
3860
4FF0
7B60
B360
FF60
30C0
F8C0
BEC0
BEC0
B0B8
7330
6E10
ENDCHAR
STARTCHAR 53DB
ENCODING 21467
SWIDTH 1040 0
DWIDTH 13 0
BBX 13 13 0 -2
BITMAP
3630
BFF8
F700
3760
FFF0
3760
3FE0
F740
B740
AEC0
6BB8
5330
8E10
ENDCHAR
STARTCHAR 53DF
ENCODING 21471
SWIDTH 1040 0
DWIDTH 13 0
BBX 13 13 0 -2
BITMAP
2E60
3FF0
3760
3FE0
3760
3FE0
0700
7FE0
70C0
10C0
0F80
18F8
E030
ENDCHAR
STARTCHAR 53E1
ENCODING 21473
SWIDTH 1040 0
DWIDTH 13 0
BBX 13 13 0 -2
BITMAP
1E00
5B30
FFF8
D6B0
7EB0
ABA0
7EE0
7740
B660
BE60
36B8
3EB0
3710
ENDCHAR
STARTCHAR 53E2
ENCODING 21474
SWIDTH 1040 0
DWIDTH 13 0
BBX 13 13 0 -2
BITMAP
5BA0
3BD0
FFF8
18C0
7FE0
0730
FFF8
6E20
6E30
7FF0
6EA0
FEF8
CF30
ENDCHAR
STARTCHAR 53E3
ENCODING 21475
SWIDTH 1040 0
DWIDTH 13 0
BBX 11 12 1 -2
BITMAP
80C0
FFE0
C0C0
C0C0
C0C0
C0C0
C0C0
C0C0
C0C0
C0C0
FFC0
C0C0
ENDCHAR
STARTCHAR 53E4
ENCODING 21476
SWIDTH 1040 0
DWIDTH 13 0
BBX 13 13 0 -2
BITMAP
0780
0700
0730
FFF8
0700
0700
2760
3FF0
3060
3060
3060
3FE0
3060
ENDCHAR
STARTCHAR 53E5
ENCODING 21477
SWIDTH 1040 0
DWIDTH 13 0
BBX 13 13 0 -2
BITMAP
3800
3030
3FF8
6030
6730
BFB0
3730
3730
3730
3F30
2060
03E0
00C0
ENDCHAR
STARTCHAR 53E8
ENCODING 21480
SWIDTH 1040 0
DWIDTH 13 0
BBX 13 12 0 -2
BITMAP
9830
FFF8
DBB0
DBB0
DBB0
DBB0
FB30
CB30
CF30
0660
0BE0
10C0
ENDCHAR
STARTCHAR 53E9
ENCODING 21481
SWIDTH 1040 0
DWIDTH 13 0
BBX 13 12 0 -2
BITMAP
9B30
FFF8
DBB0
DBB0
DBB0
DBB0
FBF0
DBB0
DBB0
0380
0380
0380
ENDCHAR
STARTCHAR 53EA
ENCODING 21482
SWIDTH 1040 0
DWIDTH 13 0
BBX 13 13 0 -2
BITMAP
2060
3FF0
3060
3060
3060
3FE0
3060
1880
18E0
1860
3030
2018
C018
ENDCHAR
STARTCHAR 53EB
ENCODING 21483
SWIDTH 1040 0
DWIDTH 13 0
BBX 13 13 0 -2
BITMAP
0070
97E0
FF60
D760
D760
D768
D778
F7E0
D760
DF60
0060
0060
0060
ENDCHAR
STARTCHAR 53EC
ENCODING 21484
SWIDTH 1040 0
DWIDTH 13 0
BBX 13 13 0 -2
BITMAP
0030
FFF8
0E30
0E30
1860
33E0
C0C0
3FE0
30C0
30C0
30C0
3FC0
30C0
ENDCHAR
STARTCHAR 53ED
ENCODING 21485
SWIDTH 1040 0
DWIDTH 13 0
BBX 13 13 0 -2
BITMAP
0640
97C0
FF40
D740
D740
D740
D740
F660
D660
DE20
0838
1030
2010
ENDCHAR
STARTCHAR 53EE
ENCODING 21486
SWIDTH 1040 0
DWIDTH 13 0
BBX 13 13 0 -2
BITMAP
0030
9FF8
F8C0
D8C0
D8C0
D8C0
D8C0
F8C0
D8C0
D8C0
00C0
07C0
0380
ENDCHAR
STARTCHAR 53EF
ENCODING 21487
SWIDTH 1040 0
DWIDTH 13 0
BBX 13 13 0 -2
BITMAP
0030
FFF8
0060
2760
3F60
3760
3760
3F60
3760
3760
0060
03E0
00C0
ENDCHAR
STARTCHAR 53F0
ENCODING 21488
SWIDTH 1040 0
DWIDTH 13 0
BBX 13 13 0 -2
BITMAP
0700
0700
0E40
0820
FFF0
7018
2078
3FE0
3060
3060
3060
3FE0
3060
ENDCHAR
STARTCHAR 53F1
ENCODING 21489
SWIDTH 1040 0
DWIDTH 13 0
BBX 13 13 0 -2
BITMAP
0780
9700
F700
D730
D770
D7C0
DF00
F700
D710
D710
0710
07F8
03F8
ENDCHAR
STARTCHAR 53F2
ENCODING 21490
SWIDTH 1040 0
DWIDTH 13 0
BBX 13 13 0 -2
BITMAP
0780
4730
7FF8
6730
6730
7FF0
6730
1700
1700
0F00
1BF8
3070
C010
ENDCHAR
STARTCHAR 53F3
ENCODING 21491
SWIDTH 1040 0
DWIDTH 13 0
BBX 13 13 0 -2
BITMAP
0F00
0E30
FFF8
0E00
1800
1060
3FF0
D860
D860
1860
1860
1FE0
1860
ENDCHAR
STARTCHAR 53F6
ENCODING 21494
SWIDTH 1040 0
DWIDTH 13 0
BBX 13 13 0 -2
BITMAP
00E0
90C0
F8C0
D0D0
DFF8
D0C0
D0C0
F0C0
D0C0
D0C0
00C0
00C0
00C0
ENDCHAR
STARTCHAR 53F7
ENCODING 21495
SWIDTH 1040 0
DWIDTH 13 0
BBX 13 13 0 -2
BITMAP
10C0
1FE0
18C0
1FC0
0030
FFF8
0E00
1FE0
18C0
18C0
00C0
0F80
0700
ENDCHAR
STARTCHAR 53F8
ENCODING 21496
SWIDTH 1040 0
DWIDTH 13 0
BBX 13 13 0 -2
BITMAP
0030
FFF8
0330
7FB0
0030
3FB0
3730
3730
3730
3F30
3730
00F0
0060
ENDCHAR
STARTCHAR 53FA
ENCODING 21498
SWIDTH 1040 0
DWIDTH 13 0
BBX 13 13 0 -2
BITMAP
0380
9FC0
F080
D080
D3C0
D340
D740
F740
D660
D660
0E38
0830
3010
ENDCHAR
STARTCHAR 5401
ENCODING 21505
SWIDTH 1040 0
DWIDTH 13 0
BBX 13 13 0 -2
BITMAP
0060
9FF0
F8C0
D8C0
D8D0
DFF8
D8C0
F8C0
D8C0
D8C0
00C0
07C0
0380
ENDCHAR
STARTCHAR 5403
ENCODING 21507
SWIDTH 1040 0
DWIDTH 13 0
BBX 13 13 0 -2
BITMAP
0780
9730
FFF8
D800
D0C0
DFE0
D380
F700
D610
CE10
0E10
0FF8
07F8
ENDCHAR
STARTCHAR 5404
ENCODING 21508
SWIDTH 1040 0
DWIDTH 13 0
BBX 13 13 0 -2
BITMAP
0F00
0EC0
1FE0
18C0
3780
CEC0
1878
3FF0
58D0
D8D0
18C0
1FC0
18C0
ENDCHAR
STARTCHAR 5408
ENCODING 21512
SWIDTH 1040 0
DWIDTH 13 0
BBX 13 13 0 -2
BITMAP
0E00
0F00
1B00
10C0
3FF8
C030
20C0
3FE0
30C0
30C0
30C0
3FC0
30C0
ENDCHAR
STARTCHAR 5409
ENCODING 21513
SWIDTH 1040 0
DWIDTH 13 0
BBX 13 13 0 -2
BITMAP
0780
0730
FFF8
0700
0760
7FF0
0000
3FF0
3060
3060
3060
3FE0
3060
ENDCHAR
STARTCHAR 540A
ENCODING 21514
SWIDTH 1040 0
DWIDTH 13 0
BBX 12 13 1 -2
BITMAP
2180
3FC0
3180
3180
3F80
8E60
FFF0
CE60
CE60
CE60
CFE0
CEC0
0E00
ENDCHAR
STARTCHAR 540B
ENCODING 21515
SWIDTH 1040 0
DWIDTH 13 0
BBX 13 13 0 -2
BITMAP
0070
9060
F068
DFF8
D860
D660
D760
F760
D760
D060
0060
03E0
00C0
ENDCHAR
STARTCHAR 540C
ENCODING 21516
SWIDTH 1040 0
DWIDTH 13 0
BBX 12 13 1 -2
BITMAP
8060
FFF0
C160
FFE0
C060
DF60
D760
D760
D760
DF60
D760
C1E0
C0C0
ENDCHAR
STARTCHAR 540D
ENCODING 21517
SWIDTH 1040 0
DWIDTH 13 0
BBX 12 13 0 -2
BITMAP
0F00
0EC0
1FE0
18C0
6F80
0700
0E60
3FF0
5860
D860
1860
1FE0
1860
ENDCHAR
STARTCHAR 540E
ENCODING 21518
SWIDTH 1040 0
DWIDTH 13 0
BBX 13 13 0 -2
BITMAP
00C0
23E0
3F00
3030
3FF8
3000
3860
2FF0
2E60
6E60
4E60
8FE0
0E60
ENDCHAR
STARTCHAR 540F
ENCODING 21519
SWIDTH 1040 0
DWIDTH 13 0
BBX 13 13 0 -2
BITMAP
0780
0730
FFF8
0700
3FF0
3760
3FE0
1760
1760
0F00
0FF8
18F0
E010
ENDCHAR
STARTCHAR 5410
ENCODING 21520
SWIDTH 1040 0
DWIDTH 13 0
BBX 13 12 0 -1
BITMAP
03C0
9B80
FB80
DBA0
DFF0
DB80
DB80
FB80
DB80
DB80
03B0
1FF8
ENDCHAR
STARTCHAR 5411
ENCODING 21521
SWIDTH 1040 0
DWIDTH 13 0
BBX 13 13 0 -2
BITMAP
1E00
9830
FFF8
C030
DFB0
DBB0
DBB0
DFB0
DBB0
DBB0
C030
C0F0
C060
ENDCHAR
STARTCHAR 541B
ENCODING 21531
SWIDTH 1040 0
DWIDTH 13 0
BBX 13 13 0 -2
BITMAP
00C0
7FE0
0ED0
FFF8
0EC0
7FC0
1860
1FF0
1860
3860
D860
1FE0
1860
ENDCHAR
STARTCHAR 541D
ENCODING 21533
SWIDTH 1040 0
DWIDTH 13 0
BBX 13 13 0 -2
BITMAP
0780
0730
FFF8
10C0
0B80
0F00
18F8
3FF0
F8D0
D8D0
18C0
1FC0
18C0
ENDCHAR
STARTCHAR 541F
ENCODING 21535
SWIDTH 1040 0
DWIDTH 13 0
BBX 13 13 0 -2
BITMAP
0300
9780
F680
D860
DFF8
D030
DFD0
F0C0
D080
D380
0380
0700
0700
ENDCHAR
STARTCHAR 5420
ENCODING 21536
SWIDTH 1040 0
DWIDTH 13 0
BBX 13 13 0 -2
BITMAP
03C0
93B0
FBB0
D390
DFF8
D380
D740
F740
D660
D660
0E38
0830
3010
ENDCHAR
STARTCHAR 5426
ENCODING 21542
SWIDTH 1040 0
DWIDTH 13 0
BBX 13 13 0 -2
BITMAP
0030
FFF8
0F00
1FE0
3738
C718
2760
3FF0
3060
3060
3060
3FE0
3060
ENDCHAR
STARTCHAR 5429
ENCODING 21545
SWIDTH 1040 0
DWIDTH 13 0
BBX 13 13 0 -2
BITMAP
0640
97C0
F740
D660
D838
DFF0
D760
F760
D760
D760
0E60
0BC0
3380
ENDCHAR
STARTCHAR 542B
ENCODING 21547
SWIDTH 1040 0
DWIDTH 13 0
BBX 13 13 0 -2
BITMAP
0700
0780
0E40
1FE0
2038
DFD0
0380
1740
1760
1FE0
18C0
1FC0
18C0
ENDCHAR
STARTCHAR 542C
ENCODING 21548
SWIDTH 1040 0
DWIDTH 13 0
BBX 13 13 0 -2
BITMAP
0060
96F0
FF80
D730
D7F8
D760
D760
F760
D660
CE60
0860
1060
0060
ENDCHAR
STARTCHAR 542D
ENCODING 21549
SWIDTH 1040 0
DWIDTH 13 0
BBX 13 13 0 -2
BITMAP
03C0
93B0
FFF8
D000
D660
D7F0
D760
F760
D768
D768
0768
0678
1838
ENDCHAR
STARTCHAR 542E
ENCODING 21550
SWIDTH 1040 0
DWIDTH 13 0
BBX 13 13 0 -2
BITMAP
03C0
9380
FF40
D630
DFF8
DF68
D760
F760
D768
D768
0E68
0E78
3038
ENDCHAR
STARTCHAR 5436
ENCODING 21558
SWIDTH 1040 0
DWIDTH 13 0
BBX 13 13 0 -2
BITMAP
03C0
93B0
FFF8
DBB0
DBB0
DBF0
DB70
FE30
D830
D830
1830
18F0
1860
ENDCHAR
STARTCHAR 5438
ENCODING 21560
SWIDTH 1040 0
DWIDTH 13 0
BBX 13 13 0 -2
BITMAP
10C0
9FE0
F8C0
D8C0
DB80
DFF0
FB60
DB60
D340
30C0
23F8
4730
1810
ENDCHAR
STARTCHAR 5439
ENCODING 21561
SWIDTH 1040 0
DWIDTH 13 0
BBX 13 13 0 -2
BITMAP
0780
9730
F7F8
DE30
DBA0
D3C0
D380
F740
D740
D740
0678
0830
3010
ENDCHAR
STARTCHAR 543B
ENCODING 21563
SWIDTH 1040 0
DWIDTH 13 0
BBX 13 13 0 -2
BITMAP
0780
9730
FFF8
DEB0
D6B0
D6B0
D6B0
FBB0
D3A0
D360
0660
0BE0
00C0
ENDCHAR
STARTCHAR 543C
ENCODING 21564
SWIDTH 1040 0
DWIDTH 13 0
BBX 13 13 0 -2
BITMAP
00F0
9FE0
F3E0
D760
D760
D7E0
DF60
FF60
D768
D768
0768
1F78
0E38
ENDCHAR
STARTCHAR 543D
ENCODING 21565
SWIDTH 1040 0
DWIDTH 13 0
BBX 13 13 0 -2
BITMAP
06E0
97C0
FEE0
D7F0
D8C0
D0D0
DFF8
F0C0
D0C0
D0C0
00C0
00C0
00C0
ENDCHAR
STARTCHAR 543E
ENCODING 21566
SWIDTH 1040 0
DWIDTH 13 0
BBX 13 13 0 -2
BITMAP
0060
7FF0
0E00
3FE0
18C0
18D0
FFF8
0000
3FF0
3FF0
3060
3FE0
3060
ENDCHAR
STARTCHAR 5440
ENCODING 21568
SWIDTH 1040 0
DWIDTH 13 0
BBX 13 13 0 -2
BITMAP
0060
9FF0
F760
D760
D770
DFF8
D0E0
F3E0
D360
D760
0E60
33E0
00C0
ENDCHAR
STARTCHAR 5442
ENCODING 21570
SWIDTH 1040 0
DWIDTH 13 0
BBX 10 13 2 -2
BITMAP
4300
7F80
6300
6300
7F00
3900
A180
FFC0
C180
C180
C180
FF80
C180
ENDCHAR
STARTCHAR 5446
ENCODING 21574
SWIDTH 1040 0
DWIDTH 13 0
BBX 13 13 0 -2
BITMAP
10C0
1FE0
18C0
18C0
1FC0
0730
FFF8
1F80
1740
1740
3778
C730
0710
ENDCHAR
STARTCHAR 5448
ENCODING 21576
SWIDTH 1040 0
DWIDTH 13 0
BBX 13 12 0 -1
BITMAP
10C0
1FE0
18C0
18C0
1FC0
0060
7FF0
0700
07E0
3FE0
0730
FFF8
ENDCHAR
STARTCHAR 5449
ENCODING 21577
SWIDTH 1040 0
DWIDTH 13 0
BBX 13 13 0 -2
BITMAP
08C0
7FE0
6EC0
6FC0
6060
7FF0
6060
0060
0078
FFF8
1080
3870
E038
ENDCHAR
STARTCHAR 544A
ENCODING 21578
SWIDTH 1040 0
DWIDTH 13 0
BBX 13 13 0 -2
BITMAP
3780
3760
3FF0
6700
4730
FFF8
0000
3FF0
3060
3060
3060
3FE0
3060
ENDCHAR
STARTCHAR 544E
ENCODING 21582
SWIDTH 1040 0
DWIDTH 13 0
BBX 13 13 0 -2
BITMAP
1060
9FF0
F860
D860
DFE0
DB60
D880
F8C0
D8C0
D840
1078
1030
6010
ENDCHAR
STARTCHAR 5451
ENCODING 21585
SWIDTH 1040 0
DWIDTH 13 0
BBX 13 13 0 -2
BITMAP
00C0
07E0
7F00
0730
FFF8
0E80
1878
3FF0
F8D0
D8D0
18C0
1FC0
18C0
ENDCHAR
STARTCHAR 545F
ENCODING 21599
SWIDTH 1040 0
DWIDTH 13 0
BBX 13 13 0 -2
BITMAP
03C0
93B0
FFF8
D380
D360
DEC0
D680
F380
D340
D340
0620
1FF0
0E30
ENDCHAR
STARTCHAR 5468
ENCODING 21608
SWIDTH 1040 0
DWIDTH 13 0
BBX 12 13 0 -2
BITMAP
2060
3FF0
3760
3FE0
3760
3FE0
3060
3FE0
2B60
2B60
6F60
4BE0
80C0
ENDCHAR
STARTCHAR 546A
ENCODING 21610
SWIDTH 1040 0
DWIDTH 13 0
BBX 13 13 0 -2
BITMAP
0660
97F0
FF60
D760
D760
D7E0
F6C0
D7C0
D6D0
06D0
0ED0
08F8
3078
ENDCHAR
STARTCHAR 5470
ENCODING 21616
SWIDTH 1040 0
DWIDTH 13 0
BBX 13 13 0 -2
BITMAP
1FD0
DBB0
DFE0
DB90
DF90
FBF8
D0F8
1FC0
18C0
18C0
18C0
1FC0
18C0
ENDCHAR
STARTCHAR 5471
ENCODING 21617
SWIDTH 1040 0
DWIDTH 13 0
BBX 13 13 0 -2
BITMAP
0060
98F0
FFA0
DBA0
DBA0
DBA0
DBA0
FBB0
DBD0
DBD0
13B8
3FF8
4E28
ENDCHAR
STARTCHAR 5473
ENCODING 21619
SWIDTH 1040 0
DWIDTH 13 0
BBX 13 13 0 -2
BITMAP
03C0
93A0
FFF0
D380
D3B0
DFF8
D7C0
F7A0
D7B8
DFB8
0BB0
3390
0380
ENDCHAR
STARTCHAR 5475
ENCODING 21621
SWIDTH 1040 0
DWIDTH 13 0
BBX 13 13 0 -2
BITMAP
0030
9FF8
F830
DBB0
DFF0
DBB0
DBB0
FFB0
DBB0
DBB0
0030
00F0
0060
ENDCHAR
STARTCHAR 5476
ENCODING 21622
SWIDTH 1040 0
DWIDTH 13 0
BBX 13 13 0 -2
BITMAP
0780
9730
F7F8
DFB0
DBB0
DBA0
DB60
FE40
CF60
CF60
0BB8
10B0
2310
ENDCHAR
STARTCHAR 5477
ENCODING 21623
SWIDTH 1040 0
DWIDTH 13 0
BBX 13 13 0 -2
BITMAP
1030
DFF8
FBB0
DBB0
DFF0
DBB0
DBB0
FFF0
DBB0
DBB0
0380
0380
0380
ENDCHAR
STARTCHAR 547B
ENCODING 21627
SWIDTH 1040 0
DWIDTH 13 0
BBX 13 13 0 -2
BITMAP
03C0
9BB0
FFF8
DBB0
DFF0
DBB0
DBB0
FFF0
DBB0
DBB0
0380
0380
0380
ENDCHAR
STARTCHAR 547C
ENCODING 21628
SWIDTH 1040 0
DWIDTH 13 0
BBX 13 13 0 -2
BITMAP
0060
93F0
FFA0
DBB0
D7A0
D7D0
DFF8
F380
D380
D380
0380
0F80
0700
ENDCHAR
STARTCHAR 547D
ENCODING 21629
SWIDTH 1040 0
DWIDTH 13 0
BBX 13 13 0 -2
BITMAP
0E00
0F00
1880
1FC0
2078
FBF0
6BA0
6BA0
6BA0
6BA0
7BE0
6BA0
0380
ENDCHAR
STARTCHAR 5480
ENCODING 21632
SWIDTH 1040 0
DWIDTH 13 0
BBX 13 12 0 -1
BITMAP
0660
97F0
FF60
D760
D7E0
D760
D760
F7E0
D760
D760
0760
3FF8
ENDCHAR
STARTCHAR 5484
ENCODING 21636
SWIDTH 1040 0
DWIDTH 13 0
BBX 13 13 0 -2
BITMAP
03C0
9FB8
FBB0
DBB0
DBB0
DFF8
DBB0
FBB0
DBB0
DBB0
1BB0
1FF0
1830
ENDCHAR
STARTCHAR 5486
ENCODING 21638
SWIDTH 1040 0
DWIDTH 13 0
BBX 13 13 0 -2
BITMAP
0780
9760
FFF0
D860
DFE0
DB60
DB60
FFE0
D8C0
D8C0
1890
1FF8
0FF8
ENDCHAR
STARTCHAR 548B
ENCODING 21643
SWIDTH 1040 0
DWIDTH 13 0
BBX 13 13 0 -2
BITMAP
03C0
93B0
FFF8
D6C0
D6D0
D8F0
D0C0
F0D0
D0D8
D0F8
00C0
00C0
00C0
ENDCHAR
STARTCHAR 548C
ENCODING 21644
SWIDTH 1040 0
DWIDTH 13 0
BBX 13 13 0 -2
BITMAP
1800
3F30
F3F8
33B0
FFB0
33B0
7BB0
7FB0
F3B0
B3B0
33F0
33B0
3000
ENDCHAR
STARTCHAR 548E
ENCODING 21646
SWIDTH 1040 0
DWIDTH 13 0
BBX 13 13 0 -2
BITMAP
38E0
36C0
7EC0
6EA0
9B30
3FF8
27F8
5000
DFE0
9FE0
18C0
1FC0
18C0
ENDCHAR
STARTCHAR 548F
ENCODING 21647
SWIDTH 1040 0
DWIDTH 13 0
BBX 13 13 0 -2
BITMAP
03C0
90E0
FFA0
D3B0
DFB0
D7C0
D7E0
FFA0
CBB8
CBB8
13B0
2F90
0700
ENDCHAR
STARTCHAR 5490
ENCODING 21648
SWIDTH 1040 0
DWIDTH 13 0
BBX 13 13 0 -2
BITMAP
0F70
8E60
F860
DFF8
DE60
DB60
DBE0
F8E0
D8E0
D860
1860
1BE0
18C0
ENDCHAR
STARTCHAR 5492
ENCODING 21650
SWIDTH 1040 0
DWIDTH 13 0
BBX 13 13 0 -2
BITMAP
9B90
FFF8
DBB0
DBB0
FBF0
D3B0
1FC0
1B80
1B90
1B90
1390
33F8
C0F8
ENDCHAR
STARTCHAR 54A2
ENCODING 21666
SWIDTH 1040 0
DWIDTH 13 0
BBX 13 13 0 -2
BITMAP
9B30
FFF8
DBB0
FBF0
0030
FFF8
1800
3FE0
30C0
30C0
00C0
0F80
0700
ENDCHAR
STARTCHAR 54A4
ENCODING 21668
SWIDTH 1040 0
DWIDTH 13 0
BBX 13 13 0 -2
BITMAP
03C0
9BB0
FFF8
D870
DFC0
DBB0
DFF8
FB80
DB90
DB90
0390
03F8
00F8
ENDCHAR
STARTCHAR 54A5
ENCODING 21669
SWIDTH 1040 0
DWIDTH 13 0
BBX 13 12 0 -1
BITMAP
0030
9FF8
FBC0
DB20
DFF0
DFB0
DBA0
FFF0
DB80
DB80
03B0
1FF8
ENDCHAR
STARTCHAR 54A8
ENCODING 21672
SWIDTH 1040 0
DWIDTH 13 0
BBX 13 13 0 -2
BITMAP
0780
3730
FFF8
0BB0
3740
E678
D830
20D0
20E0
3FE0
30C0
3FC0
30C0
ENDCHAR
STARTCHAR 54AB
ENCODING 21675
SWIDTH 1040 0
DWIDTH 13 0
BBX 13 13 0 -2
BITMAP
46B0
7FF8
6EB0
6EB0
6EB0
7EF0
68A0
6B98
6A18
6618
4700
43F8
80F0
ENDCHAR
STARTCHAR 54AC
ENCODING 21676
SWIDTH 1040 0
DWIDTH 13 0
BBX 13 13 0 -2
BITMAP
00E0
98D0
FFF8
DBC0
DB30
DF78
DB40
F8C0
D8E0
DBE0
0338
0630
1810
ENDCHAR
STARTCHAR 54AF
ENCODING 21679
SWIDTH 1040 0
DWIDTH 13 0
BBX 13 13 0 -2
BITMAP
03C0
93A0
F7F0
D760
D8C0
D3A0
D638
FFF0
D760
D760
0760
07E0
0760
ENDCHAR
STARTCHAR 54B2
ENCODING 21682
SWIDTH 1040 0
DWIDTH 13 0
BBX 13 13 0 -2
BITMAP
0830
9760
F350
DFF0
D380
D3B0
DFF8
F380
D340
D740
0778
0E30
3010
ENDCHAR
STARTCHAR 54B3
ENCODING 21683
SWIDTH 1040 0
DWIDTH 13 0
BBX 13 13 0 -2
BITMAP
03C0
93B0
FFF8
D380
DB60
D6C0
D7B0
F360
C740
C6C0
1BB0
0718
1818
ENDCHAR
STARTCHAR 54B8
ENCODING 21688
SWIDTH 1040 0
DWIDTH 13 0
BBX 13 13 0 -2
BITMAP
03E0
23B0
3FF8
3380
3FB0
33B0
3FF0
3760
3768
7FE8
53B0
8738
1818
ENDCHAR
STARTCHAR 54BC
ENCODING 21692
SWIDTH 1040 0
DWIDTH 13 0
BBX 12 13 1 -2
BITMAP
2180
3FC0
3180
3F80
B1A0
FFF0
C060
DF60
DD60
DD60
DF60
DDE0
C0C0
ENDCHAR
STARTCHAR 54BD
ENCODING 21693
SWIDTH 1040 0
DWIDTH 13 0
BBX 13 13 0 -2
BITMAP
1030
9FF8
FBB0
DBB0
DFF0
DBB0
DBB0
FBF0
DA70
DE70
1830
1FF0
1830
ENDCHAR
STARTCHAR 54BE
ENCODING 21694
SWIDTH 1040 0
DWIDTH 13 0
BBX 13 13 0 -2
BITMAP
03C0
9BB0
FFF0
DBA0
DBD0
DFF8
DBA0
FFF0
CFC0
CFC0
33A0
03F0
00F0
ENDCHAR
STARTCHAR 54C0
ENCODING 21696
SWIDTH 1040 0
DWIDTH 13 0
BBX 13 13 0 -2
BITMAP
0710
FFF8
0000
1FE0
18C0
18C0
1FE0
1B30
1BA0
38A0
DBC0
3E78
3030
ENDCHAR
STARTCHAR 54C1
ENCODING 21697
SWIDTH 1040 0
DWIDTH 13 0
BBX 13 13 0 -2
BITMAP
10C0
1FE0
18C0
18C0
1FC0
18C0
8B30
FBF8
DBB0
DBB0
DBB0
FBF0
DBB0
ENDCHAR
STARTCHAR 54C2
ENCODING 21698
SWIDTH 1040 0
DWIDTH 13 0
BBX 13 13 0 -2
BITMAP
0030
9FF8
FB80
DBB0
DFF8
DBB0
DBB0
FBF0
DAF0
DEF0
1830
1FF0
1830
ENDCHAR
STARTCHAR 54C4
ENCODING 21700
SWIDTH 1040 0
DWIDTH 13 0
BBX 13 13 0 -2
BITMAP
07F0
9760
F760
DFF0
D760
D760
D768
FFF8
D040
D040
0E30
0E18
3018
ENDCHAR
STARTCHAR 54C7
ENCODING 21703
SWIDTH 1040 0
DWIDTH 13 0
BBX 13 12 0 -1
BITMAP
03C0
9B80
FFE0
DB80
DFF0
DB80
DBA0
FFF0
DB80
DB80
0390
1FF8
ENDCHAR
STARTCHAR 54C8
ENCODING 21704
SWIDTH 1040 0
DWIDTH 13 0
BBX 13 13 0 -2
BITMAP
0380
9380
F740
D660
D638
DFF0
D010
F7E0
D760
D760
0760
07E0
0760
ENDCHAR
STARTCHAR 54C9
ENCODING 21705
SWIDTH 1040 0
DWIDTH 13 0
BBX 13 13 0 -2
BITMAP
3BC0
33B0
FFB0
3390
FFF8
0380
7BB0
68B0
68A8
68E8
78F0
63B8
1E18
ENDCHAR
STARTCHAR 54D8
ENCODING 21720
SWIDTH 1040 0
DWIDTH 13 0
BBX 13 13 0 -2
BITMAP
0F60
9EF0
F800
D730
D7F8
DE30
DE30
FE30
DE30
DE30
0E30
0EF0
0E60
ENDCHAR
STARTCHAR 54E1
ENCODING 21729
SWIDTH 1040 0
DWIDTH 13 0
BBX 12 13 0 -2
BITMAP
1080
1FC0
1B80
3FE0
30C0
3FC0
30C0
3FC0
30C0
30C0
3FC0
18E0
F070
ENDCHAR
STARTCHAR 54E2
ENCODING 21730
SWIDTH 1040 0
DWIDTH 13 0
BBX 13 13 0 -2
BITMAP
0030
9FF8
F380
D7F0
D390
DFF8
D760
F760
D778
DFF8
0760
0660
1860
ENDCHAR
STARTCHAR 54E5
ENCODING 21733
SWIDTH 1040 0
DWIDTH 13 0
BBX 13 13 0 -2
BITMAP
0060
7FF0
3760
3F60
3760
00F0
FFF8
0060
3F60
3F60
3760
3FE0
30C0
ENDCHAR
STARTCHAR 54E6
ENCODING 21734
SWIDTH 1040 0
DWIDTH 13 0
BBX 13 13 0 -2
BITMAP
0360
97F0
FF78
D768
DFF8
D760
D7F8
FF68
DF68
DF38
0770
1F58
0E98
ENDCHAR
STARTCHAR 54E8
ENCODING 21736
SWIDTH 1040 0
DWIDTH 13 0
BBX 13 13 0 -2
BITMAP
08D0
9ED8
F7D0
D6E0
D7F8
D730
D7F0
F730
D730
D7F0
0730
0770
0760
ENDCHAR
STARTCHAR 54E9
ENCODING 21737
SWIDTH 1040 0
DWIDTH 13 0
BBX 13 12 0 -1
BITMAP
0610
97F8
FED0
D7F0
D6D0
D7F0
D6D0
F0C0
D0F0
DFF0
00D0
1FF8
ENDCHAR
STARTCHAR 54ED
ENCODING 21741
SWIDTH 1040 0
DWIDTH 13 0
BBX 13 13 0 -2
BITMAP
9BB0
FFF8
DBB0
FBF0
9F90
0760
FFF8
0F00
0E80
0E80
18F8
3070
C010
ENDCHAR
STARTCHAR 54EE
ENCODING 21742
SWIDTH 1040 0
DWIDTH 13 0
BBX 13 13 0 -2
BITMAP
03C0
9BB0
FFE0
DBD0
DFF8
DB80
DFE0
F8D0
D8D8
DFF8
0380
0F80
0700
ENDCHAR
STARTCHAR 54F2
ENCODING 21746
SWIDTH 1040 0
DWIDTH 13 0
BBX 13 13 0 -2
BITMAP
3E70
37E0
FF10
37F8
FF60
B660
7860
3FF0
3060
3060
3060
3FE0
3060
ENDCHAR
STARTCHAR 54FA
ENCODING 21754
SWIDTH 1040 0
DWIDTH 13 0
BBX 13 13 0 -2
BITMAP
03E0
93A0
FFF8
D380
DFF8
DBB0
DFF0
FBB0
DBB0
DFF0
1BB0
1BF0
1BA0
ENDCHAR
STARTCHAR 54FD
ENCODING 21757
SWIDTH 1040 0
DWIDTH 13 0
BBX 13 13 0 -2
BITMAP
0030
9FF8
FB80
DFF0
DBB0
DFF0
DBB0
FFF0
DBB0
DBB0
0740
0E78
3030
ENDCHAR
STARTCHAR 5504
ENCODING 21764
SWIDTH 1040 0
DWIDTH 13 0
BBX 13 13 0 -2
BITMAP
0660
97F0
FF60
D7E0
D760
D7E0
D760
F760
D760
D7E0
0760
0738
1818
ENDCHAR
STARTCHAR 5506
ENCODING 21766
SWIDTH 1040 0
DWIDTH 13 0
BBX 13 13 0 -2
BITMAP
03A0
9730
FFF8
DB68
D378
DE38
D3A0
F3E0
D340
D740
1BF8
0770
1810
ENDCHAR
STARTCHAR 5507
ENCODING 21767
SWIDTH 1040 0
DWIDTH 13 0
BBX 13 13 0 -2
BITMAP
2060
3FF0
3010
3FF8
3EB0
2F60
7E38
5FF0
D8C0
98C0
18C0
1FC0
18C0
ENDCHAR
STARTCHAR 550F
ENCODING 21775
SWIDTH 1040 0
DWIDTH 13 0
BBX 13 13 0 -2
BITMAP
0020
9E60
F380
DFE0
D3B0
DFF8
D6C0
FFF0
D6D0
D6D0
06F0
06D0
00C0
ENDCHAR
STARTCHAR 5510
ENCODING 21776
SWIDTH 1040 0
DWIDTH 13 0
BBX 13 13 0 -2
BITMAP
03C0
43B0
7FF8
6380
6FF0
63B0
7FF8
63B0
43B0
4FF0
4E60
8FE0
0E60
ENDCHAR
STARTCHAR 5514
ENCODING 21780
SWIDTH 1040 0
DWIDTH 13 0
BBX 13 13 0 -2
BITMAP
0060
9FF0
F380
DFF0
D760
DFF8
D000
F7F0
D760
D760
0760
07E0
0760
ENDCHAR
STARTCHAR 5516
ENCODING 21782
SWIDTH 1040 0
DWIDTH 13 0
BBX 13 12 0 -1
BITMAP
0030
1FF8
96C0
F6D0
DFF8
D6D0
D6D0
FFF0
D6C0
D6C0
06D0
1FF8
ENDCHAR
STARTCHAR 552E
ENCODING 21806
SWIDTH 1040 0
DWIDTH 13 0
BBX 13 13 0 -2
BITMAP
1EC0
1BA0
3FF0
7700
BFE0
3730
3FF8
1040
1060
1FE0
18C0
1FC0
18C0
ENDCHAR
STARTCHAR 552F
ENCODING 21807
SWIDTH 1040 0
DWIDTH 13 0
BBX 13 13 0 -2
BITMAP
03C0
93B0
FF68
D7F8
DF60
D7F0
D760
F7F0
D760
D760
0768
07F8
0700
ENDCHAR
STARTCHAR 5531
ENCODING 21809
SWIDTH 1040 0
DWIDTH 13 0
BBX 13 13 0 -2
BITMAP
07F0
9760
FFE0
D760
D7E0
D630
D7F8
F730
D730
D7F0
0730
07F0
0730
ENDCHAR
STARTCHAR 5533
ENCODING 21811
SWIDTH 1040 0
DWIDTH 13 0
BBX 13 13 0 -2
BITMAP
0030
9FF8
F000
DFF0
D860
DFE0
DBB0
FFF8
DB80
DB80
1740
2678
1830
ENDCHAR
STARTCHAR 5538
ENCODING 21816
SWIDTH 1040 0
DWIDTH 13 0
BBX 13 13 0 -2
BITMAP
0380
93C0
F660
DFF8
D050
DFE0
D0C0
F7A0
D7F0
D7D0
1758
77E8
63E0
ENDCHAR
STARTCHAR 5539
ENCODING 21817
SWIDTH 1040 0
DWIDTH 13 0
BBX 13 13 0 -2
BITMAP
0F40
8E60
FFE0
D8D8
DB98
DFD0
DBB0
FBB0
DBF0
DBC0
13A0
1FB0
2730
ENDCHAR
STARTCHAR 553E
ENCODING 21822
SWIDTH 1040 0
DWIDTH 13 0
BBX 13 12 0 -1
BITMAP
0060
97F0
F0C0
DFF8
D6D0
DFF8
D6D0
F6D0
D6D8
DFF8
00D0
1FF8
ENDCHAR
STARTCHAR 5540
ENCODING 21824
SWIDTH 1040 0
DWIDTH 13 0
BBX 13 12 0 -1
BITMAP
1030
9FF8
F8C0
DBE0
D8C0
DFF0
F8C0
DFF0
D8C0
18C0
10D0
2FF8
ENDCHAR
STARTCHAR 5544
ENCODING 21828
SWIDTH 1040 0
DWIDTH 13 0
BBX 13 13 0 -2
BITMAP
0030
9FF8
F380
D720
DBB0
D6E0
DBC0
F7E0
D6F0
D6F0
18D8
07D0
0380
ENDCHAR
STARTCHAR 5545
ENCODING 21829
SWIDTH 1040 0
DWIDTH 13 0
BBX 13 13 0 -2
BITMAP
03A0
93F0
FB80
D7F0
D760
D7E0
D760
F7E0
D7B0
D3B0
1FF8
0380
0380
ENDCHAR
STARTCHAR 5546
ENCODING 21830
SWIDTH 1040 0
DWIDTH 13 0
BBX 13 13 0 -2
BITMAP
0780
0730
FFF8
1B80
4B30
7FF8
6B30
7FF0
6BB0
6BB0
6FB0
6BF0
6060
ENDCHAR
STARTCHAR 554C
ENCODING 21836
SWIDTH 1040 0
DWIDTH 13 0
BBX 13 12 0 -1
BITMAP
03C0
93B0
FFF8
D750
D778
DE78
D040
FFE0
D380
D380
03B0
1FF8
ENDCHAR
STARTCHAR 554F
ENCODING 21839
SWIDTH 1040 0
DWIDTH 13 0
BBX 13 13 0 -2
BITMAP
9B30
FBF8
DBB0
FBF0
DBB0
FBF0
C030
DFB0
DBB0
DBB0
DFB0
DBF0
C060
ENDCHAR
STARTCHAR 5553
ENCODING 21843
SWIDTH 1040 0
DWIDTH 13 0
BBX 13 13 0 -2
BITMAP
0BC0
FFB0
43F8
7F60
6EC0
7EE0
6F38
5070
D040
9FC0
18C0
1FC0
18C0
ENDCHAR
STARTCHAR 5556
ENCODING 21846
SWIDTH 1040 0
DWIDTH 13 0
BBX 13 13 0 -2
BITMAP
03C0
97B0
FFA0
DBC0
D370
DE30
D3C0
F7B0
D7A0
DFA0
0340
0778
1830
ENDCHAR
STARTCHAR 5557
ENCODING 21847
SWIDTH 1040 0
DWIDTH 13 0
BBX 12 13 0 -2
BITMAP
0780
9760
F7F0
D660
D6C0
DBA0
DFF0
F860
DE60
DEE0
1860
1FE0
1860
ENDCHAR
STARTCHAR 555C
ENCODING 21852
SWIDTH 1040 0
DWIDTH 13 0
BBX 13 13 0 -2
BITMAP
0730
9FF8
FBB0
D760
DB50
DB98
DFF8
FBB0
CBA0
CBA0
0760
0BB8
3330
ENDCHAR
STARTCHAR 555D
ENCODING 21853
SWIDTH 1040 0
DWIDTH 13 0
BBX 13 13 0 -2
BITMAP
0380
97B0
FEF8
D6D0
DFD0
D6D0
FFD0
CFD0
CED0
1EF0
16D0
2600
0600
ENDCHAR
STARTCHAR 5563
ENCODING 21859
SWIDTH 1040 0
DWIDTH 13 0
BBX 13 13 0 -2
BITMAP
0780
9748
FFF8
DF68
D768
DFE8
D768
F7E8
D768
D778
17E8
1F60
1860
ENDCHAR
STARTCHAR 557B
ENCODING 21883
SWIDTH 1040 0
DWIDTH 13 0
BBX 13 13 0 -2
BITMAP
0720
7FF0
18C0
7FF8
C730
FFE0
3760
3760
3740
1FC0
18C0
1FC0
18C0
ENDCHAR
STARTCHAR 557C
ENCODING 21884
SWIDTH 1040 0
DWIDTH 13 0
BBX 13 13 0 -2
BITMAP
03C0
93A0
FFF0
D760
DFF8
DB90
DFF0
FBB0
DBB0
DBB0
1BF0
0380
0380
ENDCHAR
STARTCHAR 557E
ENCODING 21886
SWIDTH 1040 0
DWIDTH 13 0
BBX 13 13 0 -2
BITMAP
03E0
97C0
FED0
D6D8
DFD0
D6E0
DFC0
FEC0
D6A0
D6A0
26B8
0730
0610
ENDCHAR
STARTCHAR 5580
ENCODING 21888
SWIDTH 1040 0
DWIDTH 13 0
BBX 13 13 0 -2
BITMAP
03C0
9BB0
FFF8
DB20
D7E0
D760
D8C0
F7F8
D770
DF70
0760
07E0
0760
ENDCHAR
STARTCHAR 5583
ENCODING 21891
SWIDTH 1040 0
DWIDTH 13 0
BBX 13 13 0 -2
BITMAP
03C0
93B0
FFF8
D380
DFF8
DEF0
DBB0
FFF0
DBB0
DBB0
1FF0
1BB0
1BF0
ENDCHAR
STARTCHAR 5584
ENCODING 21892
SWIDTH 1040 0
DWIDTH 13 0
BBX 13 13 0 -2
BITMAP
18C0
08A0
7FF0
0700
3FE0
1750
FFF8
0000
1FE0
1FE0
18C0
1FC0
18C0
ENDCHAR
STARTCHAR 5587
ENCODING 21895
SWIDTH 1040 0
DWIDTH 13 0
BBX 13 13 0 -2
BITMAP
07B8
9770
FFF0
D730
DFF0
D770
DFF0
F730
D7B0
DFB0
0FF0
1770
0720
ENDCHAR
STARTCHAR 5589
ENCODING 21897
SWIDTH 1040 0
DWIDTH 13 0
BBX 13 13 0 -2
BITMAP
0E60
8FF0
F860
DFF8
DB80
DBF0
DED0
FFF8
D8C0
D8C0
1BB8
1B30
1E10
ENDCHAR
STARTCHAR 558A
ENCODING 21898
SWIDTH 1040 0
DWIDTH 13 0
BBX 13 13 0 -2
BITMAP
00F0
90D0
FFF8
D8C0
DFD8
D8D8
DFF0
FBF0
DB68
DF68
10F0
2398
4E18
ENDCHAR
STARTCHAR 558B
ENCODING 21899
SWIDTH 1040 0
DWIDTH 13 0
BBX 13 13 0 -2
BITMAP
07F0
9760
FFF8
D760
D760
D730
D7F8
F390
D398
DFF8
0FC0
0BB8
33B0
ENDCHAR
STARTCHAR 5598
ENCODING 21912
SWIDTH 1040 0
DWIDTH 13 0
BBX 13 13 0 -2
BITMAP
03C0
9BB8
FBB0
DFF0
D010
DFF8
D710
FFF8
DBB0
DBB0
1BB0
1BB0
1BF0
ENDCHAR
STARTCHAR 5599
ENCODING 21913
SWIDTH 1040 0
DWIDTH 13 0
BBX 13 13 0 -2
BITMAP
0060
97F0
F860
D7E0
D060
DFF8
DB90
F6F0
DAE0
DBE0
06F0
1BD8
0390
ENDCHAR
STARTCHAR 559A
ENCODING 21914
SWIDTH 1040 0
DWIDTH 13 0
BBX 13 13 0 -2
BITMAP
03A0
03E0
9750
FFF8
DBB0
DFF0
DBB0
FFF8
D380
D380
0778
0630
1810
ENDCHAR
STARTCHAR 559C
ENCODING 21916
SWIDTH 1040 0
DWIDTH 13 0
BBX 13 13 0 -2
BITMAP
0720
7FF0
0700
3FE0
18C0
1FC0
08C0
0EB0
0EB8
FFF8
18C0
1FC0
18C0
ENDCHAR
STARTCHAR 559D
ENCODING 21917
SWIDTH 1040 0
DWIDTH 13 0
BBX 13 13 0 -2
BITMAP
0660
97F0
FF60
D7E0
D760
D7E0
D3B0
F7F8
D6B0
DEB0
0F70
07F0
0060
ENDCHAR
STARTCHAR 559E
ENCODING 21918
SWIDTH 1040 0
DWIDTH 13 0
BBX 13 13 0 -2
BITMAP
1390
9FF8
FBD0
DFD0
DBD0
DFD0
D8D0
FFD0
DBD0
DBF0
1FD0
38C0
30C0
ENDCHAR
STARTCHAR 559F
ENCODING 21919
SWIDTH 1040 0
DWIDTH 13 0
BBX 13 13 0 -2
BITMAP
1030
9FF8
FBB0
DFF0
DBB0
DFF0
D760
F7E0
D760
D760
07E0
0760
0760
ENDCHAR
STARTCHAR 55A7
ENCODING 21927
SWIDTH 1040 0
DWIDTH 13 0
BBX 13 12 0 -1
BITMAP
03C0
9BB0
FFF8
D820
D7F0
D760
D7E0
F760
D760
D7E0
0030
1FF8
ENDCHAR
STARTCHAR 55A8
ENCODING 21928
SWIDTH 1040 0
DWIDTH 13 0
BBX 13 13 0 -2
BITMAP
03C0
93B0
FFF8
D760
D7E0
D830
DFF8
F6D0
D6E0
D7E0
0ED0
0EF8
3078
ENDCHAR
STARTCHAR 55A9
ENCODING 21929
SWIDTH 1040 0
DWIDTH 13 0
BBX 13 13 0 -2
BITMAP
0380
93C0
FF60
D638
DBB0
DFB0
DBB0
FFB0
DBB0
DBB0
1FB0
1BF0
1BA0
ENDCHAR
STARTCHAR 55AA
ENCODING 21930
SWIDTH 1040 0
DWIDTH 13 0
BBX 13 13 0 -2
BITMAP
0780
0760
7FF0
0700
7770
5750
FFF8
3660
3740
3340
33C0
FE78
6030
ENDCHAR
STARTCHAR 55AB
ENCODING 21931
SWIDTH 1040 0
DWIDTH 13 0
BBX 13 13 0 -2
BITMAP
06B0
9FF8
F6B0
DFB0
D6B0
D770
DFE0
F390
9398
9FF8
03C0
0778
1830
ENDCHAR
STARTCHAR 55AC
ENCODING 21932
SWIDTH 1040 0
DWIDTH 13 0
BBX 13 13 0 -2
BITMAP
00E0
3FC0
0730
FFF8
1880
3FF0
CEB8
7FF0
6EB0
6EB0
6FB0
6EF0
6060
ENDCHAR
STARTCHAR 55AE
ENCODING 21934
SWIDTH 1040 0
DWIDTH 13 0
BBX 13 13 0 -2
BITMAP
9B30
FFF8
DBB0
FBF0
C020
3FF0
3760
3FE0
3770
3770
FFF8
0700
0700
ENDCHAR
STARTCHAR 55B0
ENCODING 21936
SWIDTH 1040 0
DWIDTH 13 0
BBX 13 13 0 -2
BITMAP
0080
93C0
FB60
D7F8
DF70
D7E0
D760
F7F8
D750
D750
07E0
1F78
1830
ENDCHAR
STARTCHAR 55B6
ENCODING 21942
SWIDTH 1040 0
DWIDTH 13 0
BBX 13 13 0 -2
BITMAP
3760
5350
7FF8
C030
DFC0
18C0
1FC0
2620
2630
3FF0
3060
3FE0
3060
ENDCHAR
STARTCHAR 55C4
ENCODING 21956
SWIDTH 1040 0
DWIDTH 13 0
BBX 13 13 0 -2
BITMAP
0030
9FF8
F380
D7F0
D760
D7E0
D760
F7E0
D760
D760
1EC0
03B8
1E10
ENDCHAR
STARTCHAR 55C5
ENCODING 21957
SWIDTH 1040 0
DWIDTH 13 0
BBX 13 13 0 -2
BITMAP
03C0
93A0
FFF0
D760
D7E0
D760
D7E0
F760
D778
DFF8
0380
0778
1830
ENDCHAR
STARTCHAR 55C7
ENCODING 21959
SWIDTH 1040 0
DWIDTH 13 0
BBX 13 13 0 -2
BITMAP
0780
0760
7FF0
3760
5FB0
FFF8
6EB0
6EB0
6EB0
6FB0
6030
7FF0
6030
ENDCHAR
STARTCHAR 55D4
ENCODING 21972
SWIDTH 1040 0
DWIDTH 13 0
BBX 13 13 0 -2
BITMAP
03A0
9FF0
FB80
D7F0
D760
D7E0
D760
F7E0
C760
C760
1FF8
0770
1E18
ENDCHAR
STARTCHAR 55DA
ENCODING 21978
SWIDTH 1040 0
DWIDTH 13 0
BBX 13 13 0 -2
BITMAP
03C0
93A0
F7F0
D760
D7E0
D720
D7F0
F710
D718
D7F8
0EB0
1B70
3760
ENDCHAR
STARTCHAR 55DC
ENCODING 21980
SWIDTH 1040 0
DWIDTH 13 0
BBX 13 13 0 -2
BITMAP
03A0
9FE0
F3D0
DFF8
D3A0
D7E0
DBB0
F7F0
D760
D760
07E0
0760
07E0
ENDCHAR
STARTCHAR 55DF
ENCODING 21983
SWIDTH 1040 0
DWIDTH 13 0
BBX 13 12 0 -1
BITMAP
0760
9FF0
F380
DFE0
D390
DFF8
D380
FFF0
CEC0
CEC0
30D0
0FF8
ENDCHAR
STARTCHAR 55E3
ENCODING 21987
SWIDTH 1040 0
DWIDTH 13 0
BBX 13 13 0 -2
BITMAP
9830
FFF8
D830
FFF0
8830
FBF0
DBB0
DBB0
DBB0
FBF0
D830
D8F0
D860
ENDCHAR
STARTCHAR 55E4
ENCODING 21988
SWIDTH 1040 0
DWIDTH 13 0
BBX 13 13 0 -2
BITMAP
1FF8
9BB0
FFF0
D710
DFF8
D380
DFF0
FBB0
DBB0
DFF0
0390
1FF8
0E18
ENDCHAR
STARTCHAR 55F7
ENCODING 22007
SWIDTH 1040 0
DWIDTH 13 0
BBX 13 13 0 -2
BITMAP
0770
9FE0
F768
DFF8
D7B0
DFB0
D770
FFE0
DBB0
DBB0
1BD8
1750
2790
ENDCHAR
STARTCHAR 55F9
ENCODING 22009
SWIDTH 1040 0
DWIDTH 13 0
BBX 13 13 0 -2
BITMAP
00D0
97F8
F8C0
DFF0
D6D0
D7F0
DED0
FFF8
CEC0
CEC0
0EC0
1FF8
1BF8
ENDCHAR
STARTCHAR 55FD
ENCODING 22013
SWIDTH 1040 0
DWIDTH 13 0
BBX 13 13 0 -2
BITMAP
07E0
9768
FFF8
D758
DFF0
D760
DFE0
F760
D770
DFF0
1778
2750
0790
ENDCHAR
STARTCHAR 55FE
ENCODING 22014
SWIDTH 1040 0
DWIDTH 13 0
BBX 13 13 0 -2
BITMAP
0FE0
8ED0
FFF8
D8C0
DBB0
DFF0
D760
F7F8
D760
D760
36F8
2E90
4B10
ENDCHAR
STARTCHAR 5606
ENCODING 22022
SWIDTH 1040 0
DWIDTH 13 0
BBX 13 13 0 -2
BITMAP
0360
9FF8
F360
D7F0
D6D0
DFF8
D0D0
FFF8
D0C0
D0C0
03B8
0730
1810
ENDCHAR
STARTCHAR 5609
ENCODING 22025
SWIDTH 1040 0
DWIDTH 13 0
BBX 13 13 0 -2
BITMAP
0720
7FF0
0700
3FE0
18C0
1FC0
08B0
FFF8
F090
3090
FFF8
6EB0
DEF0
ENDCHAR
STARTCHAR 5614
ENCODING 22036
SWIDTH 1040 0
DWIDTH 13 0
BBX 13 13 0 -2
BITMAP
1060
9FF0
F800
DBE0
DB60
DBE0
DFF0
FBB0
DBB0
DFF0
1830
1FF8
1800
ENDCHAR
STARTCHAR 5616
ENCODING 22038
SWIDTH 1040 0
DWIDTH 13 0
BBX 13 13 0 -2
BITMAP
03A0
9FF0
F380
D7E0
D390
DFF8
D760
F7E0
D760
D760
07E0
0730
1E38
ENDCHAR
STARTCHAR 5617
ENCODING 22039
SWIDTH 1040 0
DWIDTH 13 0
BBX 13 13 0 -2
BITMAP
3760
5350
FFF8
D8D0
1FC0
60E0
7FD0
6038
6038
3FF8
18C0
1FC0
18C0
ENDCHAR
STARTCHAR 5618
ENCODING 22040
SWIDTH 1040 0
DWIDTH 13 0
BBX 13 12 0 -1
BITMAP
03E0
9390
FFF8
DB90
DFE0
DB90
F8F0
D768
D768
3F78
2760
5FF8
ENDCHAR
STARTCHAR 561B
ENCODING 22043
SWIDTH 1040 0
DWIDTH 13 0
BBX 13 13 0 -2
BITMAP
03C0
93B0
FFF8
D760
D768
DFF8
D760
F7F0
D778
DF78
17E8
2760
0760
ENDCHAR
STARTCHAR 5629
ENCODING 22057
SWIDTH 1040 0
DWIDTH 13 0
BBX 13 13 0 -2
BITMAP
0760
1FF8
9760
FFF0
DBA0
DFF8
DBA0
FFF0
D3A0
D3A0
0FF0
0380
0380
ENDCHAR
STARTCHAR 562F
ENCODING 22063
SWIDTH 1040 0
DWIDTH 13 0
BBX 13 13 0 -2
BITMAP
0380
9FF0
F3B0
DFF8
D3B0
DFF8
DFF0
FBB0
DBB0
DFF0
1BB0
17F0
2BB0
ENDCHAR
STARTCHAR 5631
ENCODING 22065
SWIDTH 1040 0
DWIDTH 13 0
BBX 13 13 0 -2
BITMAP
1FF0
9860
FFE0
D8C0
DFF0
DBA0
DFE0
F3B0
D3B8
DFF8
3B70
5FF0
1B30
ENDCHAR
STARTCHAR 5632
ENCODING 22066
SWIDTH 1040 0
DWIDTH 13 0
BBX 13 13 0 -2
BITMAP
0FB0
8EF8
FFB0
DBB0
DFF0
DBB0
FFB0
CEF0
CEB0
3FB0
0EB0
0EF0
0F60
ENDCHAR
STARTCHAR 5634
ENCODING 22068
SWIDTH 1040 0
DWIDTH 13 0
BBX 13 13 0 -2
BITMAP
0768
97F8
F760
DFF8
DEB8
D3E0
D750
FFF8
D730
D730
07F0
0730
1E70
ENDCHAR
STARTCHAR 5636
ENCODING 22070
SWIDTH 1040 0
DWIDTH 13 0
BBX 13 13 0 -2
BITMAP
1F30
9B70
FFC0
DBB0
DFF8
DBB0
FFB0
DBB0
DBB0
7FB0
1BB0
1730
2630
ENDCHAR
STARTCHAR 5638
ENCODING 22072
SWIDTH 1040 0
DWIDTH 13 0
BBX 13 13 0 -2
BITMAP
0F00
8E30
FFF8
DBB0
DBB0
DFF8
DBB0
FBB0
DBB8
DFF8
33B0
6ED8
6ED8
ENDCHAR
STARTCHAR 5642
ENCODING 22082
SWIDTH 1040 0
DWIDTH 13 0
BBX 13 13 0 -2
BITMAP
0730
9360
FFF8
D760
DFF0
DBB0
FFF0
D830
D838
1FF8
0E60
06E0
00C0
ENDCHAR
STARTCHAR 564C
ENCODING 22092
SWIDTH 1040 0
DWIDTH 13 0
BBX 13 13 0 -2
BITMAP
0760
9350
FFF8
DBB0
DFF0
DBB0
DFF0
F760
D760
D7E0
0760
07E0
0760
ENDCHAR
STARTCHAR 564E
ENCODING 22094
SWIDTH 1040 0
DWIDTH 13 0
BBX 13 12 0 -1
BITMAP
03A0
9FF0
F380
D7E0
D010
DFF8
DF70
F7E0
D760
D760
0350
1FF8
ENDCHAR
STARTCHAR 5650
ENCODING 22096
SWIDTH 1040 0
DWIDTH 13 0
BBX 13 13 0 -2
BITMAP
7BF0
6BB0
7BF0
4050
3FE0
0730
FFF8
0000
7FF8
7FF8
6BB0
7BF0
6BB0
ENDCHAR
STARTCHAR 565B
ENCODING 22107
SWIDTH 1040 0
DWIDTH 13 0
BBX 13 13 0 -2
BITMAP
03A0
1BF0
9B90
FFF8
D810
DFF8
DBB0
FFF0
DBF0
DBF0
1FB0
1FF0
1830
ENDCHAR
STARTCHAR 5664
ENCODING 22116
SWIDTH 1040 0
DWIDTH 13 0
BBX 13 13 0 -2
BITMAP
07F0
9760
FFF8
D760
DFF8
D770
DFF0
F010
D018
DFF8
0EE0
0BD8
3398
ENDCHAR
STARTCHAR 5668
ENCODING 22120
SWIDTH 1040 0
DWIDTH 13 0
BBX 13 13 0 -2
BITMAP
5B60
7FF0
5B60
7BE0
0730
FFF8
1B80
3378
3370
FFF0
5B60
7BE0
5B60
ENDCHAR
STARTCHAR 566A
ENCODING 22122
SWIDTH 1040 0
DWIDTH 13 0
BBX 13 13 0 -2
BITMAP
03E0
9B60
FBE0
D830
DFF8
DBB0
DFF0
FB90
DB98
DFF8
0FC0
0BB8
3390
ENDCHAR
STARTCHAR 566B
ENCODING 22123
SWIDTH 1040 0
DWIDTH 13 0
BBX 13 13 0 -2
BITMAP
03C0
93A0
FFF0
D350
DFF8
D760
D7E0
F760
D770
D7F0
0B58
1BF8
18E0
ENDCHAR
STARTCHAR 566C
ENCODING 22124
SWIDTH 1040 0
DWIDTH 13 0
BBX 13 12 0 -1
BITMAP
18D0
9FF8
F6A0
D730
DFF0
DBA0
DBA0
F7B0
D7D8
D7D8
2390
3FF8
ENDCHAR
STARTCHAR 5674
ENCODING 22132
SWIDTH 1040 0
DWIDTH 13 0
BBX 13 13 0 -2
BITMAP
00C0
DFF8
F6D0
DFF8
D610
D7F8
D730
F7F0
D730
D730
07F0
0738
1E18
ENDCHAR
STARTCHAR 5678
ENCODING 22136
SWIDTH 1040 0
DWIDTH 13 0
BBX 13 13 0 -2
BITMAP
1E30
9BF8
FF60
DEF8
D8B0
DBF0
DFB0
F8F0
D8B0
DFB0
0FF0
00D8
0398
ENDCHAR
STARTCHAR 567A
ENCODING 22138
SWIDTH 1040 0
DWIDTH 13 0
BBX 13 13 0 -2
BITMAP
0F30
AEF0
FF80
ABB0
BFF8
AEB0
BFB0
EEB0
AEB0
BFB0
1EB0
2F30
0E30
ENDCHAR
STARTCHAR 5680
ENCODING 22144
SWIDTH 1040 0
DWIDTH 13 0
BBX 13 13 0 -2
BITMAP
03C0
9BB0
FFF8
DBD0
D7B8
DEE8
D010
FFF8
CEB0
CEB0
1FF8
0380
0780
ENDCHAR
STARTCHAR 5686
ENCODING 22150
SWIDTH 1040 0
DWIDTH 13 0
BBX 13 13 0 -2
BITMAP
0760
9FF8
F760
DFF0
D740
D7C0
D830
FFF8
DBB0
DBB0
1FB0
1BF0
1860
ENDCHAR
STARTCHAR 5687
ENCODING 22151
SWIDTH 1040 0
DWIDTH 13 0
BBX 13 13 0 -2
BITMAP
1EE0
98D0
FFF0
D8C0
D8D0
FFF8
D6A0
B7B0
B7B8
77B8
56A8
3EE0
4B40
ENDCHAR
STARTCHAR 568A
ENCODING 22154
SWIDTH 1040 0
DWIDTH 13 0
BBX 13 13 0 -2
BITMAP
0380
97F0
F760
D7E0
D760
DFF0
DBB0
FFF0
DBB0
DBB0
3FF8
0760
1E60
ENDCHAR
STARTCHAR 568F
ENCODING 22159
SWIDTH 1040 0
DWIDTH 13 0
BBX 13 13 0 -2
BITMAP
03A0
9FF0
F390
DFF8
DBB0
D7E0
DBB0
FFF8
DBD0
DBD0
1F80
13F8
60F8
ENDCHAR
STARTCHAR 5694
ENCODING 22164
SWIDTH 1040 0
DWIDTH 13 0
BBX 13 13 0 -2
BITMAP
03A0
9FF0
F390
DFF8
DBB0
D7E0
DBB0
FFF8
DBE8
DBE8
1F80
13F8
60F8
ENDCHAR
STARTCHAR 56A0
ENCODING 22176
SWIDTH 1040 0
DWIDTH 13 0
BBX 13 13 0 -2
BITMAP
16B8
9FF0
FBB0
DBB0
DEB0
D7B0
DFB0
F6F0
B6B0
BFB0
16B0
3F70
1860
ENDCHAR
STARTCHAR 56A2
ENCODING 22178
SWIDTH 1040 0
DWIDTH 13 0
BBX 13 13 0 -2
BITMAP
0720
7FF0
4710
7FF8
D8D0
7FF0
18D0
FFF8
FB60
1B60
F0C0
3F78
7030
ENDCHAR
STARTCHAR 56A5
ENCODING 22181
SWIDTH 1040 0
DWIDTH 13 0
BBX 13 13 0 -2
BITMAP
0768
9FF8
F760
D7E0
D778
DFF0
D768
FFF8
D778
D778
1BB0
36D8
37D8
ENDCHAR
STARTCHAR 56AE
ENCODING 22190
SWIDTH 1040 0
DWIDTH 13 0
BBX 13 13 0 -2
BITMAP
6358
7FF8
DED8
6FF0
5ED8
FFD8
AEF8
4F50
4F58
FFF8
6EB0
6FB0
6EF0
ENDCHAR
STARTCHAR 56B4
ENCODING 22196
SWIDTH 1040 0
DWIDTH 13 0
BBX 13 13 0 -2
BITMAP
3EF0
2EB0
3EF0
2010
3FF8
30C0
3FF8
36B0
36B0
7FF0
5BA0
BFF8
3390
ENDCHAR
STARTCHAR 56B6
ENCODING 22198
SWIDTH 1040 0
DWIDTH 13 0
BBX 13 13 0 -2
BITMAP
13B0
9FF8
FBB0
DFF0
DBB0
DFF0
D760
FBB0
DBB8
DFF8
0E40
03E0
1F30
ENDCHAR
STARTCHAR 56BC
ENCODING 22204
SWIDTH 1040 0
DWIDTH 13 0
BBX 13 13 0 -2
BITMAP
00F0
9FE0
F6B0
DFF8
DBB0
DFF0
DBB0
FFF8
DEB0
DEB0
1B70
3FF0
3060
ENDCHAR
STARTCHAR 56C0
ENCODING 22208
SWIDTH 1040 0
DWIDTH 13 0
BBX 13 13 0 -2
BITMAP
18E0
BFD0
DBF8
FFB0
DBF0
FFB0
DBF0
FF30
DB38
DBF8
7F30
1BF0
1860
ENDCHAR
STARTCHAR 56C1
ENCODING 22209
SWIDTH 1040 0
DWIDTH 13 0
BBX 13 13 0 -2
BITMAP
0060
9FF0
F760
D7E0
D770
DFE0
D060
FFF8
DBB0
DBB0
1FF8
3BF0
03B0
ENDCHAR
STARTCHAR 56C2
ENCODING 22210
SWIDTH 1040 0
DWIDTH 13 0
BBX 13 13 0 -2
BITMAP
7BE0
6BA0
7BE0
0030
FFF8
18C0
1FC0
38E0
38F8
FFF8
5B68
7BE0
5B60
ENDCHAR
STARTCHAR 56C3
ENCODING 22211
SWIDTH 1040 0
DWIDTH 13 0
BBX 13 13 0 -2
BITMAP
0F78
8E50
FFF8
DBD0
D6D0
DFF8
DED0
FFF8
DED0
DED0
1FD0
2EF8
0EC0
ENDCHAR
STARTCHAR 56C8
ENCODING 22216
SWIDTH 1040 0
DWIDTH 13 0
BBX 13 13 0 -2
BITMAP
0760
9FF8
FBD0
DEF8
DBB0
DEB0
DFF8
F010
D018
DFF8
0720
1FF8
0E18
ENDCHAR
STARTCHAR 56CE
ENCODING 22222
SWIDTH 1040 0
DWIDTH 13 0
BBX 13 13 0 -2
BITMAP
13F0
9F60
FBF8
DFB0
DBF0
DFB0
FBF0
DFA0
D0A0
10E0
1EA0
17E0
26A0
ENDCHAR
STARTCHAR 56D1
ENCODING 22225
SWIDTH 1040 0
DWIDTH 13 0
BBX 13 13 0 -2
BITMAP
1030
9FF8
F830
DFF0
DBA0
DFF0
DBB0
FFF8
FBB0
3BB0
2FF0
4BB0
1FE0
ENDCHAR
STARTCHAR 56D3
ENCODING 22227
SWIDTH 1040 0
DWIDTH 13 0
BBX 13 13 0 -2
BITMAP
1730
9FF8
F6B0
DFB0
DEF0
D760
DFF8
FBB0
DBB0
DFF0
1EB0
1FF0
1810
ENDCHAR
STARTCHAR 56D7
ENCODING 22231
SWIDTH 1040 0
DWIDTH 13 0
BBX 12 13 1 -2
BITMAP
8060
FFF0
C060
C060
C060
C060
C060
C060
C060
C060
C060
FFE0
C060
ENDCHAR
STARTCHAR 56D8
ENCODING 22232
SWIDTH 1040 0
DWIDTH 13 0
BBX 12 13 1 -2
BITMAP
8060
FFF0
C060
DF60
DD60
DF60
DD60
DC60
DC60
DFE0
CF60
C0E0
C0C0
ENDCHAR
STARTCHAR 56DA
ENCODING 22234
SWIDTH 1040 0
DWIDTH 13 0
BBX 12 13 1 -2
BITMAP
8060
FFF0
CE60
CE60
CE60
CE60
DD60
D1E0
E1E0
E0E0
C060
FFE0
C060
ENDCHAR
STARTCHAR 56DB
ENCODING 22235
SWIDTH 1040 0
DWIDTH 13 0
BBX 12 11 1 -1
BITMAP
8060
FFF0
D660
D660
D7E0
E1E0
C060
C060
C060
FFE0
C060
ENDCHAR
STARTCHAR 56DE
ENCODING 22238
SWIDTH 1040 0
DWIDTH 13 0
BBX 12 13 1 -2
BITMAP
8060
FFF0
C060
D760
DF60
D760
D760
DF60
D760
D760
C060
FFE0
C060
ENDCHAR
STARTCHAR 56E0
ENCODING 22240
SWIDTH 1040 0
DWIDTH 13 0
BBX 12 13 1 -2
BITMAP
8060
FFF0
CE60
CE60
FFE0
CE60
DD60
D1E0
E1E0
E0E0
C060
FFE0
C060
ENDCHAR
STARTCHAR 56E3
ENCODING 22243
SWIDTH 1040 0
DWIDTH 13 0
BBX 12 13 1 -2
BITMAP
8060
FFF0
C760
C760
FFE0
E760
D760
DF60
DF60
CF60
CE60
FFE0
C060
ENDCHAR
STARTCHAR 56EE
ENCODING 22254
SWIDTH 1040 0
DWIDTH 13 0
BBX 12 13 1 -2
BITMAP
8060
FFF0
CC60
DEE0
D7E0
F760
D660
D7E0
D7E0
D1E0
C060
FFE0
C060
ENDCHAR
STARTCHAR 56F0
ENCODING 22256
SWIDTH 1040 0
DWIDTH 13 0
BBX 12 13 1 -2
BITMAP
8060
FFF0
CE60
CE60
FFE0
DE60
DFE0
EEE0
CEE0
CE60
CE60
FFE0
C060
ENDCHAR
STARTCHAR 56F2
ENCODING 22258
SWIDTH 1040 0
DWIDTH 13 0
BBX 13 13 0 -2
BITMAP
8030
FFF8
DBB0
FFF0
DBB0
DBB0
FFF0
DBB0
D3B0
D3B0
E3B0
FFF0
C030
ENDCHAR
STARTCHAR 56F3
ENCODING 22259
SWIDTH 1040 0
DWIDTH 13 0
BBX 12 13 1 -2
BITMAP
8060
FFF0
D060
CDE0
ED60
DE60
D760
CD60
D160
F1E0
C060
FFE0
C060
ENDCHAR
ENDFONT
